<svg width="118" height="77" viewBox="0 0 118 77" fill="none" xmlns="http://www.w3.org/2000/svg">
<path d="M48.4962 2.00003H107.453C108.556 1.99701 109.649 2.2113 110.67 2.63065C111.69 3.04999 112.618 3.66619 113.4 4.44406C114.182 5.22194 114.803 6.1463 115.228 7.16428C115.653 8.18226 115.873 9.27394 115.876 10.377V22.942C114.776 22.9245 113.683 23.1239 112.66 23.5287C111.637 23.9336 110.703 24.536 109.913 25.3015C109.123 26.0671 108.491 26.9808 108.054 27.9906C107.616 29.0003 107.382 30.0863 107.365 31.1866C107.347 32.2868 107.547 33.3797 107.951 34.4029C108.356 35.426 108.959 36.3594 109.724 37.1498C110.49 37.9402 111.404 38.572 112.413 39.0092C113.423 39.4465 114.509 39.6805 115.609 39.698H115.876V52.265C115.873 53.3681 115.653 54.4599 115.229 55.478C114.804 56.4961 114.183 57.4206 113.401 58.1986C112.619 58.9767 111.692 59.5931 110.671 60.0127C109.651 60.4323 108.558 60.6468 107.455 60.6441H48.4962C46.2688 60.6502 44.1301 59.7713 42.5505 58.2007C40.9709 56.6302 40.0799 54.4965 40.0732 52.2691V39.7021C42.2958 39.7021 44.4272 38.8191 45.9988 37.2476C47.5703 35.676 48.4532 33.5446 48.4532 31.3221C48.4532 29.0995 47.5703 26.9681 45.9988 25.3965C44.4272 23.825 42.2958 22.942 40.0732 22.942V10.3791C40.076 9.27596 40.296 8.18419 40.7207 7.16611C41.1454 6.14803 41.7664 5.22359 42.5484 4.44553C43.3303 3.66746 44.2579 3.05103 45.2781 2.63144C46.2983 2.21185 47.3911 1.99727 48.4942 2.00003" fill="#F5F5F5"/>
<path d="M48.4962 2.00003H107.453C108.556 1.99701 109.649 2.2113 110.67 2.63065C111.69 3.04999 112.618 3.66619 113.4 4.44406C114.182 5.22194 114.803 6.1463 115.228 7.16428C115.653 8.18226 115.873 9.27394 115.876 10.377V22.942C114.776 22.9245 113.683 23.1239 112.66 23.5287C111.637 23.9336 110.703 24.536 109.913 25.3015C109.123 26.0671 108.491 26.9808 108.054 27.9906C107.616 29.0003 107.382 30.0863 107.365 31.1866C107.347 32.2868 107.547 33.3797 107.951 34.4029C108.356 35.426 108.959 36.3594 109.724 37.1498C110.49 37.9402 111.404 38.572 112.413 39.0092C113.423 39.4465 114.509 39.6805 115.609 39.698H115.876V52.265C115.873 53.3681 115.653 54.4599 115.229 55.478C114.804 56.4961 114.183 57.4206 113.401 58.1986C112.619 58.9767 111.692 59.5931 110.671 60.0127C109.651 60.4323 108.558 60.6468 107.455 60.6441H48.4962C46.2688 60.6502 44.1301 59.7713 42.5505 58.2007C40.9709 56.6302 40.0799 54.4965 40.0732 52.2691V39.7021C42.2958 39.7021 44.4272 38.8191 45.9988 37.2476C47.5703 35.676 48.4532 33.5446 48.4532 31.3221C48.4532 29.0995 47.5703 26.9681 45.9988 25.3965C44.4272 23.825 42.2958 22.942 40.0732 22.942V10.3791C40.076 9.27596 40.296 8.18419 40.7207 7.16611C41.1454 6.14803 41.7664 5.22359 42.5484 4.44553C43.3303 3.66746 44.2579 3.05103 45.2781 2.63144C46.2983 2.21185 47.3911 1.99727 48.4942 2.00003" stroke="#DDDDDD" stroke-width="3" stroke-linecap="round" stroke-linejoin="round"/>
<path d="M89.6133 2.76807L89.8103 9.85907" stroke="#DDDDDD" stroke-width="3" stroke-linecap="round" stroke-linejoin="round"/>
<path d="M89.8101 16.8071V25.2681" stroke="#DDDDDD" stroke-width="3" stroke-linecap="round" stroke-linejoin="round"/>
<path d="M89.8101 33.8071V42.2681" stroke="#DDDDDD" stroke-width="3" stroke-linecap="round" stroke-linejoin="round"/>
<path d="M89.8103 51.3921L89.6133 59.8831" stroke="#DDDDDD" stroke-width="3" stroke-linecap="round" stroke-linejoin="round"/>
<path d="M10.4201 16.8072H69.3771C70.4802 16.8041 71.5731 17.0184 72.5934 17.4378C73.6136 17.8571 74.5414 18.4733 75.3235 19.2512C76.1057 20.0291 76.7269 20.9534 77.1519 21.9714C77.5768 22.9894 77.7971 24.0811 77.8001 25.1842V37.7492C76.6999 37.7316 75.6069 37.931 74.5838 38.3358C73.5606 38.7407 72.6272 39.3431 71.8368 40.1087C70.2406 41.6548 69.324 43.7717 69.2886 45.9937C69.2532 48.2157 70.1019 50.3607 71.648 51.9569C73.1942 53.5532 75.3111 54.4697 77.5331 54.5052H77.8001V67.0722C77.7973 68.1753 77.5773 69.267 77.1526 70.2851C76.7279 71.3032 76.1069 72.2277 75.3249 73.0058C74.543 73.7838 73.6154 74.4002 72.5952 74.8198C71.575 75.2394 70.4822 75.454 69.3791 75.4512H10.4201C8.1926 75.4573 6.0539 74.5784 4.47433 73.0078C2.89477 71.4373 2.00369 69.3037 1.99707 67.0762V54.5092C4.21958 54.5092 6.35108 53.6263 7.92264 52.0547C9.49419 50.4832 10.3771 48.3517 10.3771 46.1292C10.3771 43.9067 9.49419 41.7752 7.92264 40.2036C6.35108 38.6321 4.21958 37.7492 1.99707 37.7492V25.1862C1.99982 24.0831 2.21981 22.9913 2.6445 21.9732C3.06919 20.9552 3.69024 20.0307 4.4722 19.2527C5.25416 18.4746 6.18174 17.8582 7.20193 17.4386C8.22213 17.019 9.31496 16.8044 10.4181 16.8072" fill="white"/>
<path d="M10.4201 16.8072H69.3771C70.4802 16.8041 71.5731 17.0184 72.5934 17.4378C73.6136 17.8571 74.5414 18.4733 75.3235 19.2512C76.1057 20.0291 76.7269 20.9534 77.1519 21.9714C77.5768 22.9894 77.7971 24.0811 77.8001 25.1842V37.7492C76.6999 37.7316 75.6069 37.931 74.5838 38.3358C73.5606 38.7407 72.6272 39.3431 71.8368 40.1087C70.2406 41.6548 69.324 43.7717 69.2886 45.9937C69.2532 48.2157 70.1019 50.3607 71.648 51.9569C73.1942 53.5532 75.3111 54.4698 77.5331 54.5052H77.8001V67.0722C77.7973 68.1753 77.5773 69.267 77.1526 70.2851C76.7279 71.3032 76.1069 72.2277 75.3249 73.0058C74.543 73.7838 73.6154 74.4002 72.5952 74.8198C71.575 75.2394 70.4822 75.454 69.3791 75.4512H10.4201C8.1926 75.4573 6.0539 74.5784 4.47433 73.0078C2.89477 71.4373 2.00369 69.3037 1.99707 67.0762V54.5092C4.21958 54.5092 6.35108 53.6263 7.92264 52.0547C9.49419 50.4832 10.3771 48.3517 10.3771 46.1292C10.3771 43.9067 9.49419 41.7752 7.92264 40.2036C6.35108 38.6321 4.21958 37.7492 1.99707 37.7492V25.1862C1.99982 24.0831 2.21981 22.9913 2.6445 21.9732C3.06919 20.9552 3.69024 20.0307 4.4722 19.2527C5.25416 18.4746 6.18174 17.8582 7.20193 17.4386C8.22213 17.019 9.31496 16.8044 10.4181 16.8072" stroke="#DDDDDD" stroke-width="3" stroke-miterlimit="10"/>
<path d="M31.9229 37.4521H22.9229C20.7137 37.4521 18.9229 39.243 18.9229 41.4521V50.4521C18.9229 52.6613 20.7137 54.4521 22.9229 54.4521H31.9229C34.132 54.4521 35.9229 52.6613 35.9229 50.4521V41.4521C35.9229 39.243 34.132 37.4521 31.9229 37.4521Z" fill="#2EB6C7"/>
<path d="M58.4229 37.4521H44.4229C43.5944 37.4521 42.9229 38.1237 42.9229 38.9521C42.9229 39.7806 43.5944 40.4521 44.4229 40.4521H58.4229C59.2513 40.4521 59.9229 39.7806 59.9229 38.9521C59.9229 38.1237 59.2513 37.4521 58.4229 37.4521Z" fill="#DDDDDD"/>
<path d="M58.4229 44.4521H44.4229C43.5944 44.4521 42.9229 45.1237 42.9229 45.9521C42.9229 46.7806 43.5944 47.4521 44.4229 47.4521H58.4229C59.2513 47.4521 59.9229 46.7806 59.9229 45.9521C59.9229 45.1237 59.2513 44.4521 58.4229 44.4521Z" fill="#DDDDDD"/>
<path d="M58.4229 51.4521H44.4229C43.5944 51.4521 42.9229 52.1237 42.9229 52.9521C42.9229 53.7806 43.5944 54.4521 44.4229 54.4521H58.4229C59.2513 54.4521 59.9229 53.7806 59.9229 52.9521C59.9229 52.1237 59.2513 51.4521 58.4229 51.4521Z" fill="#DDDDDD"/>
</svg>
