<svg width="100" height="100" viewBox="0 0 100 100" fill="none" xmlns="http://www.w3.org/2000/svg">
<rect width="100" height="100" fill="white"/>
<path fill-rule="evenodd" clip-rule="evenodd" d="M87.5 50C87.5 70.7107 70.7107 87.5 50 87.5C29.2893 87.5 12.5 70.7107 12.5 50C12.5 29.2893 29.2893 12.5 50 12.5C70.7107 12.5 87.5 29.2893 87.5 50ZM50 30.3333C51.6569 30.3333 53 31.6765 53 33.3333V45.8333C53 47.4902 51.6569 48.8333 50 48.8333C48.3431 48.8333 47 47.4902 47 45.8333V33.3333C47 31.6765 48.3431 30.3333 50 30.3333ZM53 58.3333C53 56.6765 51.6569 55.3333 50 55.3333C48.3431 55.3333 47 56.6765 47 58.3333V62.5C47 64.1569 48.3431 65.5 50 65.5C51.6569 65.5 53 64.1569 53 62.5V58.3333Z" fill="#F5BA4B"/>
</svg>
