<svg width="40" height="40" viewBox="0 0 40 40" fill="none" xmlns="http://www.w3.org/2000/svg">
<g clip-path="url(#clip0_973_4449)">
<mask id="mask0_973_4449" style="mask-type:luminance" maskUnits="userSpaceOnUse" x="0" y="0" width="40" height="40">
<path d="M0 0H40V40H0V0Z" fill="white"/>
</mask>
<g mask="url(#mask0_973_4449)">
<g opacity="0.805">
<path d="M34.5113 0L22.4448 15.8101L20.0308 14.6035H17.6177L15.2046 15.8101L3.13721 0H10.3775L18.8243 11.4658L27.2711 0H34.5113Z" fill="#2EB6C7"/>
<path d="M22.4449 18.8996V15.8102L20.0318 14.6036V18.3447C19.2355 18.1838 18.415 18.1838 17.6187 18.3447V14.6036L15.2055 15.8102V18.8996C12.79 19.7536 10.7542 21.434 9.45781 23.6438C8.16145 25.8537 7.68804 28.4507 8.12126 30.9758C8.55449 33.5009 9.86646 35.7916 11.8253 37.443C13.7841 39.0944 16.2636 40.0001 18.8257 40.0001C21.3877 40.0001 23.8672 39.0944 25.8261 37.443C27.7849 35.7916 29.0968 33.5009 29.5301 30.9758C29.9633 28.4507 29.4899 25.8537 28.1935 23.6438C26.8972 21.434 24.8613 19.7536 22.4458 18.8996H22.4449Z" fill="#BAE4E9"/>
<path d="M18.8248 37.5307C17.1541 37.5307 15.521 37.0353 14.132 36.1072C12.7429 35.179 11.6602 33.8598 11.0209 32.3164C10.3816 30.7729 10.2143 29.0745 10.5402 27.436C10.8662 25.7975 11.6706 24.2924 12.852 23.1111C14.0333 21.9298 15.5383 21.1253 17.1769 20.7994C18.8154 20.4735 20.5138 20.6407 22.0572 21.2801C23.6007 21.9194 24.9199 23.002 25.848 24.3911C26.7762 25.7802 27.2716 27.4133 27.2716 29.0839C27.2689 31.3233 26.3781 33.4702 24.7946 35.0537C23.2111 36.6372 21.0642 37.528 18.8248 37.5307ZM18.8248 23.0502C17.6314 23.0502 16.4648 23.4041 15.4726 24.0671C14.4804 24.7301 13.707 25.6724 13.2504 26.7749C12.7937 27.8774 12.6742 29.0906 12.907 30.261C13.1398 31.4314 13.7145 32.5065 14.5583 33.3504C15.4021 34.1942 16.4772 34.7688 17.6476 35.0016C18.8181 35.2345 20.0312 35.115 21.1337 34.6583C22.2362 34.2016 23.1786 33.4283 23.8416 32.436C24.5046 31.4438 24.8584 30.2772 24.8584 29.0839C24.8566 27.4842 24.2204 25.9506 23.0892 24.8194C21.9581 23.6883 20.4244 23.052 18.8248 23.0502Z" fill="#2EB6C7"/>
<path d="M18.8243 25.4644L20.0003 27.8478L22.6307 28.2296L20.7275 30.0844L21.1763 32.7038L18.8243 31.4666L16.4714 32.7038L16.9203 30.0844L15.0171 28.2296L17.6474 27.8478L18.8243 25.4644Z" fill="#2EB6C7"/>
<path d="M22.4453 15.81H15.2051C15.2071 15.1706 15.462 14.558 15.9141 14.1059C16.3662 13.6538 16.9788 13.3989 17.6182 13.3969H20.0313C20.6709 13.3986 21.2837 13.6534 21.736 14.1056C22.1883 14.5577 22.4433 15.1704 22.4453 15.81Z" fill="#62CDDB"/>
</g>
</g>
</g>
<defs>
<clipPath id="clip0_973_4449">
<rect width="40" height="40" fill="white"/>
</clipPath>
</defs>
</svg>
