<svg width="40" height="40" viewBox="0 0 40 40" fill="none" xmlns="http://www.w3.org/2000/svg">
<g clip-path="url(#clip0_973_4450)">
<g opacity="0.805">
<path d="M19 2H21V12H19V2Z" fill="#2EB6C7"/>
<path d="M27 9H13C12.4477 9 12 9.44772 12 10C12 10.5523 12.4477 11 13 11H27C27.5523 11 28 10.5523 28 10C28 9.44772 27.5523 9 27 9Z" fill="#2EB6C7"/>
<mask id="mask0_973_4450" style="mask-type:luminance" maskUnits="userSpaceOnUse" x="3" y="0" width="34" height="40">
<path d="M3 0H37V40H3V0Z" fill="white"/>
</mask>
<g mask="url(#mask0_973_4450)">
<path d="M30.9948 39.584H8.93582L7.40582 37.284C5.14993 33.9003 3.94571 29.9248 3.94482 25.858C3.94482 21.79 5.97382 17.8131 8.22982 14.4281L9.75982 12.1281H30.1698L31.6998 14.4281C33.9568 17.8131 35.9848 21.79 35.9848 25.858C35.9847 29.9262 34.7805 33.9032 32.5238 37.2881L30.9948 39.584Z" fill="#C4E6EA"/>
<mask id="mask1_973_4450" style="mask-type:luminance" maskUnits="userSpaceOnUse" x="13" y="7" width="14" height="6">
<path d="M13.9736 7.14099H26.0786V12.132H13.9736V7.14099Z" fill="white"/>
</mask>
<g mask="url(#mask1_973_4450)">
<path d="M16.9996 7.14099C17.5981 7.14099 18.1832 7.31846 18.6808 7.65096C19.1784 7.98346 19.5663 8.45606 19.7953 9.00899C20.0243 9.56192 20.0842 10.1703 19.9675 10.7573C19.8507 11.3443 19.5625 11.8835 19.1393 12.3067C18.7161 12.7299 18.177 13.0181 17.59 13.1348C17.003 13.2516 16.3946 13.1917 15.8416 12.9627C15.2887 12.7336 14.8161 12.3458 14.4836 11.8481C14.1511 11.3505 13.9736 10.7655 13.9736 10.167C13.9736 9.36445 14.2924 8.59477 14.8599 8.02728C15.4274 7.4598 16.1971 7.14099 16.9996 7.14099Z" fill="#62CDDB"/>
<path d="M23.0529 7.14099C23.6513 7.14099 24.2364 7.31846 24.734 7.65096C25.2316 7.98346 25.6195 8.45606 25.8485 9.00899C26.0775 9.56192 26.1375 10.1703 26.0207 10.7573C25.9039 11.3443 25.6158 11.8835 25.1926 12.3067C24.7694 12.7299 24.2302 13.0181 23.6432 13.1348C23.0562 13.2516 22.4478 13.1917 21.8949 12.9627C21.3419 12.7336 20.8693 12.3458 20.5368 11.8481C20.2043 11.3505 20.0269 10.7655 20.0269 10.167C20.0269 9.36445 20.3457 8.59477 20.9131 8.02728C21.4806 7.4598 22.2503 7.14099 23.0529 7.14099Z" fill="#62CDDB"/>
<path d="M16.9996 13.193C17.8022 13.193 18.5719 12.8742 19.1393 12.3067C19.7068 11.7392 20.0256 10.9695 20.0256 10.167H13.9736C13.9736 10.9695 14.2924 11.7392 14.8599 12.3067C15.4274 12.8742 16.1971 13.193 16.9996 13.193Z" fill="#2EB6C7"/>
<path d="M20.0269 10.167C20.0269 10.9695 20.3457 11.7392 20.9131 12.3067C21.4806 12.8742 22.2503 13.193 23.0529 13.193C23.8554 13.193 24.6251 12.8742 25.1926 12.3067C25.7601 11.7392 26.0789 10.9695 26.0789 10.167H20.0269Z" fill="#2EB6C7"/>
</g>
<path d="M18.7181 15.453H11.0961L10.3061 16.637C8.33001 19.5981 7.27308 23.0771 7.26807 26.637H18.7181V15.453Z" fill="#2EB6C7"/>
<path d="M29.6249 16.637L28.8349 15.453H21.2139V26.642H32.6639C32.6588 23.0821 31.6019 19.6031 29.6259 16.642" fill="#2EB6C7"/>
<path d="M23 29H25V34H23V29Z" fill="#2EB6C7"/>
<path d="M15 29H17V34H15V29Z" fill="#2EB6C7"/>
</g>
</g>
</g>
<defs>
<clipPath id="clip0_973_4450">
<rect width="40" height="40" fill="white"/>
</clipPath>
</defs>
</svg>
