<svg width="24" height="24" viewBox="0 0 24 24" fill="none" xmlns="http://www.w3.org/2000/svg">
<g clip-path="url(#clip0_761_2041)">
<path d="M2.82764 5.24805V7.53305H5.10964" stroke="#555555" stroke-width="2" stroke-linecap="round" stroke-linejoin="round"/>
<path d="M2.25684 12.106C2.25684 14.7258 3.29755 17.2383 5.15004 19.0908C7.00252 20.9433 9.51503 21.984 12.1348 21.984C13.8687 21.9837 15.5718 21.527 17.0732 20.6598C18.5746 19.7927 19.8213 18.5456 20.6881 17.044C21.5548 15.5424 22.011 13.839 22.0109 12.1052C22.0107 10.3714 21.5542 8.66817 20.6873 7.16667C19.8203 5.66518 18.5734 4.41832 17.0718 3.55142C15.5703 2.68451 13.867 2.22809 12.1332 2.22803C10.3994 2.22796 8.69612 2.68425 7.19452 3.55105C5.69292 4.41784 4.44592 5.6646 3.57884 7.16603" stroke="#555555" stroke-width="2" stroke-linecap="round" stroke-linejoin="round"/>
<path d="M11.9956 7.755V12.731L15.5086 16.244" stroke="#2EB6C7" stroke-width="2" stroke-linecap="round" stroke-linejoin="round"/>
</g>
<defs>
<clipPath id="clip0_761_2041">
<rect width="24" height="24" fill="white"/>
</clipPath>
</defs>
</svg>
