<svg width="24" height="24" viewBox="0 0 24 24" fill="none" xmlns="http://www.w3.org/2000/svg">
<path d="M23 8.65871V12.7561C23 14.5221 22.2826 16.2158 21.0056 17.4646C19.7286 18.7133 17.9966 19.4148 16.1907 19.4148H13.8386L8.99335 22.8572C8.88253 22.9376 8.75097 22.9861 8.61347 22.9974C8.47598 23.0088 8.33799 22.9823 8.21499 22.9212C8.092 22.86 7.98888 22.7665 7.91723 22.6512C7.84557 22.5359 7.80821 22.4034 7.80935 22.2684V19.4138C6.00339 19.4138 4.27141 18.7123 2.99441 17.4635C1.71741 16.2148 0.999999 14.5211 0.999999 12.7551V8.65871C0.999999 6.89271 1.71741 5.19904 2.99441 3.95029C4.27141 2.70154 6.00339 2 7.80935 2H16.1896C17.9956 2 19.7275 2.70154 21.0045 3.95029C22.2815 5.19904 23 6.89271 23 8.65871Z" fill="#71C5D5"/>
<path d="M11.953 13.3981C11.691 13.3981 11.4396 13.294 11.2544 13.1087C11.0691 12.9234 10.965 12.6721 10.965 12.4101V11.9161C10.965 11.654 11.0691 11.4027 11.2544 11.2174C11.4396 11.0322 11.691 10.9281 11.953 10.9281C12.3441 10.9283 12.7265 10.8125 13.0517 10.5953C13.377 10.3781 13.6305 10.0694 13.7803 9.7081C13.9301 9.34681 13.9693 8.94922 13.893 8.56562C13.8168 8.18203 13.6285 7.82967 13.3519 7.55312C13.0754 7.27657 12.723 7.08826 12.3394 7.01201C11.9559 6.93576 11.5583 6.97499 11.197 7.12475C10.8357 7.27451 10.5269 7.52806 10.3098 7.85333C10.0926 8.1786 9.97679 8.56097 9.97699 8.95207C9.97699 9.21424 9.87285 9.46566 9.68747 9.65104C9.50209 9.83642 9.25066 9.94057 8.98849 9.94057C8.72633 9.94057 8.4749 9.83642 8.28952 9.65104C8.10414 9.46566 8 9.21424 8 8.95207C8.00018 8.2093 8.2096 7.4816 8.60431 6.85238C8.99902 6.22316 9.56303 5.71788 10.2317 5.39444C10.9003 5.07101 11.6466 4.94251 12.3849 5.02367C13.1232 5.10483 13.8238 5.39237 14.4062 5.85333C14.9886 6.3143 15.4294 6.93003 15.678 7.62996C15.9266 8.3299 15.973 9.08571 15.8118 9.81079C15.6506 10.5359 15.2884 11.2009 14.7667 11.7296C14.245 12.2583 13.5849 12.6293 12.862 12.8001C12.7855 12.9777 12.6587 13.129 12.4971 13.2353C12.3356 13.3416 12.1464 13.3982 11.953 13.3981Z" fill="white"/>
<path d="M11.9528 16.976C12.4985 16.976 12.9408 16.5337 12.9408 15.988C12.9408 15.4423 12.4985 15 11.9528 15C11.4072 15 10.9648 15.4423 10.9648 15.988C10.9648 16.5337 11.4072 16.976 11.9528 16.976Z" fill="white"/>
</svg>
