<svg width="20" height="20" viewBox="0 0 20 20" fill="none" xmlns="http://www.w3.org/2000/svg">
<g clip-path="url(#clip0_678_4050)">
<path d="M10 11.6667C11.3807 11.6667 12.5 10.5474 12.5 9.16669C12.5 7.78598 11.3807 6.66669 10 6.66669C8.61929 6.66669 7.5 7.78598 7.5 9.16669C7.5 10.5474 8.61929 11.6667 10 11.6667Z" stroke="#171B1D" stroke-width="2" stroke-linecap="round" stroke-linejoin="round"/>
<path d="M14.7143 13.8808L11.1785 17.4166C10.866 17.7288 10.4423 17.9042 10.0006 17.9042C9.55885 17.9042 9.13518 17.7288 8.82267 17.4166L5.286 13.8808C4.35368 12.9484 3.71878 11.7605 3.46157 10.4673C3.20437 9.17413 3.33641 7.8337 3.841 6.61555C4.3456 5.39739 5.20008 4.35622 6.2964 3.6237C7.39272 2.89117 8.68164 2.50018 10.0002 2.50018C11.3187 2.50018 12.6076 2.89117 13.7039 3.6237C14.8003 4.35622 15.6547 5.39739 16.1593 6.61555C16.6639 7.8337 16.796 9.17413 16.5388 10.4673C16.2816 11.7605 15.6466 12.9484 14.7143 13.8808Z" stroke="#171B1D" stroke-width="2" stroke-linecap="round" stroke-linejoin="round"/>
</g>
<defs>
<clipPath id="clip0_678_4050">
<rect width="20" height="20" rx="3" fill="white"/>
</clipPath>
</defs>
</svg>
