<svg width="160" height="160" viewBox="0 0 160 160" fill="none" xmlns="http://www.w3.org/2000/svg">
<path d="M126.25 73V135.229H40V73" stroke="#E5E5E5" stroke-width="4" stroke-linecap="round" stroke-linejoin="round"/>
<path d="M128.014 25.3463L25.3496 49.2539L30.7886 72.5633L133.453 48.6556L128.014 25.3463Z" fill="#F5F5F5" stroke="#E5E5E5" stroke-width="4" stroke-linecap="round" stroke-linejoin="round"/>
<path d="M73.2661 91.7114H92.4328" stroke="#E5E5E5" stroke-width="4" stroke-linecap="round" stroke-linejoin="round"/>
<path d="M116.984 64.524H108.262C103.419 64.524 98.7736 62.6 95.3488 59.1752C91.924 55.7504 90 51.1054 90 46.262C90 41.4186 91.924 36.7736 95.3488 33.3488C98.7736 29.924 103.419 28 108.262 28H116.984C119.382 28 121.757 28.4724 123.973 29.3901C126.188 30.3079 128.201 31.653 129.897 33.3488C131.593 35.0446 132.938 37.0578 133.856 39.2734C134.774 41.4891 135.246 43.8638 135.246 46.262C135.246 48.6602 134.774 51.0349 133.856 53.2506C132.938 55.4662 131.593 57.4794 129.897 59.1752C128.201 60.871 126.188 62.2161 123.973 63.1339C121.757 64.0516 119.382 64.524 116.984 64.524Z" fill="#2EB6C7"/>
<path d="M110.016 61C110.016 61 110.381 67.025 106 69.216C106 69.216 114.136 70.668 121.752 63.462L110.016 61Z" fill="#2EB6C7"/>
<path d="M104.732 46.2619C104.732 46.813 104.568 47.3517 104.262 47.8099C103.956 48.268 103.52 48.6251 103.011 48.8359C102.502 49.0467 101.942 49.1018 101.401 48.9943C100.861 48.8867 100.364 48.6213 99.9745 48.2316C99.5848 47.8419 99.3194 47.3454 99.2118 46.8048C99.1042 46.2643 99.1593 45.704 99.3702 45.1948C99.581 44.6856 99.938 44.2503 100.396 43.944C100.854 43.6377 101.393 43.4741 101.944 43.4739C102.684 43.4739 103.393 43.7676 103.916 44.2905C104.438 44.8133 104.732 45.5225 104.732 46.2619Z" fill="white"/>
<path d="M115.411 46.2619C115.411 46.813 115.248 47.3517 114.941 47.8099C114.635 48.268 114.2 48.6251 113.69 48.8359C113.181 49.0467 112.621 49.1018 112.08 48.9943C111.54 48.8867 111.043 48.6213 110.654 48.2316C110.264 47.8419 109.999 47.3454 109.891 46.8048C109.783 46.2643 109.839 45.704 110.049 45.1948C110.26 44.6856 110.617 44.2503 111.075 43.944C111.534 43.6377 112.072 43.4741 112.623 43.4739C113.363 43.4739 114.072 43.7676 114.595 44.2905C115.118 44.8133 115.411 45.5225 115.411 46.2619Z" fill="white"/>
<path d="M125.949 46.2619C125.949 46.813 125.785 47.3517 125.479 47.8099C125.173 48.268 124.737 48.6251 124.228 48.8359C123.719 49.0467 123.159 49.1018 122.618 48.9943C122.078 48.8867 121.581 48.6213 121.191 48.2316C120.802 47.8419 120.536 47.3454 120.429 46.8048C120.321 46.2643 120.376 45.704 120.587 45.1948C120.798 44.6856 121.155 44.2503 121.613 43.944C122.071 43.6377 122.61 43.4741 123.161 43.4739C123.9 43.4739 124.61 43.7676 125.132 44.2905C125.655 44.8133 125.949 45.5225 125.949 46.2619Z" fill="white"/>
</svg>
