<svg width="160" height="160" viewBox="0 0 160 160" fill="none" xmlns="http://www.w3.org/2000/svg">
<mask id="mask0_913_4776" style="mask-type:luminance" maskUnits="userSpaceOnUse" x="22" y="32" width="117" height="103">
<path d="M22 32H138.903V134.641H22V32Z" fill="white"/>
</mask>
<g mask="url(#mask0_913_4776)">
<path fill-rule="evenodd" clip-rule="evenodd" d="M117.439 134.64H31.393C28.9041 134.633 26.5192 133.641 24.7593 131.881C22.9994 130.121 22.0074 127.736 22 125.247V33.627C22.0075 33.1976 22.1814 32.7878 22.4851 32.4841C22.7888 32.1804 23.1986 32.0065 23.628 31.999H107.607C108.036 32.0067 108.446 32.1807 108.75 32.4844C109.053 32.788 109.227 33.1977 109.235 33.627V38.327H117.435C117.864 38.3347 118.274 38.5087 118.578 38.8124C118.881 39.116 119.055 39.5257 119.063 39.955V48.155H127.263C127.692 48.1627 128.102 48.3367 128.406 48.6404C128.709 48.944 128.883 49.3537 128.891 49.783V123.183C128.89 126.222 127.682 129.136 125.533 131.285C123.384 133.434 120.47 134.642 117.431 134.643" fill="#E5E5E5"/>
<path fill-rule="evenodd" clip-rule="evenodd" d="M25.2559 35.256V125.247C25.2585 126.874 25.9059 128.433 27.0563 129.584C28.2066 130.734 29.766 131.381 31.3929 131.384H109.485C108.376 130.326 107.493 129.053 106.89 127.644C106.288 126.234 105.977 124.717 105.978 123.184V35.256H25.2559Z" fill="white"/>
<path fill-rule="evenodd" clip-rule="evenodd" d="M109.235 41.5811V123.181C109.235 125.357 110.1 127.444 111.638 128.982C113.177 130.521 115.264 131.385 117.439 131.385C119.615 131.385 121.702 130.521 123.24 128.982C124.779 127.444 125.643 125.357 125.643 123.181V121.425C124.65 121.999 123.523 122.301 122.376 122.303C121.229 122.305 120.102 122.005 119.106 121.435C118.111 120.864 117.283 120.043 116.705 119.052C116.127 118.061 115.819 116.936 115.811 115.789V41.5811H109.235Z" fill="#E5E5E5"/>
<path fill-rule="evenodd" clip-rule="evenodd" d="M125.643 115.728V51.413H119.067V115.791C119.067 120.112 125.58 120.174 125.643 115.728Z" fill="#E5E5E5"/>
<path fill-rule="evenodd" clip-rule="evenodd" d="M56.8216 77.522H33.8986C33.6843 77.5236 33.4719 77.4826 33.2737 77.4013C33.0754 77.3201 32.8953 77.2002 32.7438 77.0487C32.5923 76.8972 32.4725 76.7171 32.3912 76.5189C32.31 76.3207 32.269 76.1083 32.2706 75.894V52.978C32.2797 52.5549 32.4562 52.1526 32.7613 51.8593C33.0665 51.566 33.4754 51.4055 33.8986 51.413H56.8216C57.0323 51.4045 57.2426 51.4387 57.4398 51.5136C57.637 51.5884 57.8171 51.7023 57.9691 51.8485C58.1212 51.9947 58.2421 52.1701 58.3247 52.3642C58.4073 52.5583 58.4497 52.7671 58.4496 52.978V75.898C58.4557 76.1133 58.4177 76.3275 58.338 76.5276C58.2583 76.7276 58.1385 76.9093 57.986 77.0614C57.8336 77.2135 57.6516 77.3328 57.4514 77.412C57.2511 77.4912 57.0368 77.5286 56.8216 77.522Z" fill="#E5E5E5"/>
<path fill-rule="evenodd" clip-rule="evenodd" d="M96.0179 61.011H66.1489C65.7311 60.9903 65.3372 60.8097 65.0488 60.5067C64.7604 60.2036 64.5996 59.8013 64.5996 59.383C64.5996 58.9647 64.7604 58.5624 65.0488 58.2593C65.3372 57.9563 65.7311 57.7757 66.1489 57.755H96.0179C96.4357 57.7757 96.8296 57.9563 97.1179 58.2593C97.4063 58.5624 97.5672 58.9647 97.5672 59.383C97.5672 59.8013 97.4063 60.2036 97.1179 60.5067C96.8296 60.8097 96.4357 60.9903 96.0179 61.011Z" fill="#E5E5E5"/>
<path fill-rule="evenodd" clip-rule="evenodd" d="M96.0179 73.416H66.1489C65.7311 73.3953 65.3372 73.2148 65.0488 72.9117C64.7604 72.6087 64.5996 72.2064 64.5996 71.788C64.5996 71.3697 64.7604 70.9674 65.0488 70.6644C65.3372 70.3613 65.7311 70.1808 66.1489 70.16H96.0179C96.4357 70.1808 96.8296 70.3613 97.1179 70.6644C97.4063 70.9674 97.5672 71.3697 97.5672 71.788C97.5672 72.2064 97.4063 72.6087 97.1179 72.9117C96.8296 73.2148 96.4357 73.3953 96.0179 73.416Z" fill="#E5E5E5"/>
<path fill-rule="evenodd" clip-rule="evenodd" d="M95.5843 92.198H34.6753C34.2574 92.1773 33.8636 91.9967 33.5752 91.6937C33.2868 91.3907 33.126 90.9883 33.126 90.57C33.126 90.1517 33.2868 89.7494 33.5752 89.4463C33.8636 89.1433 34.2574 88.9627 34.6753 88.942H95.5843C96.0021 88.9627 96.3959 89.1433 96.6843 89.4463C96.9727 89.7494 97.1335 90.1517 97.1335 90.57C97.1335 90.9883 96.9727 91.3907 96.6843 91.6937C96.3959 91.9967 96.0021 92.1773 95.5843 92.198Z" fill="#E5E5E5"/>
<path fill-rule="evenodd" clip-rule="evenodd" d="M95.5843 103.869H34.6753C34.2574 103.848 33.8636 103.668 33.5752 103.365C33.2868 103.062 33.126 102.659 33.126 102.241C33.126 101.823 33.2868 101.42 33.5752 101.117C33.8636 100.814 34.2574 100.634 34.6753 100.613H95.5843C96.0021 100.634 96.3959 100.814 96.6843 101.117C96.9727 101.42 97.1335 101.823 97.1335 102.241C97.1335 102.659 96.9727 103.062 96.6843 103.365C96.3959 103.668 96.0021 103.848 95.5843 103.869Z" fill="#E5E5E5"/>
<path fill-rule="evenodd" clip-rule="evenodd" d="M95.5843 116.531H34.6753C34.2574 116.51 33.8636 116.33 33.5752 116.027C33.2868 115.724 33.126 115.321 33.126 114.903C33.126 114.485 33.2868 114.082 33.5752 113.779C33.8636 113.476 34.2574 113.296 34.6753 113.275H95.5843C96.0021 113.296 96.3959 113.476 96.6843 113.779C96.9727 114.082 97.1335 114.485 97.1335 114.903C97.1335 115.321 96.9727 115.724 96.6843 116.027C96.3959 116.33 96.0021 116.51 95.5843 116.531Z" fill="#E5E5E5"/>
<path fill-rule="evenodd" clip-rule="evenodd" d="M109.235 41.5811V123.181C109.235 125.357 110.1 127.444 111.638 128.982C113.177 130.521 115.264 131.385 117.439 131.385C119.615 131.385 121.702 130.521 123.24 128.982C124.779 127.444 125.643 125.357 125.643 123.181V121.425C124.65 121.999 123.523 122.301 122.376 122.303C121.229 122.305 120.102 122.005 119.106 121.435C118.111 120.864 117.283 120.043 116.705 119.052C116.127 118.061 115.819 116.936 115.811 115.789V41.5811H109.235Z" fill="#F5F5F5"/>
<path fill-rule="evenodd" clip-rule="evenodd" d="M119.067 51.413V115.791C119.067 120.112 125.58 120.175 125.643 115.728V51.413H119.067Z" fill="#F5F5F5"/>
<path d="M120.64 82.468H111.918C107.075 82.468 102.43 80.5439 99.0051 77.1192C95.5803 73.6944 93.6562 69.0494 93.6562 64.206C93.6562 59.3626 95.5803 54.7176 99.0051 51.2928C102.43 47.868 107.075 45.944 111.918 45.944H120.64C123.038 45.944 125.413 46.4163 127.629 47.3341C129.844 48.2518 131.858 49.597 133.553 51.2928C135.249 52.9886 136.594 55.0018 137.512 57.2174C138.43 59.4331 138.902 61.8078 138.902 64.206C138.902 66.6042 138.43 68.9789 137.512 71.1945C136.594 73.4102 135.249 75.4234 133.553 77.1192C131.858 78.8149 129.844 80.1601 127.629 81.0779C125.413 81.9956 123.038 82.468 120.64 82.468Z" fill="#2EB6C7"/>
<path d="M113.903 79.152C113.903 79.152 114.268 85.177 109.887 87.368C109.887 87.368 118.023 88.82 125.639 81.614L113.903 79.152Z" fill="#2EB6C7"/>
<path d="M108.388 64.206C108.388 64.7571 108.225 65.2958 107.918 65.754C107.612 66.2121 107.177 66.5692 106.668 66.78C106.158 66.9908 105.598 67.0459 105.057 66.9384C104.517 66.8308 104.02 66.5654 103.631 66.1757C103.241 65.786 102.976 65.2895 102.868 64.7489C102.76 64.2084 102.816 63.6481 103.026 63.1389C103.237 62.6297 103.594 62.1944 104.052 61.8881C104.511 61.5818 105.049 61.4182 105.6 61.418C106.34 61.418 107.049 61.7117 107.572 62.2346C108.095 62.7574 108.388 63.4665 108.388 64.206Z" fill="white"/>
<path d="M119.067 64.206C119.067 64.7571 118.903 65.2958 118.597 65.754C118.291 66.2121 117.855 66.5692 117.346 66.78C116.837 66.9908 116.277 67.0459 115.736 66.9384C115.196 66.8308 114.699 66.5654 114.309 66.1757C113.92 65.786 113.654 65.2895 113.547 64.7489C113.439 64.2084 113.494 63.6481 113.705 63.1389C113.916 62.6297 114.273 62.1944 114.731 61.8881C115.189 61.5818 115.728 61.4182 116.279 61.418C117.019 61.418 117.728 61.7117 118.251 62.2346C118.773 62.7574 119.067 63.4665 119.067 64.206Z" fill="white"/>
<path d="M129.605 64.206C129.605 64.7571 129.441 65.2958 129.135 65.754C128.829 66.2121 128.394 66.5692 127.884 66.78C127.375 66.9908 126.815 67.0459 126.274 66.9384C125.734 66.8308 125.237 66.5654 124.848 66.1757C124.458 65.786 124.192 65.2895 124.085 64.7489C123.977 64.2084 124.032 63.6481 124.243 63.1389C124.454 62.6297 124.811 62.1944 125.269 61.8881C125.727 61.5818 126.266 61.4182 126.817 61.418C127.557 61.418 128.266 61.7117 128.789 62.2346C129.312 62.7574 129.605 63.4665 129.605 64.206Z" fill="white"/>
</g>
</svg>
