<svg width="110" height="115" viewBox="0 0 110 115" fill="none" xmlns="http://www.w3.org/2000/svg">
<path d="M54.9941 67.176V67.246L55.0341 67.226C55.0179 67.2119 55.0043 67.195 54.9941 67.176Z" fill="#959595"/>
<path d="M99.0495 66.566L83.3295 59.566C87.2495 53.996 91.0295 48.506 93.0595 45.246C95.7426 40.895 97.1494 35.8777 97.1195 30.766C97.061 22.4796 93.7204 14.5542 87.8295 8.72605C83.5803 4.56359 78.2084 1.73218 72.3729 0.5793C66.5375 -0.57358 60.4924 0.0022223 54.9795 2.23604C50.771 3.95458 46.9892 6.57249 43.8988 9.90637C40.8085 13.2403 38.4845 17.2095 37.0895 21.536C35.7953 25.4512 35.3726 29.6019 35.851 33.6975C36.3295 37.7932 37.6976 41.7347 39.8595 45.246C42.2795 49.136 47.2095 56.206 51.8795 62.796L34.5945 56.006L10.9345 66.566L0.144531 114.956L28.6245 103.076L54.9845 114.076L81.3745 103.076L109.855 114.956L99.0495 66.566ZM27.2495 100.396L4.32953 109.966L13.5295 68.696L32.7595 60.106L27.2495 100.396ZM53.4895 110.206L30.2595 100.506L35.8395 59.726L53.4895 66.656V110.206ZM54.9945 67.246V67.176C55.0047 67.195 55.0183 67.212 55.0345 67.226L54.9945 67.246ZM42.3945 43.666C40.447 40.5303 39.2174 37.0024 38.7938 33.3355C38.3702 29.6685 38.7632 25.9533 39.9445 22.456C41.206 18.5451 43.3068 14.9571 46.0998 11.9429C48.8929 8.92873 52.3109 6.56123 56.1145 5.00604C59.3795 3.66645 62.8755 2.98017 66.4045 2.98604C69.9653 2.98707 73.4927 3.67286 76.7945 5.00604C80.1273 6.33784 83.1576 8.32742 85.7045 10.856C94.7345 19.856 96.7545 33.646 90.5145 43.666C88.4745 46.926 84.5645 52.596 80.5345 58.316C79.9445 59.146 79.3545 59.986 78.7645 60.816C78.3145 61.446 77.8745 62.076 77.4345 62.696C77.0045 63.296 76.5745 63.896 76.1645 64.486C75.7345 65.086 75.3145 65.676 74.8945 66.256C70.8645 71.886 67.6945 76.256 67.6145 76.366C67.4781 76.5485 67.3006 76.6962 67.0965 76.7973C66.8923 76.8985 66.6673 76.9501 66.4395 76.9482C66.2117 76.9462 65.9875 76.8907 65.7851 76.7861C65.5828 76.6815 65.4079 76.5308 65.2745 76.346C65.1945 76.246 61.9745 71.806 57.9045 66.096C57.3145 65.286 56.7145 64.436 56.1045 63.576C50.9695 56.356 45.0695 47.936 42.3945 43.666ZM56.4945 110.195V69.286C59.9445 74.096 62.5745 77.716 62.8445 78.086C63.2491 78.6677 63.7881 79.1432 64.4156 79.4722C65.0431 79.8013 65.7408 79.9741 66.4493 79.976C67.1579 79.978 67.8565 79.8091 68.4858 79.4835C69.1152 79.158 69.6567 78.6855 70.0645 78.106C70.3145 77.756 72.5045 74.736 75.4945 70.576L79.6045 100.566L56.4945 110.195ZM78.0345 67.035C79.1745 65.435 80.3645 63.755 81.5745 62.055L96.4545 68.695L105.665 109.965L82.6045 100.335L78.0345 67.035Z" fill="#959595"/>
<path d="M105.659 109.966L82.5993 100.336L78.0293 67.036C79.1693 65.436 80.3593 63.756 81.5693 62.056L96.4493 68.696L105.659 109.966Z" fill="#2EB6C7"/>
<path d="M79.5991 100.566L56.4941 110.195V69.286C59.9441 74.096 62.5741 77.716 62.8441 78.086C63.2488 78.6677 63.7877 79.1432 64.4152 79.4722C65.0427 79.8012 65.7404 79.9741 66.4489 79.976C67.1575 79.978 67.8561 79.809 68.4854 79.4835C69.1148 79.1579 69.6563 78.6854 70.0641 78.106C70.3141 77.756 72.5041 74.736 75.4941 70.576L79.5991 100.566Z" fill="white"/>
<path d="M53.4898 66.6561V110.206L30.2598 100.506L35.8398 59.7261L53.4898 66.6561Z" fill="#F5F5F5"/>
<path d="M32.7591 60.106L27.2491 100.396L4.3291 109.966L13.5291 68.696L32.7591 60.106Z" fill="white"/>
<path d="M90.5198 43.6661C88.4798 46.9261 84.5698 52.5961 80.5398 58.3161C79.9498 59.1461 79.3598 59.9861 78.7698 60.8161C78.3198 61.4461 77.8798 62.0761 77.4398 62.6961C77.0098 63.2961 76.5798 63.8961 76.1698 64.4861C75.7398 65.0861 75.3198 65.6761 74.8998 66.2561C70.8698 71.8861 67.6998 76.2561 67.6198 76.3661C67.4833 76.5485 67.3059 76.6962 67.1017 76.7973C66.8976 76.8985 66.6725 76.9502 66.4447 76.9482C66.2169 76.9463 65.9928 76.8907 65.7904 76.7861C65.588 76.6815 65.4131 76.5308 65.2798 76.3461C65.1998 76.2461 61.9798 71.8061 57.9098 66.0961C57.3198 65.2861 56.7198 64.4361 56.1098 63.5761C50.9698 56.3561 45.0698 47.9361 42.3998 43.6661C40.4523 40.5303 39.2227 37.0024 38.7991 33.3355C38.3755 29.6685 38.7685 25.9533 39.9498 22.4561C41.2113 18.5452 43.312 14.9571 46.1051 11.9429C48.8982 8.92875 52.3161 6.56125 56.1198 5.00606C59.3848 3.66647 62.8807 2.98018 66.4098 2.98606C69.9706 2.98709 73.498 3.67287 76.7998 5.00606C80.1326 6.33786 83.1628 8.32744 85.7098 10.8561C94.7398 19.8561 96.7598 33.6461 90.5198 43.6661Z" fill="white"/>
<path d="M55.0293 67.226L54.9893 67.246V67.176C54.9994 67.195 55.013 67.2119 55.0293 67.226Z" fill="#959595"/>
<path d="M66.0613 11.0562C62.165 11.0562 58.3563 12.2115 55.1166 14.3762C51.877 16.5409 49.352 19.6176 47.8609 23.2173C46.3699 26.817 45.9797 30.778 46.7399 34.5994C47.5 38.4209 49.3762 41.9311 52.1313 44.6862C54.8864 47.4412 58.3966 49.3175 62.2181 50.0776C66.0395 50.8378 70.0005 50.4476 73.6002 48.9566C77.1999 47.4655 80.2766 44.9405 82.4413 41.7009C84.606 38.4612 85.7613 34.6524 85.7613 30.7562C85.7545 25.5335 83.6767 20.5267 79.9837 16.8337C76.2908 13.1408 71.284 11.063 66.0613 11.0562ZM66.0613 47.4562C62.7584 47.4562 59.5296 46.4767 56.7833 44.6417C54.037 42.8067 51.8965 40.1985 50.6326 37.147C49.3686 34.0954 49.0378 30.7376 49.6822 27.4981C50.3266 24.2587 51.9171 21.283 54.2527 18.9475C56.5882 16.6119 59.5638 15.0214 62.8033 14.377C66.0428 13.7327 69.4006 14.0634 72.4521 15.3274C75.5037 16.5913 78.1119 18.7318 79.9469 21.4781C81.7819 24.2244 82.7613 27.4532 82.7613 30.7562C82.7568 35.1839 80.9959 39.429 77.8651 42.5599C74.7342 45.6907 70.4891 47.4516 66.0613 47.4562Z" fill="#959595"/>
<path d="M66.0613 14.0562C62.7584 14.0562 59.5296 15.0356 56.7833 16.8706C54.037 18.7056 51.8965 21.3138 50.6326 24.3653C49.3686 27.4169 49.0378 30.7747 49.6822 34.0142C50.3266 37.2536 51.9171 40.2293 54.2527 42.5648C56.5882 44.9004 59.5638 46.4909 62.8033 47.1353C66.0428 47.7796 69.4006 47.4489 72.4521 46.1849C75.5037 44.921 78.1119 42.7805 79.9469 40.0342C81.7819 37.2879 82.7613 34.0591 82.7613 30.7562C82.7568 26.3284 80.9959 22.0833 77.8651 18.9524C74.7342 15.8216 70.4891 14.0607 66.0613 14.0562ZM67.3113 42.0862C67.0133 42.3798 66.6227 42.5612 66.2061 42.5995C65.7894 42.6378 65.3724 42.5306 65.0258 42.2962C64.6792 42.0618 64.4245 41.7146 64.3049 41.3137C64.1853 40.9127 64.2082 40.4827 64.3698 40.0968C64.5314 39.7108 64.8216 39.3927 65.1911 39.1965C65.5607 39.0003 65.9868 38.9381 66.397 39.0205C66.8072 39.103 67.1762 39.3249 67.4414 39.6485C67.7065 39.9722 67.8514 40.3777 67.8513 40.7962C67.8542 41.0367 67.8078 41.2752 67.7149 41.4971C67.622 41.7189 67.4847 41.9194 67.3113 42.0862ZM71.9713 30.6862C70.7941 31.9062 69.2672 32.7308 67.6013 33.0462V35.1862C67.6248 35.6397 67.4706 36.0845 67.1713 36.4262C66.8583 36.7156 66.4477 36.8763 66.0213 36.8763C65.595 36.8763 65.1844 36.7156 64.8713 36.4262C64.7211 36.2583 64.6057 36.0622 64.5319 35.8493C64.458 35.6364 64.4273 35.411 64.4413 35.1862V32.5762C64.4413 32.1662 64.4513 31.8362 64.4713 31.5862C64.4877 31.3478 64.5909 31.1236 64.7613 30.9562C64.9776 30.7606 65.2334 30.614 65.5113 30.5261C65.9824 30.3727 66.4635 30.2524 66.9513 30.1662C67.5673 30.0675 68.1562 29.8428 68.6813 29.5062C69.0733 29.2445 69.4097 28.9081 69.6713 28.5162C69.8906 28.1662 70.0463 27.7803 70.1313 27.3762C70.2155 27.0189 70.2591 26.6532 70.2613 26.2862C70.2878 25.7469 70.1968 25.2083 69.9948 24.7077C69.7928 24.207 69.4846 23.7561 69.0913 23.3862C68.2622 22.6647 67.1897 22.2858 66.0913 22.3262C65.2191 22.3079 64.3572 22.5182 63.5913 22.9362C62.7746 23.4932 62.1826 24.3227 61.9213 25.2761C61.8266 25.6434 61.6247 25.9741 61.3413 26.2262C61.1018 26.3942 60.8136 26.4785 60.5213 26.4662C60.1098 26.4663 59.7148 26.3047 59.4213 26.0162C59.2603 25.8612 59.1362 25.672 59.0583 25.4625C58.9804 25.253 58.9507 25.0287 58.9713 24.8062C59.0142 24.0347 59.2553 23.2873 59.6713 22.6362C60.1031 21.9669 60.6518 21.3809 61.2913 20.9062C61.9632 20.4143 62.7092 20.0328 63.5013 19.7761C64.3026 19.5178 65.1394 19.3862 65.9813 19.3862C67.0096 19.3739 68.0319 19.5431 69.0013 19.8862C69.887 20.198 70.7099 20.6653 71.4313 21.2662C72.1043 21.8488 72.655 22.5592 73.0513 23.3562C73.4482 24.1791 73.6501 25.0825 73.6413 25.9962C73.7204 27.7179 73.1208 29.4019 71.9713 30.6862Z" fill="#2EB6C7"/>
<path d="M67.3112 39.5061C67.0132 39.2125 66.6226 39.0311 66.206 38.9928C65.7893 38.9545 65.3723 39.0617 65.0257 39.2961C64.6791 39.5304 64.4244 39.8776 64.3048 40.2786C64.1852 40.6795 64.2081 41.1095 64.3697 41.4955C64.5312 41.8814 64.8215 42.1996 65.191 42.3957C65.5606 42.5919 65.9867 42.6541 66.3969 42.5717C66.8071 42.4893 67.1761 42.2674 67.4413 41.9437C67.7064 41.62 67.8512 41.2145 67.8512 40.7961C67.8541 40.5556 67.8076 40.3171 67.7148 40.0952C67.6219 39.8734 67.4846 39.6729 67.3112 39.5061ZM73.0512 23.3561C72.6548 22.5591 72.1042 21.8487 71.4312 21.2661C70.7097 20.6653 69.8868 20.1979 69.0012 19.8861C68.0318 19.5431 67.0095 19.3738 65.9812 19.3861C65.1393 19.3862 64.3025 19.5178 63.5012 19.7761C62.7091 20.0328 61.9631 20.4142 61.2912 20.9061C60.6517 21.3808 60.103 21.9669 59.6712 22.6361C59.2552 23.2872 59.0141 24.0346 58.9712 24.8061C58.9505 25.0287 58.9803 25.253 59.0582 25.4625C59.1361 25.6719 59.2602 25.8612 59.4212 26.0161C59.7146 26.3047 60.1097 26.4663 60.5212 26.4661C60.8135 26.4785 61.1017 26.3941 61.3412 26.2261C61.6246 25.9741 61.8265 25.6433 61.9212 25.2761C62.1825 24.3226 62.7745 23.4932 63.5912 22.9361C64.3571 22.5182 65.2189 22.3079 66.0912 22.3261C67.1895 22.2857 68.2621 22.6647 69.0912 23.3861C69.4845 23.7561 69.7927 24.2069 69.9947 24.7076C70.1967 25.2083 70.2876 25.7469 70.2612 26.2861C70.259 26.6532 70.2154 27.0188 70.1312 27.3761C70.0462 27.7802 69.8905 28.1662 69.6712 28.5161C69.4096 28.9081 69.0732 29.2445 68.6812 29.5061C68.1561 29.8428 67.5672 30.0675 66.9512 30.1661C66.4634 30.2524 65.9822 30.3727 65.5112 30.5261C65.2333 30.6139 64.9775 30.7606 64.7612 30.9561C64.5908 31.1236 64.4876 31.3477 64.4712 31.5861C64.4512 31.8361 64.4412 32.1661 64.4412 32.5761V35.1861C64.4272 35.411 64.4579 35.6364 64.5317 35.8493C64.6056 36.0622 64.721 36.2582 64.8712 36.4261C65.1843 36.7155 65.5949 36.8763 66.0212 36.8763C66.4476 36.8763 66.8582 36.7155 67.1712 36.4261C67.4705 36.0845 67.6247 35.6397 67.6012 35.1861V33.0461C69.2671 32.7307 70.7939 31.9061 71.9712 30.6861C73.1209 29.4016 73.7205 27.7172 73.6412 25.9951C73.6499 25.0818 73.448 24.1788 73.0512 23.3561Z" fill="white"/>
</svg>
