<svg width="24" height="24" viewBox="0 0 24 24" fill="none" xmlns="http://www.w3.org/2000/svg">
<path d="M12 21C16.9706 21 21 16.9706 21 12C21 7.02944 16.9706 3 12 3C7.02944 3 3 7.02944 3 12C3 16.9706 7.02944 21 12 21Z" stroke="#91A0A8" stroke-width="2"/>
<path d="M12.5 7C12.5 7.27614 12.2762 7.5 12 7.5C11.7238 7.5 11.5 7.27614 11.5 7C11.5 6.72386 11.7238 6.5 12 6.5C12.2762 6.5 12.5 6.72386 12.5 7Z" fill="#91A0A8" stroke="#91A0A8"/>
<path d="M12 17V10Z" fill="#91A0A8"/>
<path d="M12 17V10" stroke="#91A0A8" stroke-width="2" stroke-linecap="round"/>
</svg>
