<svg width="18" height="2" viewBox="0 0 18 2" fill="none" xmlns="http://www.w3.org/2000/svg">
<path fill-rule="evenodd" clip-rule="evenodd" d="M9.5 0C10 0 9.5523 0.000652179 9 0.000652179C8.4477 0.000652179 8 -0.000171632 8.5 0.000231609H8H1C0.44772 0.000231609 0 0.447932 0 1.00023C0 1.55253 0.44772 2.00023 1 2.00023H8H8.5C8.5 2.00023 8.4477 2.00006 9 2.00006C9.5523 2.00006 9.75 2.00003 9.5 1.99983L10 2.00023H17C17.5523 2.00023 18 1.55253 18 1.00023C18 0.447932 17.5523 0.000231609 17 0.000231609H10L9.5 0Z" fill="#738995"/>
</svg>
