<svg width="21" height="22" viewBox="0 0 21 22" fill="none" xmlns="http://www.w3.org/2000/svg">
<path d="M3.55639 13.4051C3.06031 13.4053 2.57491 13.2584 2.16234 12.983C1.74977 12.7075 1.42849 12.3159 1.23852 11.8576C1.04854 11.3994 0.99879 10.895 1.09545 10.4085C1.19211 9.92189 1.43077 9.47492 1.78148 9.12407C2.13219 8.77322 2.57913 8.53428 3.06566 8.43743C3.5522 8.34057 4.05655 8.39018 4.51488 8.57997C4.97322 8.76977 5.36474 9.09122 5.64037 9.50368C5.916 9.91614 6.06322 10.4011 6.06322 10.8971C6.06269 11.562 5.79837 12.1994 5.32836 12.6696C4.85835 13.1398 4.22121 13.4043 3.55639 13.4051ZM3.55639 9.98516C3.37601 9.98516 3.19953 10.0386 3.04955 10.1388C2.89957 10.2391 2.78264 10.3815 2.71361 10.5481C2.64459 10.7148 2.62667 10.8981 2.66186 11.0751C2.69705 11.252 2.78382 11.4145 2.91137 11.542C3.03891 11.6696 3.20125 11.7564 3.37816 11.7916C3.55507 11.8268 3.73837 11.8088 3.90502 11.7397C4.07167 11.6707 4.21448 11.5538 4.31469 11.4038C4.4149 11.2538 4.46801 11.0775 4.46801 10.8971C4.46774 10.6553 4.37189 10.4235 4.20092 10.2526C4.02994 10.0816 3.79818 9.98542 3.55639 9.98516Z" fill="#2EB6C7"/>
<path d="M10.3958 13.4052C9.89972 13.4052 9.41513 13.2581 9.00269 12.9825C8.59025 12.7069 8.26869 12.3152 8.07886 11.8569C7.88904 11.3987 7.83903 10.8944 7.9358 10.4079C8.03257 9.92136 8.27157 9.4745 8.62232 9.12375C8.97307 8.773 9.42 8.53412 9.9065 8.43735C10.393 8.34058 10.8974 8.39026 11.3557 8.58008C11.814 8.7699 12.2056 9.09135 12.4812 9.50379C12.7568 9.91622 12.9041 10.4011 12.9041 10.8972C12.9035 11.5622 12.6389 12.1998 12.1687 12.67C11.6985 13.1402 11.0608 13.4046 10.3958 13.4052ZM10.3958 9.98517C10.2154 9.98537 10.0393 10.039 9.88941 10.1393C9.73956 10.2397 9.62284 10.3822 9.55396 10.5489C9.48509 10.7155 9.46739 10.8988 9.50269 11.0757C9.53799 11.2525 9.62462 11.4149 9.7522 11.5424C9.87979 11.6698 10.0426 11.7566 10.2195 11.7917C10.3964 11.8268 10.5793 11.8087 10.7459 11.7397C10.9124 11.6706 11.0549 11.5537 11.155 11.4037C11.2552 11.2538 11.3088 11.0775 11.3088 10.8972C11.3088 10.7773 11.2854 10.6586 11.2395 10.5479C11.1936 10.4372 11.1261 10.3366 11.0413 10.2519C10.9565 10.1672 10.8561 10.1001 10.7454 10.0543C10.6346 10.0085 10.5156 9.98504 10.3958 9.98517Z" fill="#333333"/>
<path d="M17.2362 13.4052C16.7402 13.4052 16.2551 13.2581 15.8427 12.9825C15.4302 12.7069 15.1087 12.3152 14.9188 11.8569C14.729 11.3987 14.6795 10.8944 14.7763 10.4079C14.873 9.92136 15.112 9.4745 15.4628 9.12375C15.8135 8.773 16.2605 8.53412 16.747 8.43735C17.2335 8.34058 17.7374 8.39026 18.1957 8.58008C18.654 8.7699 19.0461 9.09135 19.3217 9.50379C19.5972 9.91622 19.744 10.4011 19.744 10.8972C19.7435 11.5622 19.4794 12.1998 19.0092 12.67C18.5389 13.1402 17.9012 13.4046 17.2362 13.4052ZM17.2362 9.98517C17.0558 9.98517 16.8794 10.0386 16.7294 10.1389C16.5794 10.2391 16.4625 10.3815 16.3934 10.5482C16.3244 10.7148 16.3065 10.8982 16.3417 11.0751C16.3769 11.252 16.4637 11.4145 16.5912 11.5421C16.7187 11.6696 16.8811 11.7564 17.058 11.7916C17.2349 11.8268 17.4187 11.8088 17.5853 11.7397C17.752 11.6707 17.8943 11.5538 17.9945 11.4038C18.0947 11.2539 18.1483 11.0775 18.1483 10.8972C18.1481 10.6554 18.0517 10.4235 17.8807 10.2526C17.7098 10.0816 17.478 9.98543 17.2362 9.98517Z" fill="#333333"/>
<path d="M19.2421 7.22703C19.0855 7.22651 18.9322 7.17996 18.8017 7.09321C18.6712 7.00646 18.5694 6.88331 18.5083 6.73902C17.8675 5.21206 16.7891 3.90881 15.4091 2.99345C14.0292 2.07809 12.4089 1.59152 10.7529 1.59501H10.6352C8.93138 1.59663 7.26302 2.08381 5.82613 2.99946C4.38925 3.91511 3.24308 5.22133 2.52193 6.76503C2.48322 6.86815 2.42387 6.96216 2.34713 7.04118C2.27039 7.1202 2.17808 7.18251 2.07613 7.22422C1.97419 7.26594 1.86447 7.28616 1.75435 7.28361C1.64424 7.28106 1.5359 7.25579 1.436 7.20939C1.33609 7.163 1.24678 7.09648 1.17379 7.01399C1.10079 6.9315 1.04607 6.83483 1.01217 6.73002C0.978269 6.62522 0.966148 6.51453 0.977011 6.40492C0.987874 6.29531 1.02135 6.18914 1.07516 6.09303C1.92402 4.27554 3.2728 2.73731 4.96383 1.65831C6.65485 0.579299 8.61804 0.00411107 10.624 1.03258e-05H10.7651C12.7333 -0.00282126 14.6584 0.576772 16.2978 1.66581C17.9372 2.75485 19.2176 4.30464 19.978 6.12001C20.0286 6.24124 20.0485 6.37308 20.0361 6.50386C20.0236 6.63463 19.9792 6.76034 19.9067 6.86985C19.8342 6.97937 19.7356 7.06932 19.6201 7.13179C19.5045 7.19425 19.3755 7.2273 19.2441 7.22801L19.2421 7.22703Z" fill="#333333"/>
<path d="M10.2773 21.4508C8.30903 21.4536 6.38357 20.8738 4.74412 19.7846C3.10468 18.6954 1.82419 17.1454 1.06395 15.3298C1.00153 15.1391 1.01345 14.9319 1.09666 14.7493C1.17988 14.5667 1.32828 14.422 1.51317 14.344C1.69805 14.2659 1.90582 14.2602 2.09471 14.328C2.2836 14.3958 2.44008 14.532 2.53319 14.7098C3.17368 16.2372 4.25181 17.5408 5.63182 18.4565C7.01183 19.3723 8.63187 19.8591 10.2881 19.8558H10.4072C12.1111 19.8539 13.779 19.3664 15.2158 18.4506C16.6527 17.5348 17.7988 16.2286 18.52 14.6848C18.5587 14.5817 18.6186 14.4877 18.6953 14.4087C18.772 14.3296 18.8643 14.2673 18.9663 14.2256C19.0682 14.1839 19.1775 14.1637 19.2876 14.1662C19.3977 14.1688 19.506 14.1941 19.6059 14.2404C19.7058 14.2868 19.7952 14.3534 19.8681 14.4359C19.9411 14.5183 19.9964 14.615 20.0303 14.7198C20.0642 14.8246 20.0758 14.9353 20.0649 15.0449C20.0541 15.1545 20.0211 15.2607 19.9673 15.3568C19.1186 17.1747 17.7694 18.7133 16.0781 19.7925C14.3869 20.8717 12.4232 21.4469 10.417 21.4508C10.378 21.4478 10.3253 21.4508 10.2773 21.4508Z" fill="#333333"/>
</svg>
