<svg width="80" height="80" viewBox="0 0 80 80" fill="none" xmlns="http://www.w3.org/2000/svg">
<g clip-path="url(#clip0_2943_5277)">
<rect width="80" height="80" fill="white"/>
<circle cx="30" cy="29" r="50" fill="#DBF1F5"/>
<g clip-path="url(#clip1_2943_5277)">
<mask id="mask0_2943_5277" style="mask-type:luminance" maskUnits="userSpaceOnUse" x="22" y="18" width="32" height="32">
<path d="M22 18H54V50H22V18Z" fill="white"/>
</mask>
<g mask="url(#mask0_2943_5277)">
<path d="M52.0558 31.512C51.5979 30.4335 51.1476 29.3518 50.7048 28.267C50.6677 28.1764 50.6343 28.0843 50.6048 27.991C50.5499 27.7469 50.4371 27.5195 50.276 27.3281C50.1148 27.1366 49.91 26.9867 49.6788 26.891C47.4921 26.0037 45.3045 25.119 43.1158 24.237L39.1158 22.621C38.9538 22.555 38.8158 22.498 38.7008 22.449C38.4127 22.2697 38.0797 22.1755 37.7404 22.1773C37.401 22.179 37.069 22.2767 36.7828 22.459L36.4198 22.608C32.8911 24.036 29.3668 25.4633 25.8468 26.89C25.6153 26.9857 25.4102 27.1355 25.2488 27.3269C25.0873 27.5184 24.9741 27.7458 24.9188 27.99C24.8869 28.0842 24.8536 28.1779 24.8188 28.271C24.4458 29.187 24.0608 30.105 23.6758 31.021L23.6598 31.06C23.5878 31.235 23.5238 31.383 23.4688 31.512C23.2351 31.8375 23.1279 32.2369 23.1671 32.6356C23.2063 33.0344 23.3892 33.4053 23.6818 33.679C23.7818 33.814 23.9018 33.979 24.0418 34.179L25.5098 36.324C25.6858 36.577 25.7968 36.763 25.8778 36.899C26.1948 37.431 26.4198 37.561 26.8988 37.561C26.9698 37.561 27.0468 37.561 27.1308 37.553H27.1898C26.7862 37.8585 26.4609 38.2553 26.2404 38.7109C26.02 39.1666 25.9108 39.668 25.9218 40.174C26.0888 41.527 27.5108 42.352 28.9538 43.081C31.7174 44.3521 34.7234 45.0102 37.7653 45.0102C40.8072 45.0102 43.8131 44.3521 46.5768 43.081C48.0188 42.352 49.4408 41.528 49.6088 40.174C49.6179 39.6565 49.5031 39.1443 49.274 38.6802C49.0449 38.2161 48.7081 37.8135 48.2918 37.506L48.4468 37.518C48.6933 37.5783 48.9534 37.5461 49.1778 37.4276C49.4022 37.3092 49.5755 37.1126 49.6648 36.875C49.7438 36.745 49.8528 36.567 50.0228 36.322L51.4858 34.184C51.6278 33.984 51.7488 33.815 51.8478 33.684C52.4808 32.821 52.5068 32.558 52.0608 31.517L52.0558 31.512ZM47.0708 35.112V36.406C47.1218 36.5462 47.1218 36.6999 47.0708 36.84C47.0713 36.9571 47.1027 37.072 47.1618 37.173H28.3818C28.3665 36.9158 28.3887 36.6578 28.4478 36.407V35.115C30.1988 33.934 45.3318 33.932 47.0708 35.115V35.112ZM48.3708 40.012C48.2868 40.691 47.1408 41.356 46.0308 41.912C43.4315 43.0861 40.612 43.6934 37.7598 43.6934C34.9076 43.6934 32.0881 43.0861 29.4888 41.912C28.3788 41.351 27.2328 40.686 27.1488 40.012C27.0998 39.612 27.4138 39.084 28.0608 38.471H47.4608C48.1078 39.083 48.4228 39.614 48.3728 40.012H48.3708ZM50.8568 32.895C50.7518 33.038 50.6248 33.211 50.4718 33.431L49.0088 35.569C48.8208 35.84 48.6998 36.038 48.6088 36.182L48.5778 36.233H48.5328L48.3108 36.217V34.947C48.3108 34.062 47.2898 33.591 44.6678 33.266C43.0278 33.066 32.5068 33.066 30.8678 33.266C28.2328 33.591 27.2058 34.066 27.2058 34.946V36.247L27.0558 36.256L26.9558 36.262L26.9258 36.211C26.8398 36.067 26.7108 35.85 26.5118 35.564L25.0438 33.419C24.8938 33.203 24.7668 33.03 24.6618 32.886C24.5568 32.742 24.4468 32.593 24.4048 32.518C24.4308 32.427 24.5148 32.23 24.5958 32.039L24.7958 31.574L24.8098 31.54C25.1968 30.618 25.5838 29.698 25.9558 28.782C26.0031 28.6664 26.0468 28.5493 26.0868 28.431C26.1868 28.138 26.1928 28.136 26.2948 28.095C29.8061 26.6697 33.3285 25.2434 36.8618 23.816L37.2358 23.662C37.7498 23.448 37.7498 23.448 38.2278 23.65C38.3488 23.701 38.4908 23.761 38.6598 23.829L42.6598 25.445C44.8485 26.3283 47.0361 27.213 49.2228 28.099C49.3228 28.14 49.3228 28.141 49.4288 28.434C49.4668 28.542 49.5078 28.66 49.5578 28.78C49.9368 29.712 50.3288 30.645 50.7188 31.574C50.7938 31.755 50.8598 31.91 50.9188 32.043C51.0008 32.234 51.0848 32.43 51.1098 32.522C51.0688 32.598 50.9598 32.746 50.8538 32.891L50.8568 32.895Z" fill="#555555" stroke="#555555" stroke-width="0.5"/>
<path d="M35.8839 27.252L36.0319 27.118C36.3099 27.1781 36.5974 27.1804 36.8764 27.1248C37.1554 27.0693 37.42 26.957 37.6539 26.795C37.8864 26.9578 38.1501 27.0706 38.4285 27.1262C38.7068 27.1818 38.9936 27.179 39.2709 27.118L39.4179 27.252C39.1766 27.7931 39.141 28.4036 39.3179 28.969C39.6629 30.362 39.3449 30.497 38.5749 30.824C38.2516 30.9501 37.9425 31.11 37.6529 31.301C37.3623 31.1105 37.0526 30.951 36.7289 30.825C35.9589 30.499 35.6399 30.364 35.9909 28.97C36.1594 28.4026 36.1221 27.7938 35.8839 27.252ZM38.3319 32.146C38.5438 32.0171 38.7662 31.9063 38.9969 31.815C40.0539 31.366 40.8859 30.822 40.3599 28.702C40.2853 28.4994 40.262 28.2815 40.2922 28.0677C40.3224 27.854 40.4051 27.651 40.5329 27.477C40.6142 27.37 40.6525 27.2363 40.6401 27.1025C40.6277 26.9686 40.5655 26.8443 40.4659 26.754L39.7659 26.121C39.6929 26.0546 39.6031 26.0096 39.5062 25.9909C39.4094 25.9722 39.3093 25.9806 39.2169 26.015C39.0077 26.0946 38.7793 26.1086 38.562 26.055C38.3447 26.0014 38.149 25.8828 38.0009 25.715C37.9041 25.6332 37.7815 25.5884 37.6549 25.5884C37.5282 25.5884 37.4056 25.6332 37.3089 25.715C37.1579 25.8833 36.9595 26.0021 36.7398 26.0556C36.5201 26.1092 36.2894 26.095 36.0779 26.015C35.9855 25.9804 35.8853 25.9721 35.7884 25.9908C35.6916 26.0095 35.6017 26.0545 35.5289 26.121L34.8289 26.754C34.7292 26.8443 34.667 26.9686 34.6546 27.1025C34.6422 27.2363 34.6805 27.37 34.7619 27.477C34.8907 27.652 34.9745 27.856 35.0061 28.0709C35.0377 28.2859 35.0159 28.5054 34.9429 28.71C34.4109 30.823 35.2429 31.367 36.3049 31.816C36.5356 31.9073 36.7584 32.0177 36.9709 32.146C34.9689 32.164 40.3469 32.163 38.3319 32.146Z" fill="#2EB6C7" stroke="#2EB6C7" stroke-width="0.5"/>
</g>
</g>
</g>
<defs>
<clipPath id="clip0_2943_5277">
<rect width="80" height="80" fill="white"/>
</clipPath>
<clipPath id="clip1_2943_5277">
<rect width="32" height="32" fill="white" transform="translate(22 18)"/>
</clipPath>
</defs>
</svg>
