<svg width="18" height="18" viewBox="0 0 18 18" fill="none" xmlns="http://www.w3.org/2000/svg">
<path fill-rule="evenodd" clip-rule="evenodd" d="M18 9C18 13.9706 13.9706 18 9 18C4.02944 18 0 13.9706 0 9C0 4.02944 4.02944 0 9 0C13.9706 0 18 4.02944 18 9ZM8.953 11.3981C8.69097 11.3981 8.43965 11.294 8.25436 11.1087C8.06908 10.9234 7.965 10.6721 7.965 10.4101V9.91607C7.965 9.65404 8.06908 9.40273 8.25436 9.21745C8.43965 9.03216 8.69097 8.92807 8.953 8.92807C9.3441 8.92827 9.72646 8.81246 10.0517 8.5953C10.377 8.37814 10.6305 8.06939 10.7803 7.7081C10.9301 7.34681 10.9693 6.94922 10.893 6.56562C10.8168 6.18203 10.6285 5.82967 10.3519 5.55312C10.0754 5.27657 9.72304 5.08826 9.33945 5.01201C8.95585 4.93576 8.55825 4.97499 8.19696 5.12475C7.83567 5.27451 7.52691 5.52806 7.30975 5.85333C7.09259 6.1786 6.97679 6.56097 6.97699 6.95207C6.97699 7.21424 6.87285 7.46566 6.68747 7.65104C6.50209 7.83642 6.25066 7.94057 5.98849 7.94057C5.72633 7.94057 5.4749 7.83642 5.28952 7.65104C5.10414 7.46566 5 7.21424 5 6.95207C5.00017 6.2093 5.2096 5.4816 5.60431 4.85238C5.99902 4.22316 6.56303 3.71788 7.23169 3.39444C7.90035 3.07101 8.64659 2.94251 9.38492 3.02367C10.1232 3.10483 10.8238 3.39237 11.4062 3.85333C11.9886 4.3143 12.4294 4.93003 12.678 5.62996C12.9266 6.3299 12.973 7.08571 12.8118 7.81079C12.6506 8.53586 12.2884 9.20086 11.7667 9.72956C11.245 10.2583 10.5849 10.6293 9.862 10.8001C9.78554 10.9777 9.65869 11.129 9.49713 11.2353C9.33557 11.3416 9.14639 11.3982 8.953 11.3981ZM9.94084 14.3631C9.94084 14.9088 9.4985 15.3511 8.95284 15.3511C8.40719 15.3511 7.96484 14.9088 7.96484 14.3631C7.96484 13.8175 8.40719 13.3751 8.95284 13.3751C9.4985 13.3751 9.94084 13.8175 9.94084 14.3631Z" fill="#52C2D0"/>
</svg>
