<svg width="161" height="160" viewBox="0 0 161 160" fill="none" xmlns="http://www.w3.org/2000/svg">
<path d="M132.875 35.5V25.535C132.875 20.269 127.288 16 120.398 16H117.905C111.014 16 105.428 20.269 105.428 25.535V40.47" stroke="#DDDDDD" stroke-width="2.5" stroke-linecap="round" stroke-linejoin="round"/>
<path d="M133.891 91.5L141.611 88.5V96.419H133.891V91.5Z" stroke="#DDDDDD" stroke-width="2.5" stroke-linecap="round" stroke-linejoin="round"/>
<path d="M86.1592 51.6511V40.7101H114.945M134.401 90.7411V96.4191H104.116" stroke="#DDDDDD" stroke-width="2.5" stroke-linecap="round" stroke-linejoin="round"/>
<path d="M124.003 33.8341V29.1201C124.003 25.8113 122.688 22.638 120.349 20.2982C118.01 17.9584 114.837 16.6436 111.528 16.6431H109.028C105.719 16.6431 102.545 17.9576 100.205 20.2975C97.8653 22.6374 96.5508 25.811 96.5508 29.1201V48.664" stroke="#DDDDDD" stroke-width="2.5" stroke-linecap="round" stroke-linejoin="round"/>
<path d="M111.028 49.812L128.765 93.0529L155.875 81.933L138.138 38.692L125.92 33.4919L124.003 34.279L116.365 37.4109L111.028 49.812ZM127.428 41.7639C127.607 42.1987 127.698 42.6645 127.697 43.1345C127.695 43.6046 127.601 44.0697 127.42 44.5034C127.239 44.9371 126.974 45.3308 126.64 45.662C126.307 45.9933 125.911 46.2556 125.476 46.434C124.598 46.7949 123.613 46.7922 122.736 46.4265C121.86 46.0608 121.165 45.362 120.804 44.4839C120.444 43.605 120.448 42.619 120.814 41.7427C121.181 40.8665 121.881 40.1716 122.759 39.8109C123.638 39.4496 124.623 39.452 125.5 39.8175C126.376 40.183 127.072 40.8817 127.433 41.7599V41.766L127.428 41.7639Z" stroke="#DDDDDD" stroke-width="2.5" stroke-linecap="round" stroke-linejoin="round"/>
<path d="M133.394 75.621C130.833 76.671 128.585 75.821 127.794 73.883C127.003 71.945 127.982 69.9 130.434 68.895C132.996 67.844 135.212 68.551 136.062 70.622C136.875 72.627 135.848 74.614 133.394 75.621ZM132.663 73.837C134.379 73.137 134.763 72.167 134.399 71.275C134.007 70.319 132.999 69.898 131.152 70.657C129.459 71.351 129.065 72.424 129.403 73.249C129.741 74.074 130.836 74.586 132.663 73.837ZM143.176 65.958L144.127 68.276L124.405 65.376L123.455 63.06L143.176 65.958ZM136.764 62.002C134.203 63.052 131.953 62.202 131.158 60.267C130.363 58.332 131.346 56.285 133.798 55.279C136.36 54.228 138.576 54.933 139.426 57.006C140.249 59.006 139.215 60.996 136.764 62.006V62.002ZM136.032 60.218C137.748 59.518 138.132 58.551 137.768 57.661C137.374 56.701 136.368 56.28 134.52 57.039C132.825 57.739 132.434 58.808 132.772 59.631C133.11 60.454 134.205 60.968 136.032 60.218Z" fill="#DDDDDD" stroke="#DDDDDD"/>
<path d="M47.6992 112.915L32.2612 119.105C31.3632 119.461 30.4357 119.736 29.4893 119.929L43.5363 142.537C43.8206 142.995 44.1925 143.393 44.6306 143.708C45.0688 144.023 45.5646 144.248 46.0898 144.371C46.6151 144.494 47.1593 144.513 47.6917 144.425C48.224 144.338 48.7339 144.146 49.1923 143.862H49.1973L58.5043 138.08C58.9626 137.796 59.3606 137.424 59.6753 136.986C59.99 136.548 60.2152 136.053 60.3384 135.528C60.4615 135.003 60.48 134.459 60.3928 133.926C60.3056 133.394 60.1146 132.884 59.8303 132.426V132.419L47.6992 112.915Z" fill="#F5F5F5" stroke="#DDDDDD" stroke-width="2.707" stroke-linecap="round" stroke-linejoin="round"/>
<path d="M37.7486 69.5911L15.8195 78.3911C11.7745 80.0141 8.53979 83.1772 6.8267 87.1849C5.11361 91.1926 5.0625 95.7167 6.68461 99.7621L10.8846 110.249C12.5073 114.295 15.6706 117.53 19.6786 119.243C23.6866 120.956 28.211 121.007 32.2565 119.384L54.1846 110.591L37.7486 69.5911Z" fill="#2EB6C7" stroke="#2EB6C7" stroke-width="2" stroke-linecap="round" stroke-linejoin="round"/>
<path d="M49.9683 64.2321C46.2203 66.6817 42.1265 68.5562 37.8232 69.7931L54.0613 110.283C58.0261 108.202 62.2808 106.727 66.6832 105.909C77.1527 104.054 87.9401 105.503 97.5493 110.054L69.4203 39.919V39.9091C65.6182 49.8393 58.8198 58.3401 49.9683 64.2321Z" stroke="#DDDDDD" stroke-width="2.707" stroke-linecap="round" stroke-linejoin="round"/>
<path d="M94.3988 62.1401C93.4029 61.715 92.3353 61.4832 91.2528 61.4571C91.1136 61.4535 90.9757 61.4846 90.8514 61.5474C90.7272 61.6102 90.6204 61.7029 90.5408 61.8171C90.4611 61.9312 90.411 62.0633 90.3951 62.2016C90.3792 62.3398 90.398 62.4799 90.4497 62.6091L95.7407 75.8001C95.7929 75.9297 95.8766 76.0442 95.9841 76.1335C96.0917 76.2227 96.2198 76.2837 96.3568 76.3111C96.5174 76.3432 96.6838 76.3279 96.8358 76.2671C96.9423 76.225 97.039 76.1613 97.1197 76.0801C97.8837 75.312 98.4947 74.4055 98.9198 73.4091C99.8069 71.3144 99.8293 68.9538 98.9823 66.8426C98.1353 64.7314 96.4876 63.0409 94.3988 62.1401Z" fill="#2EB6C7"/>
<path d="M102.631 112.723C101.621 113.046 100.525 112.957 99.5813 112.476C98.6372 111.994 97.921 111.16 97.5886 110.154L69.4216 39.919C68.9654 38.9625 68.9056 37.8644 69.2553 36.864C69.605 35.8636 70.3358 35.042 71.2886 34.578L74.7437 33.192C75.7536 32.8696 76.8499 32.9589 77.7943 33.4405C78.7387 33.9222 79.4547 34.7572 79.7866 35.764L107.958 105.995C108.412 106.952 108.47 108.05 108.12 109.05C107.77 110.05 107.04 110.872 106.088 111.337L102.631 112.723Z" fill="#F5F5F5" stroke="#DDDDDD" stroke-width="2.707" stroke-linecap="round" stroke-linejoin="round"/>
</svg>
