<svg width="40" height="40" viewBox="0 0 40 40" fill="none" xmlns="http://www.w3.org/2000/svg">
<path d="M33 34.9721L22.1946 24.1667C21.3613 24.8703 20.394 25.4212 19.2929 25.8196C18.1918 26.2176 17.0201 26.4167 15.7779 26.4167C12.7657 26.4167 10.2163 25.3726 8.12958 23.2846C6.04319 21.1968 5 18.6668 5 15.6946C5 12.7224 6.04403 10.1922 8.13208 8.10416C10.2199 6.0161 12.7546 4.97208 15.7363 4.97208C18.7176 4.97208 21.2476 6.0161 23.3263 8.10416C25.4051 10.1922 26.4446 12.7237 26.4446 15.6987C26.4446 16.8996 26.2501 18.051 25.8612 19.1529C25.4724 20.2546 24.9075 21.2685 24.1667 22.1946L35 32.9721L33 34.9721ZM15.75 23.6387C17.9492 23.6387 19.8183 22.8633 21.3575 21.3125C22.8969 19.7617 23.6667 17.889 23.6667 15.6946C23.6667 13.5001 22.8969 11.6274 21.3575 10.0762C19.8183 8.52541 17.9492 7.74999 15.75 7.74999C13.5356 7.74999 11.6532 8.52541 10.1029 10.0762C8.55292 11.6274 7.77792 13.5001 7.77792 15.6946C7.77792 17.889 8.55292 19.7617 10.1029 21.3125C11.6532 22.8633 13.5356 23.6387 15.75 23.6387Z" fill="#171B1D"/>
</svg>
