<svg width="48" height="69" viewBox="0 0 48 69" fill="none" xmlns="http://www.w3.org/2000/svg">
<g clip-path="url(#clip0_841_5361)">
<path d="M24 69C28.4183 69 32 65.4183 32 61C32 56.5817 28.4183 53 24 53C19.5817 53 16 56.5817 16 61C16 65.4183 19.5817 69 24 69Z" fill="#66AA00" fill-opacity="0.3"/>
<path d="M24 65C26.2091 65 28 63.2091 28 61C28 58.7909 26.2091 57 24 57C21.7909 57 20 58.7909 20 61C20 63.2091 21.7909 65 24 65Z" fill="#66AA00"/>
<path d="M40.5002 40.3169L27.9202 52.8429C26.8055 53.9492 25.2987 54.57 23.7282 54.57C22.1577 54.57 20.6509 53.9492 19.5362 52.8429L6.94917 40.3169C4.74697 38.129 2.99925 35.5271 1.80662 32.661C0.613986 29.7949 0 26.7212 0 23.6169C0 20.5126 0.613986 17.4389 1.80662 14.5729C2.99925 11.7068 4.74697 9.10487 6.94917 6.91692C11.4082 2.48537 17.4395 -0.00195313 23.7262 -0.00195312C30.0128 -0.00195313 36.0441 2.48537 40.5032 6.91692C42.7054 9.10487 44.4531 11.7068 45.6457 14.5729C46.8384 17.4389 47.4524 20.5126 47.4524 23.6169C47.4524 26.7212 46.8384 29.7949 45.6457 32.661C44.4531 35.5271 42.7054 38.129 40.5032 40.3169H40.5002Z" fill="#66AA00"/>
<path d="M24 43C34.4934 43 43 34.4934 43 24C43 13.5066 34.4934 5 24 5C13.5066 5 5 13.5066 5 24C5 34.4934 13.5066 43 24 43Z" fill="white"/>
</g>

<defs>
<clipPath id="clip0_841_5361">
<rect width="47.452" height="69" fill="white"/>
</clipPath>
</defs>
</svg>
