<svg data-name="组件 441 – 154" xmlns="http://www.w3.org/2000/svg" width="24" height="24" viewBox="0 0 24 24">
    <g data-name="组 13566">
        <g data-name="组 13562">
            <path data-name="路径 11622" d="m32.161 25.937-2.912 4.6-.409.645c-.341.539.513 1.035.853.5l2.913-4.6.408-.645c.341-.539-.513-1.035-.853-.5z" transform="translate(-14.552 -13.006)" style="stroke-width:.5px;fill:#2eb0c1;stroke:#2eb0c1"/>
        </g>
        <g data-name="组 13565">
            <g data-name="组 13563">
                <path data-name="路径 11623" d="m9.983 23.556 3.645-5.918-.405.232h4.026a.476.476 0 0 0 .469-.469v-2.369l-.469.469h1.211c.323 0 .629-.413.405-.706L16.2 11.3l-1.43-1.888a.95.95 0 0 0-.842-.485c-1.725-.033-3.454 0-5.18 0-.37 0-.813-.086-1.094.191a15.626 15.626 0 0 0-1.174 1.5L3.353 14.6a.476.476 0 0 0 .332.8h1.13l-.469-.469.01 8.384a.476.476 0 0 0 .469.469h12.423a.476.476 0 0 0 .469-.469.476.476 0 0 0-.469-.469H9.577a.47.47 0 0 0 0 .939h7.671l-.469-.469.469-.469H4.825l.469.469-.01-8.384a.476.476 0 0 0-.469-.469h-1.13l.332.8L8.36 9.728l-.332.137h6.144l-.405-.233 4.287 5.636.405-.707h-1.211a.477.477 0 0 0-.469.469v2.37l.469-.469h-3.7c-.3 0-.518-.018-.729.235a12.5 12.5 0 0 0-.9 1.455l-1.676 2.721-1.071 1.74c-.318.518.494.988.811.474z" transform="translate(-1.637 -4.509)" style="fill:#333;stroke:#333;stroke-width:.5px"/>
            </g>
            <g data-name="组 13564">
                <path data-name="路径 11624" d="M26.023 25.107h-5.78a3.946 3.946 0 0 0-1.132.017c-.263.089-.391.4-.528.617l-1.864 3.026-1.534 2.491a.473.473 0 0 0 .405.706q5.35 0 10.7.009l3.027.009a.474.474 0 0 0 .405-.706l-3.294-5.936c-.293-.529-1.1-.055-.811.474l3.294 5.936.405-.707q-5.548-.016-11.1-.018H15.59l.406.707 3.645-5.918-.405.232h6.787a.47.47 0 0 0 0-.939z" transform="translate(-7.65 -12.685)" style="fill:#333;stroke:#333;stroke-width:.5px"/>
            </g>
        </g>
    </g>
    <path data-name="矩形 6913" style="fill:none" d="M0 0h24v24H0z"/>
</svg>
