<svg width="24" height="24" viewBox="0 0 24 24" fill="none" xmlns="http://www.w3.org/2000/svg">
<g clip-path="url(#clip0_2563_1647)">
<path d="M16.2272 5.44503C16.3281 5.06038 16.3188 4.65512 16.2004 4.2755C16.082 3.89588 15.8592 3.55719 15.5576 3.29808C15.2559 3.03897 14.8875 2.86988 14.4944 2.81011C14.1012 2.75033 13.6992 2.80228 13.3342 2.96003L14.0342 3.24303C13.9539 2.74389 13.6984 2.28967 13.3136 1.9618C12.9288 1.63393 12.4398 1.45386 11.9342 1.45386C11.4286 1.45386 10.9396 1.63393 10.5548 1.9618C10.17 2.28967 9.91449 2.74389 9.83419 3.24303L10.5342 2.96003C10.1686 2.79875 9.76489 2.74403 9.36956 2.80216C8.97423 2.86029 8.60336 3.02891 8.29967 3.28861C7.99599 3.5483 7.77183 3.88849 7.65304 4.27001C7.53424 4.65152 7.52563 5.05883 7.62819 5.44503C7.6568 5.54447 7.71672 5.63204 7.79904 5.69474C7.88137 5.75743 7.98172 5.7919 8.08519 5.79303H15.7702C15.892 5.78743 16.007 5.7351 16.0912 5.64691C16.1754 5.55872 16.2224 5.44147 16.2224 5.31953C16.2224 5.19758 16.1754 5.08033 16.0912 4.99215C16.007 4.90396 15.892 4.85163 15.7702 4.84603H8.08519L8.54119 5.19403C8.34119 4.35903 9.14119 3.39403 10.0412 3.77903C10.1043 3.81522 10.1747 3.83661 10.2473 3.84158C10.3198 3.84654 10.3926 3.83496 10.46 3.8077C10.5274 3.78045 10.5878 3.73823 10.6365 3.68424C10.6852 3.63024 10.721 3.56589 10.7412 3.49603C10.7608 3.19388 10.8946 2.91052 11.1156 2.70346C11.3365 2.49641 11.6279 2.38119 11.9307 2.38119C12.2335 2.38119 12.5249 2.49641 12.7458 2.70346C12.9667 2.91052 13.1006 3.19388 13.1202 3.49603C13.1404 3.56589 13.1762 3.63024 13.2249 3.68424C13.2736 3.73823 13.334 3.78045 13.4014 3.8077C13.4688 3.83496 13.5415 3.84654 13.6141 3.84158C13.6866 3.83661 13.7571 3.81522 13.8202 3.77903C14.7202 3.39003 15.5202 4.35903 15.3202 5.19403C15.1722 5.78703 16.0852 6.04003 16.2272 5.44503Z" fill="#333333" stroke="#333333" stroke-width="0.5"/>
<path d="M6.248 4.783H3.514C3.37832 4.78506 3.24878 4.83988 3.15283 4.93583C3.05688 5.03178 3.00206 5.16132 3 5.297V21.547C3.00206 21.6827 3.05688 21.8122 3.15283 21.9082C3.24878 22.0041 3.37832 22.0589 3.514 22.061H20.342C20.4777 22.0589 20.6072 22.0041 20.7032 21.9082C20.7991 21.8122 20.8539 21.6827 20.856 21.547V5.29C20.8539 5.15432 20.7991 5.02478 20.7032 4.92883C20.6072 4.83288 20.4777 4.77806 20.342 4.776H17.734C17.5977 4.776 17.4669 4.83015 17.3705 4.92655C17.2742 5.02294 17.22 5.15368 17.22 5.29C17.22 5.42632 17.2742 5.55706 17.3705 5.65345C17.4669 5.74985 17.5977 5.804 17.734 5.804H20.342L19.828 5.29V21.547L20.342 21.033H3.514L4.028 21.547V5.297L3.514 5.811H6.248C6.38432 5.811 6.51506 5.75685 6.61145 5.66045C6.70785 5.56406 6.762 5.43332 6.762 5.297C6.762 5.16068 6.70785 5.02994 6.61145 4.93355C6.51506 4.83715 6.38432 4.783 6.248 4.783Z" fill="#333333" stroke="#333333" stroke-width="0.5"/>
<path d="M13.0391 14.367H17.1701C17.2849 14.3616 17.3932 14.3122 17.4725 14.229C17.5518 14.1459 17.596 14.0354 17.596 13.9205C17.596 13.8056 17.5518 13.6951 17.4725 13.612C17.3932 13.5288 17.2849 13.4794 17.1701 13.474H13.0391C12.9244 13.4794 12.8161 13.5288 12.7368 13.612C12.6575 13.6951 12.6133 13.8056 12.6133 13.9205C12.6133 14.0354 12.6575 14.1459 12.7368 14.229C12.8161 14.3122 12.9244 14.3616 13.0391 14.367Z" fill="#333333" stroke="#333333" stroke-width="0.5"/>
<path d="M13.0391 16.857H17.1701C17.2849 16.8516 17.3932 16.8021 17.4725 16.719C17.5518 16.6359 17.596 16.5254 17.596 16.4105C17.596 16.2956 17.5518 16.1851 17.4725 16.102C17.3932 16.0188 17.2849 15.9694 17.1701 15.964H13.0391C12.9244 15.9694 12.8161 16.0188 12.7368 16.102C12.6575 16.1851 12.6133 16.2956 12.6133 16.4105C12.6133 16.5254 12.6575 16.6359 12.7368 16.719C12.8161 16.8021 12.9244 16.8516 13.0391 16.857Z" fill="#333333" stroke="#333333" stroke-width="0.5"/>
<path d="M13.0391 11.874H17.1701C17.2849 11.8685 17.3932 11.8191 17.4725 11.736C17.5518 11.6528 17.596 11.5424 17.596 11.4275C17.596 11.3126 17.5518 11.2021 17.4725 11.1189C17.3932 11.0358 17.2849 10.9864 17.1701 10.981H13.0391C12.9244 10.9864 12.8161 11.0358 12.7368 11.1189C12.6575 11.2021 12.6133 11.3126 12.6133 11.4275C12.6133 11.5424 12.6575 11.6528 12.7368 11.736C12.8161 11.8191 12.9244 11.8685 13.0391 11.874Z" fill="#333333" stroke="#333333" stroke-width="0.5"/>
<path d="M11.4022 17.053V15.6351C11.401 15.1936 11.2937 14.7588 11.0894 14.3674C10.8851 13.976 10.5897 13.6395 10.2282 13.386C9.82783 13.1128 9.36127 12.9524 8.87751 12.9216C8.39375 12.8908 7.91063 12.9908 7.47886 13.2112C7.0471 13.4315 6.68261 13.764 6.42366 14.1738C6.16471 14.5836 6.02086 15.0555 6.0072 15.54C5.9932 16.04 6.0072 16.546 6.0072 17.048C6.00875 17.1661 6.05635 17.2789 6.13984 17.3624C6.22333 17.4459 6.33613 17.4935 6.4542 17.495H10.9542C11.069 17.4896 11.1772 17.4402 11.2565 17.3571C11.3358 17.2739 11.3801 17.1634 11.3801 17.0485C11.3801 16.9337 11.3358 16.8232 11.2565 16.74C11.1772 16.6569 11.069 16.6075 10.9542 16.602H6.4542L6.9012 17.049V15.74C6.88846 15.4474 6.94358 15.1557 7.06223 14.8879C7.18089 14.62 7.35987 14.3833 7.5852 14.196C7.86552 13.975 8.20498 13.8417 8.56085 13.8131C8.91672 13.7844 9.27312 13.8616 9.5852 14.035C9.8684 14.1951 10.1039 14.4277 10.2675 14.7089C10.4311 14.9901 10.517 15.3097 10.5162 15.6351V17.053C10.5306 17.1603 10.5835 17.2587 10.665 17.3299C10.7464 17.4011 10.851 17.4404 10.9592 17.4404C11.0674 17.4404 11.172 17.4011 11.2534 17.3299C11.3349 17.2587 11.3878 17.1603 11.4022 17.053Z" fill="#2EB0C1" stroke="#2EB0C1" stroke-width="0.3"/>
<path d="M9 13.5C9.82843 13.5 10.5 12.8284 10.5 12C10.5 11.1716 9.82843 10.5 9 10.5C8.17157 10.5 7.5 11.1716 7.5 12C7.5 12.8284 8.17157 13.5 9 13.5Z" stroke="#2EB0C1"/>
</g>
<defs>
<clipPath id="clip0_2563_1647">
<rect width="24" height="24" fill="white"/>
</clipPath>
</defs>
</svg>
