<svg data-name="组件 444 – 72" xmlns="http://www.w3.org/2000/svg" width="24" height="24" viewBox="0 0 24 24">
    <g data-name="组 13546">
        <g data-name="组 13538">
            <path data-name="路径 11604" d="M24.965 9.215 16.179 6.7a9.1 9.1 0 0 0-1.161-.332 2.517 2.517 0 0 0-.991.2L9 8.011l-2.922.839-.927.266c-.1.029-.49.081-.225.081a.515.515 0 0 0-.508.508v2.413a.515.515 0 0 0 .508.508h19.917a.515.515 0 0 0 .508-.508V9.7a.515.515 0 0 0-.508-.508h-.013a.508.508 0 0 0 0 1.016h.013l-.508-.508v2.413l.508-.508H4.926l.508.508V9.7l-.508.508a4 4 0 0 0 1.007-.265l2.345-.672 5.412-1.547.8-.23c.09-.026.419-.06.481-.137-.04.05-.36-.082-.1.028a5.44 5.44 0 0 0 .64.183l5.093 1.457 4.089 1.17a.509.509 0 0 0 .272-.98z" transform="translate(-2.884 -3.361)" style="stroke-width:.5px;fill:#333;stroke:#333"/>
        </g>
        <g data-name="组 13539">
            <path data-name="路径 11605" d="M11.821 20.229v10.4a.508.508 0 0 0 1.016 0v-10.4a.508.508 0 0 0-1.016 0z" transform="translate(-6.329 -9.586)" style="stroke-width:.5px;fill:#333;stroke:#333"/>
        </g>
        <g data-name="组 13540">
            <path data-name="路径 11606" d="M34.515 20.229v10.4a.508.508 0 0 0 1.016 0v-10.4a.508.508 0 0 0-1.016 0z" transform="translate(-16.889 -9.586)" style="stroke-width:.5px;fill:#333;stroke:#333"/>
        </g>
        <g data-name="组 13543">
            <g data-name="组 13541">
                <path data-name="路径 11607" d="M7.779 16.813v12.371a.508.508 0 0 0 1.016 0V16.813a.508.508 0 0 0-1.016 0z" transform="translate(-4.448 -7.996)" style="stroke-width:.5px;fill:#333;stroke:#333"/>
            </g>
            <g data-name="组 13542">
                <path data-name="路径 11608" d="M38.307 16.813v12.371a.508.508 0 0 0 1.016 0V16.813a.508.508 0 0 0-1.016 0z" transform="translate(-18.653 -7.996)" style="stroke-width:.5px;fill:#333;stroke:#333"/>
            </g>
        </g>
        <path data-name="路径 11609" d="M24.032 23.937a1.6 1.6 0 0 0-1.005-.362H22a.495.495 0 1 1-.028-.983h1.065a.586.586 0 0 1 .551.207.537.537 0 0 0 .5.34l.036-.007a.335.335 0 0 0 .335-.322.822.822 0 0 0-.192-.507 1.646 1.646 0 0 0-1.23-.549h-.022c-.02 0-.048-.016-.05-.035v-.492a.424.424 0 0 0-.449-.382.429.429 0 0 0-.46.389v.479a.046.046 0 0 1-.053.042h-.073a1.336 1.336 0 1 0 .07 2.659h1.057a.495.495 0 1 1-.035.983H22a.568.568 0 0 1-.512-.281.444.444 0 0 0-.471-.265.437.437 0 0 0-.491.422c0 .542.647.966 1.48.966a.045.045 0 0 1 .046.035v.493a.428.428 0 0 0 .415.384h.034a.427.427 0 0 0 .46-.389v-.479a.045.045 0 0 1 .057-.041 1.588 1.588 0 0 0 .7-.168 1.323 1.323 0 0 0 .771-1.163 1.264 1.264 0 0 0-.457-.974z" transform="translate(-10.381 -10.1)" style="fill:#2eb0c1;stroke:#2eb0c1;stroke-width:.5px"/>
        <g data-name="组 13544">
            <path data-name="路径 11610" d="M5.427 40.778h19.665a.508.508 0 0 0 0-1.016H5.427a.508.508 0 0 0 0 1.016z" transform="translate(-3.126 -18.903)" style="stroke-width:.5px;fill:#333;stroke:#333"/>
        </g>
        <g data-name="组 13545">
            <path data-name="路径 11611" d="M24.3 37.542h-12l.508.508a14.1 14.1 0 0 1 0-1.41c.046-.451.328-.6.727-.606.855-.024 1.714 0 2.57 0h6.778c.422 0 .842.015.91.561a12.016 12.016 0 0 1 0 1.455.508.508 0 0 0 1.016 0c0-.484.023-.973 0-1.455a1.614 1.614 0 0 0-1.59-1.577c-.815-.036-1.64 0-2.456 0-2.432 0-4.871-.058-7.3 0a1.628 1.628 0 0 0-1.605 1.133 7.142 7.142 0 0 0-.063 1.9.515.515 0 0 0 .508.508h12a.508.508 0 0 0-.003-1.017z" transform="translate(-6.301 -16.684)" style="stroke-width:.5px;fill:#333;stroke:#333"/>
        </g>
    </g>
    <path data-name="矩形 6905" style="fill:none" d="M0 0h24v24H0z"/>
</svg>
