<svg width="24" height="24" viewBox="0 0 24 24" fill="none" xmlns="http://www.w3.org/2000/svg">
<g clip-path="url(#clip0_741_2020)">
<path d="M11.9969 14.477C11.2955 14.476 10.6182 14.2209 10.0905 13.7588C9.56282 13.2967 9.22047 12.6591 9.12687 11.964C9.10958 11.8338 9.1181 11.7014 9.15197 11.5745C9.18583 11.4476 9.24436 11.3286 9.32423 11.2243C9.40409 11.12 9.50371 11.0325 9.61741 10.9667C9.73111 10.901 9.85665 10.8582 9.98687 10.841C10.1171 10.8237 10.2494 10.8322 10.3763 10.8661C10.5032 10.8999 10.6222 10.9585 10.7265 11.0383C10.8308 11.1182 10.9183 11.2178 10.9841 11.3315C11.0499 11.4452 11.0926 11.5708 11.1099 11.701C11.1397 11.9154 11.2458 12.1118 11.4087 12.2544C11.5716 12.3969 11.7804 12.4759 11.9969 12.477C12.2621 12.477 12.5164 12.5823 12.704 12.7699C12.8915 12.9574 12.9969 13.2118 12.9969 13.477C12.9969 13.7422 12.8915 13.9965 12.704 14.1841C12.5164 14.3716 12.2621 14.477 11.9969 14.477Z" fill="#2EB6C7"/>
<path d="M4.99658 20.999C4.73137 20.999 4.47709 20.8936 4.28955 20.7061C4.10201 20.5185 3.99658 20.2642 3.99658 19.999C3.99658 19.7338 4.10201 19.4794 4.28955 19.2919C4.47709 19.1043 4.73137 18.999 4.99658 18.999H18.9966C19.2618 18.999 19.5161 19.1043 19.7036 19.2919C19.8911 19.4794 19.9966 19.7338 19.9966 19.999C19.9966 20.2642 19.8911 20.5185 19.7036 20.7061C19.5161 20.8936 19.2618 20.999 18.9966 20.999H4.99658ZM6.4458 12.111C6.4458 8.08496 11.0759 3.19697 11.2729 2.99097C11.3665 2.89365 11.4788 2.81631 11.603 2.76355C11.7273 2.71079 11.8606 2.68368 11.9956 2.68396C12.1306 2.68368 12.2649 2.71079 12.3892 2.76355C12.5134 2.81631 12.6257 2.89365 12.7192 2.99097C12.9192 3.19097 17.5425 8.06796 17.5425 12.111C17.5409 13.5816 16.9564 14.9916 15.9165 16.0315C14.8766 17.0714 13.4663 17.6564 11.9956 17.658C10.5249 17.6556 9.11533 17.0701 8.07568 16.0299C7.03604 14.9897 6.45129 13.5797 6.44971 12.109L6.4458 12.111ZM8.4458 12.111C8.44686 13.0519 8.82148 13.954 9.48682 14.6194C10.1522 15.2847 11.0537 15.659 11.9946 15.66C12.9356 15.659 13.8381 15.2847 14.5034 14.6194C15.1688 13.954 15.5424 13.0519 15.5435 12.111C15.5435 9.86696 13.3976 6.84496 11.9966 5.18396C10.5966 6.84996 8.45068 9.87801 8.45068 12.109L8.4458 12.111Z" fill="#555555"/>
</g>
<defs>
<clipPath id="clip0_741_2020">
<rect width="24" height="24" fill="white"/>
</clipPath>
</defs>
</svg>
