<svg width="24" height="24" viewBox="0 0 24 24" fill="none" xmlns="http://www.w3.org/2000/svg">
<g clip-path="url(#clip0_4001_9263)">
<path d="M14.6411 4.68213C14.6411 4.1517 14.852 3.64302 15.2271 3.26794C15.6021 2.89287 16.1107 2.68213 16.6411 2.68213C17.1715 2.68213 17.6801 2.89287 18.0552 3.26794C18.4302 3.64302 18.6411 4.1517 18.6411 4.68213C18.6411 5.21256 18.4302 5.72124 18.0552 6.09631C17.6801 6.47139 17.1715 6.68213 16.6411 6.68213C16.1107 6.68213 15.6021 6.47139 15.2271 6.09631C14.852 5.72124 14.6411 5.21256 14.6411 4.68213ZM3.9165 4.68213C3.9165 4.1517 4.12737 3.64302 4.50244 3.26794C4.87751 2.89287 5.38607 2.68213 5.9165 2.68213C6.44694 2.68213 6.95647 2.89287 7.33154 3.26794C7.70662 3.64302 7.9165 4.1517 7.9165 4.68213C7.9165 5.21256 7.70662 5.72124 7.33154 6.09631C6.95647 6.47139 6.44694 6.68213 5.9165 6.68213C5.38624 6.68186 4.87827 6.47099 4.50342 6.09595C4.12856 5.7209 3.9165 5.21239 3.9165 4.68213Z" fill="#2EB6C7"/>
<path d="M15.6406 21.5V17.973H12.3701C12.2032 17.9728 12.0391 17.9307 11.8926 17.8507C11.746 17.7707 11.6217 17.6553 11.5312 17.515C11.4406 17.3744 11.3863 17.2132 11.374 17.0464C11.3618 16.8795 11.3918 16.7123 11.4609 16.5599L12.8125 13.5709V11.332C12.8141 10.3175 13.2172 9.34504 13.9346 8.62769C14.6519 7.91033 15.6252 7.50659 16.6396 7.505C17.5208 7.50752 18.374 7.81296 19.0566 8.37012C19.7393 8.92727 20.2097 9.70219 20.3887 10.5649C20.4408 10.8183 20.4661 11.0763 20.4658 11.335V13.569L21.8154 16.5599C21.8844 16.7124 21.9138 16.8797 21.9014 17.0465C21.889 17.2134 21.8349 17.3745 21.7441 17.515C21.6534 17.655 21.5293 17.77 21.3828 17.8496C21.2363 17.9293 21.0721 17.9709 20.9053 17.9709H17.6387V21.4979C17.6387 21.7631 17.5332 22.0175 17.3457 22.2051C17.1582 22.3926 16.9039 22.4979 16.6387 22.4979C16.3741 22.4974 16.1206 22.3921 15.9336 22.2051C15.7465 22.018 15.6412 21.7645 15.6406 21.5ZM16.6465 15.973H19.3564L18.5566 14.197C18.497 14.0679 18.4658 13.9272 18.4668 13.785V11.335C18.4666 11.2117 18.4547 11.0888 18.4297 10.968C18.3449 10.5559 18.1207 10.1855 17.7949 9.91919C17.4691 9.65292 17.0614 9.507 16.6406 9.50598C16.1563 9.50677 15.6921 9.69954 15.3496 10.042C15.0072 10.3844 14.8143 10.8487 14.8135 11.333V13.785C14.8131 13.9271 14.7829 14.0675 14.7246 14.197L13.9238 15.973H16.6416H16.6465ZM4.91504 21.5V17.9709H4.25391C3.68006 17.9709 3.12959 17.7431 2.72363 17.3375C2.31767 16.9319 2.0894 16.3818 2.08887 15.808V11.332C2.08966 10.3174 2.49295 9.34441 3.20996 8.62646C3.92697 7.90852 4.89939 7.50407 5.91406 7.50195C6.92916 7.50328 7.90262 7.9073 8.62012 8.62537C9.33762 9.34343 9.74068 10.3169 9.74121 11.332V15.8049C9.74095 16.3785 9.51301 16.9285 9.10742 17.3341C8.70184 17.7397 8.15171 17.9678 7.57812 17.968H6.91504V21.4969C6.91504 21.7622 6.80961 22.0166 6.62207 22.2041C6.43453 22.3916 6.18026 22.4969 5.91504 22.4969C5.65086 22.4962 5.39774 22.3909 5.21094 22.2041C5.02414 22.0173 4.91876 21.7642 4.91797 21.5H4.91504ZM4.08887 11.335V15.808C4.08873 15.8296 4.09328 15.8509 4.10156 15.8708C4.10984 15.8908 4.12231 15.9088 4.1377 15.924C4.15309 15.9391 4.17134 15.9509 4.19141 15.9589C4.21147 15.9668 4.23234 15.9705 4.25391 15.97H7.57812C7.59965 15.9704 7.6216 15.9665 7.6416 15.9585C7.6616 15.9505 7.67897 15.9387 7.69434 15.9236C7.7097 15.9085 7.72214 15.8906 7.73047 15.8707C7.7388 15.8509 7.74317 15.8295 7.74316 15.808V11.332C7.74263 10.8471 7.54992 10.3822 7.20703 10.0393C6.86414 9.69642 6.39898 9.50346 5.91406 9.50293C5.43028 9.50504 4.96741 9.69876 4.62598 10.0415C4.28454 10.3843 4.09206 10.8482 4.0918 11.332L4.08887 11.335Z" fill="#555555"/>
</g>
<defs>
<clipPath id="clip0_4001_9263">
<rect width="24" height="24" fill="white"/>
</clipPath>
</defs>
</svg>
