<svg id="组件_390_1" data-name="组件 390 – 1" xmlns="http://www.w3.org/2000/svg" width="24" height="24" viewBox="0 0 24 24">
    <defs>
        <style>
            .cls-1{fill:#333}
        </style>
    </defs>
    <g id="组_15121" data-name="组 15121" transform="translate(78.582 133.913)">
        <g id="组_15119" data-name="组 15119">
            <g id="组_15115" data-name="组 15115">
                <path id="路径_13065" data-name="路径 13065" class="cls-1" d="m-70.776-112.5.627-1.054-.54.309a4.157 4.157 0 0 0 1.808-.608 2.678 2.678 0 0 0 .855-.872l.421-.708.39-.657a.632.632 0 0 0-.224-.855.636.636 0 0 0-.855.224l-.49.824-.289.486-.055.092a.747.747 0 0 0-.062.1c-.03.077.1-.105.005-.005l-.087.1c-.03.035-.094.088-.142.131-.065.059-.023.068.008-.005a.38.38 0 0 1-.07.05 2.782 2.782 0 0 1-.365.206c-.03.015-.062.027-.092.043-.08.04.147-.056.02-.01l-.144.053c-.109.038-.22.071-.332.1-.14.036-.281.06-.424.085-.064.011.209-.027.127-.017a.7.7 0 0 0-.382.134.87.87 0 0 0-.206.251l-.581.979a.631.631 0 0 0 .224.855.637.637 0 0 0 .855-.224z"/>
            </g>
            <g id="组_15116" data-name="组 15116">
                <path id="路径_13066" data-name="路径 13066" class="cls-1" d="m-69.279-123.527-2.254.313a4.435 4.435 0 0 0-1.064.253 2.514 2.514 0 0 0-1.219 1.123c-.688 1.146-1.366 2.3-2.049 3.447l-1.262 2.122a.626.626 0 0 0 1.08.631l1.936-3.257 1.213-2.04a2.645 2.645 0 0 1 .506-.728 2.07 2.07 0 0 1 1.012-.32l2.433-.339a.629.629 0 0 0 .437-.769.641.641 0 0 0-.769-.436z"/>
            </g>
            <g id="组_15117" data-name="组 15117">
                <path id="路径_13067" data-name="路径 13067" class="cls-1" d="m-72.3-119.083 1.905-.485 1.513-.385.643-.163.262-.067.1-.026c.16-.04-.006 0-.007-.011a.623.623 0 0 1 .065 0c.047.007.1.022-.074-.014.123.025-.041-.029-.025-.021.084.041.051.024-.019-.025.135.094-.029.016 0-.014a1.08 1.08 0 0 1 .063.11c-.013.007-.05-.168-.01-.006.01.04.018.082.029.122.023.082.011-.029-.007-.054a.218.218 0 0 1 .006.077v.16c0 .026-.02.185 0 .082s-.013.054-.02.084c-.013.056-.03.111-.047.167-.008.028-.02.055-.029.083.006-.02.064-.122.011-.027-.025.045-.046.093-.073.138s-.056.088-.084.133c.071-.114-.008.007-.047.048s-.088.085-.134.126c.09-.08 0-.007-.046.024a1.191 1.191 0 0 1-.15.079c.138-.058-.1.015-.142.026l-.945.24a.919.919 0 0 0-.658.393c-.121.192-.232.391-.348.586l-.2.329-.059.1-.062.1c-.009.014-.093.13-.049.074a2.2 2.2 0 0 1-.176.185c-.081.083-.034.032-.008.013a1.237 1.237 0 0 1-.114.074c-.022.013-.046.024-.068.038-.13.078.066-.019-.011 0s-.137.034-.2.054c.125-.038.023 0-.055 0-.055 0-.114-.012-.169-.008.158-.012.022 0-.05-.015a1.445 1.445 0 0 1-.143-.04c-.006 0-.141-.053-.142-.052s.158.077.017 0c-.051-.026-.1-.053-.153-.082a.635.635 0 0 0-.855.224.635.635 0 0 0 .224.855 2.242 2.242 0 0 0 2.149.147 4.662 4.662 0 0 0 1.575-1.995l-.374.287a3.976 3.976 0 0 0 2.347-1.022 2.307 2.307 0 0 0 .353-2.383 1.163 1.163 0 0 0-.993-.654 3.571 3.571 0 0 0-.947.19l-2.3.584-1.6.408a.634.634 0 0 0-.437.769.635.635 0 0 0 .769.437z"/>
            </g>
            <g id="组_15118" data-name="组 15118">
                <path id="路径_13068" data-name="路径 13068" class="cls-1" d="m-70.245-119.8 6.477-10.894-.855.225 7.731 4.6-.224-.855-7.313 12.3.855-.224-5.973-3.552a.625.625 0 0 0-.631 1.079l5.974 3.552a.634.634 0 0 0 .855-.224l7.312-12.3a.634.634 0 0 0-.224-.855l-7.731-4.6a.635.635 0 0 0-.855.224l-6.477 10.894a.625.625 0 0 0 1.079.631z"/>
            </g>
        </g>
        <g id="组_15120" data-name="组 15120">
            <path id="路径_13069" data-name="路径 13069" d="M-63.234-124.114a1.691 1.691 0 0 0-.886.712l-.568.931a.567.567 0 0 1-.752.241.568.568 0 0 1-.156-.759l.019-.029.571-.938a.624.624 0 0 1 .493-.386.57.57 0 0 0 .586-.267c0-.013.01-.025.014-.037a.357.357 0 0 0-.108-.482.874.874 0 0 0-.567-.106 1.75 1.75 0 0 0-1.179.813l-.012.02c-.012.017-.041.034-.059.026l-.448-.272a.451.451 0 0 0-.6.195.456.456 0 0 0 .1.634l.435.264a.05.05 0 0 1 .009.071 2.469 2.469 0 0 0-.043.066 1.506 1.506 0 0 0 .436 2.016 1.505 1.505 0 0 0 2.021-.605l.567-.931.016-.029a.568.568 0 0 1 .737-.211.562.562 0 0 1 .137.787l-.567.929a.6.6 0 0 1-.538.308.474.474 0 0 0-.5.281.465.465 0 0 0 .111.68c.492.3 1.235-.053 1.7-.809a.048.048 0 0 1 .057-.022l.448.272a.453.453 0 0 0 .578-.164l.017-.031a.454.454 0 0 0-.1-.634l-.435-.265a.048.048 0 0 1-.006-.074 1.707 1.707 0 0 0 .236-.732A1.408 1.408 0 0 0-62.1-124a1.342 1.342 0 0 0-1.134-.114z" style="fill:#2eb0c1"/>
        </g>
    </g>
    <path id="矩形_7754" data-name="矩形 7754" style="fill:none" d="M0 0h24v24H0z"/>
</svg>
