<svg id="组件_388" data-name="组件 388" xmlns="http://www.w3.org/2000/svg" width="24" height="24" viewBox="0 0 24 24">
    <defs>
        <style>
            .cls-1{fill:#333}
        </style>
    </defs>
    <g id="组_15132" data-name="组 15132" transform="translate(77.381 25.665)">
        <g id="组_15128" data-name="组 15128">
            <path id="路径_13073" data-name="路径 13073" class="cls-1" d="M-66.636-10.318h-7.945l.54.941 5.854-8.782-.54.31h7.946l-.54-.941-5.854 8.782c-.448.671.634 1.3 1.079.631l5.854-8.782a.629.629 0 0 0-.539-.94c-2.6 0-5.22-.1-7.819 0-.774.028-1.244 1.176-1.625 1.747l-2.908 4.362-1.988 2.982a.629.629 0 0 0 .54.94h7.945a.625.625 0 0 0 0-1.25z"/>
        </g>
        <g id="组_15129" data-name="组 15129">
            <path id="路径_13074" data-name="路径 13074" class="cls-1" d="M-74.28-5.722h7.291c.477 0 .888.073 1.216-.343.9-1.14 1.644-2.454 2.451-3.662 1.038-1.553 2.081-3.1 3.108-4.663a1.771 1.771 0 0 0 .305-1.376q-.122-1.355-.247-2.708a.631.631 0 0 0-1.165-.316l-5.854 8.782.539-.31h-7.945a.629.629 0 0 0-.625.625l.3 3.346c.072.8 1.323.8 1.25 0l-.3-3.346-.625.625h3.553c1.412 0 2.871.109 4.279 0 .774-.059 1.223-1.165 1.612-1.747l2.887-4.331 2.008-3.013-1.164-.315c.091.988.183 1.975.27 2.964.015.176-.039.481.072.222.136-.319 0-.065-.043-.017a7.623 7.623 0 0 0-.535.811q-2.007 3.026-4.031 6.038l-1.2 1.793.54-.309h-7.947a.625.625 0 0 0 0 1.25z"/>
        </g>
        <path id="路径_13075" data-name="路径 13075" d="M-66.1-14.143a.891.891 0 0 0-.805-.372h-1.055c-.307.021-.428-.211-.271-.5a1.192 1.192 0 0 1 .862-.511h1.095c.237-.037.405.049.436.213 0 .2.017.349.3.349a.284.284 0 0 0 .042-.008.75.75 0 0 0 .548-.331.743.743 0 0 0 .121-.521.853.853 0 0 0-.919-.565h-.022c-.02 0-.039-.016-.03-.035l.31-.508c.121-.236.018-.415-.22-.392a.921.921 0 0 0-.719.4l-.3.492a.1.1 0 0 1-.081.043h-.075a3.158 3.158 0 0 0-2.288 1.375c-.439.793-.128 1.4.681 1.364h1.09c.284 0 .389.222.238.5a1.145 1.145 0 0 1-.894.51H-69.1c-.228.007-.354-.11-.349-.29.021-.082.031-.272-.317-.272a.951.951 0 0 0-.771.434c-.342.557.056.993.913.993.025 0 .034.018.025.036l-.31.506c-.115.225-.027.4.185.4h.035a.922.922 0 0 0 .72-.4l.3-.492a.093.093 0 0 1 .085-.043 2.386 2.386 0 0 0 .829-.173 3.182 3.182 0 0 0 1.527-1.2.979.979 0 0 0 .128-1.002z" style="fill:#2eb0c1"/>
        <g id="组_15130" data-name="组 15130">
            <path id="路径_13076" data-name="路径 13076" class="cls-1" d="m-67.334-9.6.255 2.677.037.385a.638.638 0 0 0 .625.625.632.632 0 0 0 .625-.625l-.255-2.677-.037-.385a.638.638 0 0 0-.625-.625.632.632 0 0 0-.625.625z"/>
        </g>
        <g id="组_15131" data-name="组 15131">
            <path id="路径_13077" data-name="路径 13077" class="cls-1" d="M-58.938-14.279a9.374 9.374 0 0 0 1.186-.023 3.156 3.156 0 0 0 1.811-1.233 3.787 3.787 0 0 0 .112-4.48c-1.2-1.7-3.061-1.593-4.886-1.593h-6.912c-1.486 0-3.01-.1-4.493.01a3.8 3.8 0 0 0-3.441 3.076 3.827 3.827 0 0 0 2.484 4.235c.746.3 1.071-.909.332-1.206a2.538 2.538 0 0 1-1.155-3.822 2.634 2.634 0 0 1 2.208-1.043c1.294-.015 2.588 0 3.882 0 2.954 0 5.94-.129 8.892 0a2.549 2.549 0 0 1 2.518 2.792 2.693 2.693 0 0 1-1.384 2.014 4.619 4.619 0 0 1-1.153.023.625.625 0 0 0 0 1.25z"/>
        </g>
    </g>
    <path id="矩形_7756" data-name="矩形 7756" style="fill:none" d="M0 0h24v24H0z"/>
</svg>
