<svg width="32" height="32" viewBox="0 0 32 32" fill="none" xmlns="http://www.w3.org/2000/svg">
<rect width="32" height="32" rx="3" fill="#5AB4C5"/>
<path d="M14.3085 23.4948C14.2478 23.4948 14.1872 23.4887 14.1277 23.4768C11.8235 23.0027 9.74956 21.7579 8.24762 19.9473C8.07543 19.7383 7.98837 19.4721 8.00386 19.2018C8.01934 18.9315 8.13622 18.677 8.33114 18.4891C8.42498 18.4002 8.53615 18.3316 8.6577 18.2876C8.77925 18.2436 8.90856 18.2251 9.03757 18.2334C9.16657 18.2416 9.2925 18.2764 9.40746 18.3355C9.52243 18.3946 9.62397 18.4768 9.70574 18.5769C10.9256 20.048 12.6101 21.0598 14.4819 21.4456C14.7432 21.5056 14.9708 21.665 15.1165 21.8901C15.2622 22.1151 15.3144 22.388 15.2623 22.651C15.2272 22.881 15.1126 23.0915 14.9383 23.2457C14.764 23.3999 14.5411 23.488 14.3085 23.4948Z" fill="white"/>
<path d="M14.3052 19.2419C14.0387 19.2341 13.7862 19.121 13.6031 18.9273C13.4199 18.7337 13.3211 18.4753 13.3282 18.2088V9.5288C13.322 9.39667 13.3427 9.26467 13.3891 9.14077C13.4354 9.01688 13.5063 8.90366 13.5977 8.80798C13.689 8.71231 13.7988 8.63614 13.9204 8.58411C14.042 8.53207 14.1729 8.50524 14.3052 8.50524C14.4375 8.50524 14.5683 8.53207 14.69 8.58411C14.8116 8.63614 14.9213 8.71231 15.0127 8.80798C15.104 8.90366 15.175 9.01688 15.2213 9.14077C15.2676 9.26467 15.2883 9.39667 15.2822 9.5288V18.2088C15.2893 18.4753 15.1904 18.7337 15.0073 18.9273C14.8241 19.121 14.5716 19.2341 14.3052 19.2419Z" fill="white"/>
<path d="M19.519 23.5C19.1394 23.498 18.7714 23.3684 18.4743 23.132C18.2463 22.9494 18.0625 22.7176 17.9367 22.4539C17.811 22.1902 17.7464 21.9015 17.7479 21.6094V9.52356C17.7417 9.39143 17.7625 9.25943 17.8088 9.13553C17.8551 9.01164 17.9261 8.89842 18.0174 8.80274C18.1088 8.70707 18.2185 8.6309 18.3401 8.57886C18.4617 8.52683 18.5926 8.5 18.7249 8.5C18.8572 8.5 18.9881 8.52683 19.1097 8.57886C19.2313 8.6309 19.3411 8.70707 19.4324 8.80274C19.5237 8.89842 19.5947 9.01164 19.6411 9.13553C19.6874 9.25943 19.7081 9.39143 19.7019 9.52356V21.3567C21.113 20.8432 22.3622 19.9638 23.3213 18.8084C23.4032 18.7084 23.5048 18.6264 23.6197 18.5673C23.7347 18.5083 23.8606 18.4736 23.9895 18.4654C24.1185 18.4572 24.2478 18.4756 24.3693 18.5195C24.4908 18.5634 24.602 18.6319 24.6959 18.7207C24.891 18.9087 25.0079 19.1635 25.0232 19.4341C25.0385 19.7046 24.951 19.971 24.7784 20.1798C23.5319 21.6817 21.8877 22.8023 20.034 23.4133C19.8679 23.469 19.6941 23.4982 19.519 23.5Z" fill="#D9D9D9"/>
<path d="M10.5568 14.2257C10.5428 14.4753 10.4559 14.7152 10.307 14.916C10.158 15.1168 9.95354 15.2695 9.71875 15.3554C9.48396 15.4412 9.22916 15.4564 8.98585 15.399C8.74253 15.3417 8.52134 15.2143 8.34962 15.0326C8.1779 14.8509 8.06317 14.6229 8.01959 14.3768C7.97601 14.1306 8.00549 13.8771 8.10441 13.6475C8.20333 13.4179 8.36734 13.2223 8.57618 13.0849C8.78502 12.9475 9.02953 12.8743 9.27952 12.8743C9.62796 12.8845 9.95811 13.0326 10.1976 13.2859C10.437 13.5392 10.5662 13.8772 10.5568 14.2257Z" fill="white"/>
<path d="M25.0283 14.3559C25.0142 14.6054 24.9274 14.8454 24.7784 15.0462C24.6295 15.247 24.425 15.3997 24.1902 15.4856C23.9554 15.5714 23.7006 15.5866 23.4573 15.5292C23.214 15.4719 22.9928 15.3445 22.8211 15.1628C22.6493 14.9811 22.5346 14.7531 22.491 14.507C22.4474 14.2608 22.4769 14.0073 22.5758 13.7777C22.6748 13.5481 22.8388 13.3525 23.0476 13.2151C23.2565 13.0777 23.501 13.0045 23.751 13.0045C24.0994 13.0147 24.4296 13.1628 24.669 13.4161C24.9085 13.6694 25.0377 14.0074 25.0283 14.3559Z" fill="#D9D9D9"/>
</svg>
