<svg width="24" height="24" viewBox="0 0 24 24" fill="none" xmlns="http://www.w3.org/2000/svg">
<g clip-path="url(#clip0_2192_6745)">
<path d="M2.83474 7.75881C2.62648 7.761 2.42499 7.6852 2.2698 7.54629C2.11461 7.40738 2.01717 7.21544 1.99636 7.0082C1.97555 6.80097 2.03303 6.59344 2.1575 6.42645C2.28197 6.25945 2.46418 6.14509 2.66873 6.10583L20.5095 2.48681C20.7268 2.44288 20.9528 2.48698 21.1375 2.60943C21.3222 2.73188 21.4508 2.92266 21.4949 3.13983C21.5168 3.24731 21.5173 3.35807 21.4964 3.46575C21.4754 3.57344 21.4334 3.67595 21.3728 3.76742C21.3123 3.85889 21.2343 3.93754 21.1433 3.99886C21.0524 4.06019 20.9501 4.10298 20.8426 4.12481L3.00173 7.74383C2.94669 7.75426 2.89077 7.75927 2.83474 7.75881Z" fill="#333333"/>
<path d="M19.5537 22.366H5.34375L4.56104 7.16602H20.5527L19.5537 22.366ZM6.93066 20.695H17.9888L18.77 8.83203H6.32275L6.93066 20.695Z" fill="#333333"/>
<path d="M9.25804 20.434C9.04799 20.4346 8.84528 20.356 8.69066 20.2138C8.53605 20.0717 8.44093 19.8764 8.42406 19.667L7.66088 10.416C7.64317 10.1954 7.71395 9.97679 7.85717 9.80809C8.00038 9.63938 8.2045 9.53432 8.42504 9.51597C8.64359 9.4965 8.86087 9.56436 9.02953 9.70472C9.19818 9.84508 9.30439 10.0465 9.32494 10.265V10.28L10.0871 19.533C10.1048 19.7537 10.0343 19.9725 9.89086 20.1412C9.74743 20.31 9.54272 20.4149 9.32201 20.433C9.30071 20.4344 9.27938 20.4347 9.25804 20.434Z" fill="#2EB6C7"/>
<path d="M15.4211 20.4351H15.3513C15.1306 20.417 14.9264 20.312 14.7829 20.1433C14.6395 19.9746 14.5685 19.7558 14.5862 19.5351L15.3484 10.282C15.3709 10.0646 15.478 9.86459 15.6462 9.72495C15.8145 9.58531 16.0304 9.51712 16.2483 9.53504C16.4662 9.55296 16.6686 9.65556 16.8117 9.82081C16.9549 9.98606 17.0277 10.2008 17.0144 10.4191L16.2522 19.67C16.2346 19.8785 16.1399 20.0727 15.9861 20.2144C15.8322 20.356 15.6303 20.4348 15.4211 20.4351Z" fill="#333333"/>
<path d="M12.562 20.4342C12.4524 20.4341 12.3434 20.4124 12.2422 20.3703C12.1409 20.3282 12.0491 20.2666 11.9717 20.1889C11.8942 20.1113 11.8329 20.0192 11.791 19.9178C11.7492 19.8165 11.7279 19.7079 11.728 19.5982V10.3472C11.728 10.1256 11.816 9.91313 11.9727 9.75644C12.1293 9.59975 12.3419 9.51172 12.5635 9.51172C12.7851 9.51172 12.9976 9.59975 13.1543 9.75644C13.311 9.91313 13.3989 10.1256 13.3989 10.3472V19.5982C13.3989 19.7081 13.377 19.8169 13.335 19.9184C13.2929 20.0199 13.2315 20.1121 13.1538 20.1897C13.0761 20.2673 12.9834 20.3289 12.8818 20.3709C12.7803 20.4128 12.6719 20.4343 12.562 20.4342Z" fill="#333333"/>
<path d="M8.04199 6.694L8.4834 2.61499L13.7573 1.479L16.1621 5.08798L8.04199 6.694ZM10.0151 3.99399L9.94922 4.61398L13.3853 3.935L12.998 3.35001L10.0151 3.99399Z" fill="#333333"/>
</g>
<defs>
<clipPath id="clip0_2192_6745">
<rect width="24" height="24" fill="white"/>
</clipPath>
</defs>
</svg>
