<svg width="24" height="24" viewBox="0 0 24 24" fill="none" xmlns="http://www.w3.org/2000/svg">
<g clip-path="url(#clip0_2192_6743)">
<path d="M16.6831 21.0234H12.2954V12.2974H16.6831V21.0234ZM13.9712 19.3464H15.0063V13.9734H13.9712V19.3464Z" fill="#2EB6C7"/>
<path d="M22.1699 9.66216C22.0583 9.66211 21.9476 9.63969 21.8447 9.59618L7.61281 3.61217C7.51109 3.56945 7.41891 3.5071 7.34133 3.42867C7.26374 3.35023 7.20227 3.25725 7.16066 3.15508C7.11905 3.0529 7.09794 2.94353 7.09865 2.83321C7.09936 2.72289 7.12213 2.61379 7.16506 2.51216C7.20778 2.41045 7.26973 2.31817 7.34816 2.24059C7.42659 2.163 7.51991 2.10163 7.62209 2.06002C7.72426 2.0184 7.83354 1.99735 7.94387 1.99806C8.05419 1.99878 8.16304 2.02124 8.26467 2.06417L22.4966 8.04717C22.5983 8.08989 22.691 8.15224 22.7686 8.23067C22.8462 8.3091 22.9071 8.40209 22.9487 8.50426C22.9904 8.60643 23.0115 8.71581 23.0108 8.82613C23.01 8.93645 22.9878 9.04554 22.9448 9.14717C22.881 9.29999 22.7732 9.43045 22.6353 9.52211C22.4973 9.61377 22.3356 9.6625 22.1699 9.66216Z" fill="#333333"/>
<path d="M1.81781 12.759C1.65058 12.7577 1.48793 12.7051 1.3515 12.6083C1.21508 12.5116 1.11174 12.3754 1.05511 12.218C0.977067 12.0116 0.98284 11.7829 1.07123 11.5807C1.15962 11.3785 1.32326 11.2189 1.52777 11.136L9.45697 8.04304C9.55806 8.00452 9.66575 7.98655 9.77386 7.99021C9.88198 7.99387 9.98811 8.01908 10.0864 8.06434C10.1846 8.1096 10.2731 8.17403 10.3461 8.25382C10.4192 8.33362 10.4757 8.42717 10.5121 8.52903C10.5896 8.73545 10.5831 8.96396 10.4946 9.16587C10.406 9.36778 10.2423 9.52712 10.038 9.61002L2.10883 12.704C2.01594 12.7398 1.91733 12.7584 1.81781 12.759Z" fill="#333333"/>
<path d="M21.8428 21.0232H8.896V3.59616C8.9035 3.37879 8.99494 3.17282 9.15137 3.0217C9.3078 2.87058 9.51687 2.78613 9.73438 2.78613C9.95188 2.78613 10.161 2.87058 10.3174 3.0217C10.4738 3.17282 10.5657 3.37879 10.5732 3.59616V19.3462H20.165V8.33716C20.1725 8.11979 20.264 7.91381 20.4204 7.7627C20.5768 7.61158 20.7859 7.52713 21.0034 7.52713C21.2209 7.52713 21.43 7.61158 21.5864 7.7627C21.7429 7.91381 21.8343 8.11979 21.8418 8.33716L21.8428 21.0232Z" fill="#333333"/>
<path d="M9.97168 21.024H2.92871L2.90771 11.195C2.90771 10.9726 2.99619 10.7594 3.15332 10.6021C3.31045 10.4447 3.52375 10.3562 3.74609 10.356C3.96853 10.3562 4.18158 10.4447 4.33887 10.602C4.49615 10.7593 4.5847 10.9725 4.58496 11.195L4.60303 19.35H9.96777C10.0801 19.3461 10.192 19.3648 10.2969 19.4051C10.4018 19.4454 10.4973 19.5064 10.5781 19.5845C10.6589 19.6625 10.7232 19.7561 10.7671 19.8595C10.811 19.9629 10.834 20.0741 10.834 20.1865C10.834 20.2988 10.811 20.41 10.7671 20.5134C10.7232 20.6169 10.6589 20.7104 10.5781 20.7885C10.4973 20.8665 10.4018 20.9275 10.2969 20.9678C10.192 21.0081 10.0801 21.0268 9.96777 21.0229L9.97168 21.024Z" fill="#333333"/>
</g>
<defs>
<clipPath id="clip0_2192_6743">
<rect width="24" height="24" fill="white"/>
</clipPath>
</defs>
</svg>
