<svg width="24" height="24" viewBox="0 0 24 24" fill="none" xmlns="http://www.w3.org/2000/svg">
<g clip-path="url(#clip0_2192_6749)">
<path d="M18.019 6.58417H5.57568C5.34813 6.58417 5.13014 6.49376 4.96924 6.33286C4.80833 6.17195 4.71777 5.95372 4.71777 5.72617C4.71777 5.49861 4.80833 5.28038 4.96924 5.11948C5.13014 4.95857 5.34813 4.86816 5.57568 4.86816H18.019C18.2466 4.86816 18.4646 4.95857 18.6255 5.11948C18.7864 5.28038 18.877 5.49861 18.877 5.72617C18.877 5.95372 18.7864 6.17195 18.6255 6.33286C18.4646 6.49376 18.2466 6.58417 18.019 6.58417Z" fill="#2EB6C7"/>
<path d="M16.4036 17.383H6.7127C6.17971 17.3889 5.65136 17.2847 5.16046 17.077C4.66956 16.8693 4.22664 16.5626 3.85968 16.176C3.55806 15.8576 3.32624 15.4795 3.1795 15.0662C3.03276 14.6528 2.97432 14.2134 3.00762 13.776L3.78985 4.11402C3.90992 3.22825 4.35498 2.41882 5.03887 1.84324C5.72277 1.26765 6.59629 0.967074 7.48956 1H15.6146C16.5078 0.967074 17.3813 1.26765 18.0652 1.84324C18.7491 2.41882 19.1947 3.22825 19.3148 4.11402L20.0965 13.776C20.1299 14.2134 20.0714 14.6528 19.9246 15.0662C19.7779 15.4795 19.5461 15.8576 19.2444 16.176C18.8791 16.5614 18.4383 16.8675 17.9495 17.0751C17.4608 17.2828 16.9347 17.3876 16.4036 17.383ZM7.49639 2.71601C7.03305 2.68097 6.57333 2.81859 6.20538 3.10236C5.83742 3.38613 5.58758 3.79599 5.50372 4.25303L4.72149 13.914C4.70775 14.1151 4.73659 14.3169 4.80548 14.5063C4.87436 14.6958 4.98168 14.8687 5.12139 15.014C5.32747 15.2264 5.57521 15.3941 5.84893 15.5067C6.12266 15.6192 6.41681 15.6741 6.7127 15.668H16.4017C16.6974 15.6741 16.9914 15.6192 17.2649 15.5067C17.5385 15.3942 17.7857 15.2264 17.9915 15.014C18.1314 14.8688 18.2395 14.696 18.3084 14.5065C18.3773 14.317 18.4054 14.1151 18.3914 13.914L17.6107 4.25202C17.5266 3.79527 17.2767 3.3857 16.909 3.10199C16.5413 2.81829 16.0816 2.68048 15.6185 2.71503L7.49639 2.71601Z" fill="#333333"/>
<path d="M6.73586 22.8902C6.59787 22.8888 6.4622 22.8542 6.34036 22.7894C6.21851 22.7246 6.11406 22.6315 6.03567 22.5179C5.95728 22.4044 5.90753 22.2736 5.89016 22.1367C5.8728 21.9998 5.8885 21.8607 5.93606 21.7312L7.57717 17.3312C7.65752 17.1196 7.81792 16.9484 8.02395 16.8547C8.22998 16.7611 8.46455 16.7526 8.67678 16.8312C8.88852 16.9113 9.06015 17.072 9.15383 17.2781C9.24751 17.4842 9.25563 17.719 9.17678 17.9312L7.53616 22.3312C7.47552 22.4947 7.36611 22.6358 7.22317 22.7357C7.08022 22.8356 6.91025 22.8895 6.73586 22.8902Z" fill="#333333"/>
<path d="M16.1889 22.8892C16.0145 22.8879 15.8445 22.8337 15.7016 22.7337C15.5587 22.6337 15.4499 22.4926 15.3891 22.3291L13.7489 17.9291C13.6694 17.7159 13.6779 17.4798 13.7724 17.2728C13.8669 17.0657 14.0396 16.9047 14.2528 16.8251C14.4661 16.7456 14.7021 16.754 14.9091 16.8485C15.1161 16.943 15.2773 17.1159 15.3568 17.3291L16.997 21.7292C17.0448 21.8587 17.0606 21.9978 17.0434 22.1348C17.0261 22.2718 16.9763 22.4027 16.8979 22.5163C16.8194 22.6299 16.7147 22.723 16.5927 22.7877C16.4707 22.8525 16.3348 22.8869 16.1967 22.8882L16.1889 22.8892Z" fill="#333333"/>
<path d="M15.3696 20.6882H7.55566C7.32811 20.6882 7.11012 20.5978 6.94922 20.4369C6.78831 20.276 6.69775 20.0577 6.69775 19.8302C6.69775 19.6026 6.78831 19.3844 6.94922 19.2234C7.11012 19.0625 7.32811 18.9722 7.55566 18.9722H15.3696C15.5972 18.9722 15.8157 19.0625 15.9766 19.2234C16.1375 19.3844 16.2275 19.6026 16.2275 19.8302C16.2275 20.0577 16.1375 20.276 15.9766 20.4369C15.8157 20.5978 15.5972 20.6882 15.3696 20.6882Z" fill="#333333"/>
<path d="M18.8765 12.591H4.2876C4.06004 12.591 3.84157 12.5006 3.68066 12.3397C3.51976 12.1788 3.42969 11.9606 3.42969 11.733C3.42969 11.5054 3.51976 11.2872 3.68066 11.1263C3.84157 10.9654 4.06004 10.875 4.2876 10.875H18.8765C19.104 10.875 19.3225 10.9654 19.4834 11.1263C19.6443 11.2872 19.7344 11.5054 19.7344 11.733C19.7344 11.9606 19.6443 12.1788 19.4834 12.3397C19.3225 12.5006 19.104 12.591 18.8765 12.591Z" fill="#333333"/>
</g>
<defs>
<clipPath id="clip0_2192_6749">
<rect width="24" height="24" fill="white"/>
</clipPath>
</defs>
</svg>
