<svg width="16" height="16" viewBox="0 0 16 16" fill="none" xmlns="http://www.w3.org/2000/svg">
<g clip-path="url(#clip0_846_5939)">
<path d="M8 16C12.4183 16 16 12.4183 16 8C16 3.58172 12.4183 0 8 0C3.58172 0 0 3.58172 0 8C0 12.4183 3.58172 16 8 16Z" fill="#959595"/>
<path d="M4.04695 8.39104C4.04695 8.25843 4.09963 8.13125 4.1934 8.03749C4.28716 7.94372 4.41434 7.89104 4.54695 7.89104C4.67956 7.89104 4.80673 7.94372 4.9005 8.03749C4.99427 8.13125 5.04695 8.25843 5.04695 8.39104C5.13097 9.09462 5.48653 9.73753 6.0378 10.1827C6.58908 10.6279 7.29246 10.8401 7.99795 10.774C8.70393 10.8409 9.40807 10.6291 9.96001 10.1838C10.5119 9.73858 10.8679 9.09519 10.9519 8.39104C10.9519 8.25843 11.0046 8.13125 11.0984 8.03749C11.1922 7.94372 11.3193 7.89104 11.4519 7.89104C11.5846 7.89104 11.7117 7.94372 11.8055 8.03749C11.8993 8.13125 11.9519 8.25843 11.9519 8.39104C11.8695 9.36132 11.4085 10.2602 10.6686 10.8932C9.92865 11.5263 8.9693 11.8427 7.99795 11.774C7.02703 11.8421 6.06831 11.5255 5.329 10.8924C4.58968 10.2594 4.12915 9.36086 4.04695 8.39104ZM10.3039 5.61204C10.3432 5.34448 10.4849 5.10263 10.6991 4.93752C10.9133 4.77241 11.1832 4.69695 11.4519 4.72704C11.7204 4.69724 11.99 4.77287 12.2038 4.93797C12.4176 5.10308 12.5589 5.34475 12.5979 5.61204C12.5591 5.8797 12.4178 6.12179 12.2037 6.28712C11.9897 6.45246 11.7197 6.52809 11.4509 6.49804C11.1822 6.52784 10.9124 6.4521 10.6984 6.28681C10.4844 6.12152 10.343 5.87959 10.3039 5.61204ZM3.39795 5.61204C3.43724 5.34448 3.57891 5.10263 3.79309 4.93752C4.00726 4.77241 4.2772 4.69695 4.54595 4.72704C4.8153 4.6961 5.08612 4.77115 5.30112 4.93632C5.51612 5.10149 5.65843 5.34382 5.69795 5.61204C5.65866 5.87987 5.51688 6.12196 5.30252 6.28726C5.08815 6.45256 4.81797 6.52813 4.54895 6.49804C4.27957 6.52894 4.00874 6.45372 3.79387 6.28833C3.57901 6.12293 3.437 5.88036 3.39795 5.61204Z" fill="white"/>
</g>
<defs>
<clipPath id="clip0_846_5939">
<rect width="16" height="16" fill="white"/>
</clipPath>
</defs>
</svg>
