<svg width="16" height="16" viewBox="0 0 16 16" fill="none" xmlns="http://www.w3.org/2000/svg">
<g clip-path="url(#clip0_965_4420)">
<mask id="mask0_965_4420" style="mask-type:luminance" maskUnits="userSpaceOnUse" x="0" y="0" width="16" height="16">
<path d="M16 0H0V16H16V0Z" fill="white"/>
</mask>
<g mask="url(#mask0_965_4420)">
<path d="M8 16C12.4183 16 16 12.4183 16 8C16 3.58172 12.4183 0 8 0C3.58172 0 0 3.58172 0 8C0 12.4183 3.58172 16 8 16Z" fill="#E5464B"/>
<path d="M4.04744 8.39104C4.04744 8.25843 4.10012 8.13125 4.19389 8.03749C4.28765 7.94372 4.41483 7.89104 4.54744 7.89104C4.68005 7.89104 4.80722 7.94372 4.90099 8.03749C4.99476 8.13125 5.04744 8.25843 5.04744 8.39104C5.13146 9.09462 5.48702 9.73753 6.03829 10.1827C6.58957 10.6279 7.29295 10.8401 7.99844 10.774C8.70442 10.8409 9.40856 10.6291 9.9605 10.1838C10.5124 9.73858 10.8684 9.09519 10.9524 8.39104C10.9524 8.25843 11.0051 8.13125 11.0989 8.03749C11.1927 7.94372 11.3198 7.89104 11.4524 7.89104C11.5851 7.89104 11.7122 7.94372 11.806 8.03749C11.8998 8.13125 11.9524 8.25843 11.9524 8.39104C11.87 9.36132 11.409 10.2602 10.6691 10.8932C9.92914 11.5263 8.96979 11.8427 7.99844 11.774C7.02752 11.8421 6.0688 11.5255 5.32949 10.8924C4.59017 10.2594 4.12964 9.36086 4.04744 8.39104ZM10.3044 5.61204C10.3437 5.34448 10.4854 5.10263 10.6996 4.93752C10.9138 4.77241 11.1837 4.69695 11.4524 4.72704C11.7209 4.69724 11.9905 4.77287 12.2043 4.93797C12.4181 5.10308 12.5594 5.34475 12.5984 5.61204C12.5596 5.8797 12.4183 6.12179 12.2042 6.28712C11.9902 6.45246 11.7202 6.52809 11.4514 6.49804C11.1827 6.52784 10.9129 6.4521 10.6989 6.28681C10.4849 6.12152 10.3435 5.87959 10.3044 5.61204ZM3.39844 5.61204C3.43773 5.34448 3.5794 5.10263 3.79358 4.93752C4.00775 4.77241 4.27769 4.69695 4.54644 4.72704C4.81579 4.6961 5.08661 4.77115 5.30161 4.93632C5.51661 5.10149 5.65892 5.34382 5.69844 5.61204C5.65915 5.87987 5.51737 6.12196 5.30301 6.28726C5.08864 6.45256 4.81846 6.52813 4.54944 6.49804C4.28006 6.52894 4.00923 6.45372 3.79436 6.28833C3.5795 6.12293 3.43749 5.88036 3.39844 5.61204Z" fill="white"/>
</g>
</g>
<defs>
<clipPath id="clip0_965_4420">
<rect width="16" height="16" fill="white"/>
</clipPath>
</defs>
</svg>
