<svg width="40" height="60" viewBox="0 0 40 60" fill="none" xmlns="http://www.w3.org/2000/svg">
<g clip-path="url(#clip0_841_5686)">
<path d="M20 60C24.4183 60 28 56.4183 28 52C28 47.5817 24.4183 44 20 44C15.5817 44 12 47.5817 12 52C12 56.4183 15.5817 60 20 60Z" fill="#959595" fill-opacity="0.3"/>
<path d="M20 56C22.2091 56 24 54.2091 24 52C24 49.7909 22.2091 48 20 48C17.7909 48 16 49.7909 16 52C16 54.2091 17.7909 56 20 56Z" fill="#959595"/>
<path d="M34.142 33.985L23.535 44.544C22.5954 45.4768 21.325 46.0003 20.001 46.0003C18.677 46.0003 17.4066 45.4768 16.467 44.544L5.857 33.985C4.00075 32.1406 2.52759 29.9474 1.52231 27.5315C0.517042 25.1156 -0.000488281 22.5247 -0.000488281 19.908C-0.000488281 17.2912 0.517042 14.7004 1.52231 12.2844C2.52759 9.86852 4.00075 7.67528 5.857 5.83095C9.61611 2.09616 14.7 0 19.999 0C25.298 0 30.3819 2.09616 34.141 5.83095C35.9973 7.67528 37.4704 9.86852 38.4757 12.2844C39.481 14.7004 39.9985 17.2912 39.9985 19.908C39.9985 22.5247 39.481 25.1156 38.4757 27.5315C37.4704 29.9474 35.9983 32.1406 34.142 33.985Z" fill="#959595"/>
<path d="M20 36C28.8366 36 36 28.8366 36 20C36 11.1634 28.8366 4 20 4C11.1634 4 4 11.1634 4 20C4 28.8366 11.1634 36 20 36Z" fill="white"/>
<path d="M19.9991 27.5458C15.6401 27.5458 12.0991 24.5108 12.0991 20.7798C12.0991 20.5146 12.2045 20.2602 12.392 20.0727C12.5795 19.8851 12.8339 19.7798 13.0991 19.7798C13.3643 19.7798 13.6187 19.8851 13.8062 20.0727C13.9938 20.2602 14.0991 20.5146 14.0991 20.7798C14.0991 23.4078 16.7491 25.5458 19.9991 25.5458C23.2491 25.5458 25.9051 23.4078 25.9051 20.7798C25.9051 20.5146 26.0105 20.2602 26.198 20.0727C26.3855 19.8851 26.6399 19.7798 26.9051 19.7798C27.1703 19.7798 27.4247 19.8851 27.6122 20.0727C27.7998 20.2602 27.9051 20.5146 27.9051 20.7798C27.9051 24.5068 24.3591 27.5458 19.9991 27.5458Z" fill="#959595"/>
<path d="M24.6069 15.2239C24.6857 14.6881 24.9697 14.2041 25.3989 13.874C25.8281 13.5439 26.3687 13.3936 26.9067 13.4549C27.444 13.3945 27.9834 13.5451 28.4116 13.8752C28.8398 14.2053 29.1233 14.6889 29.2017 15.2239C29.124 15.7594 28.8409 16.2437 28.4126 16.5744C27.9843 16.9051 27.4445 17.0563 26.9067 16.996C26.3683 17.0572 25.8272 16.9064 25.3979 16.5757C24.9687 16.2449 24.685 15.7601 24.6069 15.2239ZM10.7954 15.2239C10.874 14.688 11.1581 14.2038 11.5874 13.8736C12.0167 13.5435 12.5581 13.3934 13.0962 13.4549C13.6341 13.3939 14.1749 13.5442 14.604 13.8742C15.0332 14.2043 15.317 14.6883 15.396 15.2239C15.3177 15.76 15.0332 16.2447 14.604 16.5754C14.1748 16.9061 13.6346 17.0569 13.0962 16.996C12.5579 17.0572 12.0165 16.9064 11.5874 16.5757C11.1583 16.2449 10.8733 15.76 10.7954 15.2239Z" fill="#959595"/>
</g>
<defs>
<clipPath id="clip0_841_5686">
<rect width="40" height="60" fill="white"/>
</clipPath>
</defs>
</svg>
