<svg xmlns="http://www.w3.org/2000/svg" width="45" height="45" viewBox="0 0 45 45">
    <defs>
        <clipPath id="5l0xvanp0a">
            <path data-name="Rectangle 8027" style="fill:none" d="M0 0h45v45H0z"/>
        </clipPath>
    </defs>
    <g data-name="Group 15482" style="clip-path:url(#5l0xvanp0a)">
        <path data-name="Path 12764" d="m17.324 27.086.037.038A7.183 7.183 0 0 0 31.2 24.433a7.122 7.122 0 0 0-.56-2.784l-.02-.045a7.188 7.188 0 0 0-9.272-3.84l-.04.015-.155.064a7.246 7.246 0 0 0-3.757 3.8 7.167 7.167 0 0 0-.07 5.382zm2.149-5.923a5.666 5.666 0 0 1 1.339-1.319v1.319zm1.338 6.41v1.448a5.689 5.689 0 0 1-1.426-1.448zm-2.4-3.14a5.6 5.6 0 0 1 .258-1.686h2.138v3.243H18.64a5.562 5.562 0 0 1-.224-1.557m3.984 5.359v-2.219h3.244v2.219a5.609 5.609 0 0 1-3.244 0m0-7.046h3.244v3.244H22.4zm0-1.583v-2.089a5.593 5.593 0 0 1 3.244 0v2.09zm4.828 0v-1.319a5.684 5.684 0 0 1 1.339 1.319zm0 4.826v-3.243h2.132a5.582 5.582 0 0 1 .034 3.243zm0 3.032v-1.448h1.426a5.656 5.656 0 0 1-1.426 1.448" style="fill:#2eb6c7"/>
        <path data-name="Path 12765" d="M19.84 15.289h8.354a1.66 1.66 0 0 0 1.658-1.658v-1.95a1.66 1.66 0 0 0-1.658-1.658H19.84a1.66 1.66 0 0 0-1.659 1.658v1.95a1.66 1.66 0 0 0 1.659 1.658m-.075-1.658v-1.95a.076.076 0 0 1 .075-.075h8.354a.076.076 0 0 1 .075.075v1.95a.076.076 0 0 1-.075.075H19.84a.076.076 0 0 1-.075-.075" style="fill:#555"/>
        <path data-name="Rectangle 8025" transform="translate(18.719 33.534)" style="fill:#555" d="M0 0h7.316v1.583H0z"/>
        <path data-name="Rectangle 8026" transform="translate(27.299 33.534)" style="fill:#555" d="M0 0h2.715v1.583H0z"/>
        <path data-name="Path 12766" d="M35.664 5.849H9.336a.793.793 0 0 0-.792.792v31.718a.793.793 0 0 0 .792.792h26.328a.793.793 0 0 0 .792-.792V6.641a.793.793 0 0 0-.792-.792m-.791 31.719H13.161V7.431h21.712zm-23.3 0h-1.45V7.431h1.45z" style="fill:#555"/>
    </g>
</svg>
