<svg data-name="Group 4009" xmlns="http://www.w3.org/2000/svg" width="45" height="45" viewBox="0 0 45 45">
    <g data-name="Group 3997">
        <path data-name="Rectangle 2413" style="fill:none" d="M0 0h45v45H0z"/>
    </g>
    <g data-name="Group 4008">
        <g data-name="Group 4004">
            <g data-name="Group 4000">
                <g data-name="Group 3998" transform="translate(7.7 5.239)">
                    <circle data-name="Ellipse 448" cx="3.896" cy="3.896" r="3.896" transform="translate(.787 .788)" style="fill:#f0fafb"/>
                    <path data-name="Path 4458" d="M588.851 703.974a4.684 4.684 0 1 1 4.683-4.684 4.688 4.688 0 0 1-4.683 4.684zm0-7.792a3.108 3.108 0 1 0 3.107 3.108 3.111 3.111 0 0 0-3.107-3.108z" transform="translate(-584.168 -694.607)" style="fill:#555"/>
                </g>
                <g data-name="Group 3999">
                    <path data-name="Path 4459" d="M593.808 715.233a1.586 1.586 0 0 0 1.586-1.586V708.9a3.324 3.324 0 0 0-3.177-3.454h-6.807a3.056 3.056 0 0 0-2.92 3.175v5.024a1.586 1.586 0 0 0 1.586 1.586h1.334v2.08h-.023v6.515h3.4v-6.445h.045v6.445h3.4v-6.515h-.023v-2.08z" transform="translate(-576.468 -689.368)" style="fill:#f0fafb"/>
                    <path data-name="Path 4460" d="M592.239 724.615h-6.852a.787.787 0 0 1-.788-.787v-6.515a.816.816 0 0 1 .022-.185v-1.107h-.546a2.377 2.377 0 0 1-2.373-2.374v-5.024a3.847 3.847 0 0 1 3.707-3.963h6.808a4.115 4.115 0 0 1 3.964 4.242v4.745a2.376 2.376 0 0 1-2.373 2.374h-.8v1.112a.766.766 0 0 1 .022.18v6.515a.787.787 0 0 1-.791.787zm-2.615-1.575h1.828v-5.546a.723.723 0 0 1-.022-.181v-2.08a.787.787 0 0 1 .787-.788h1.591a.8.8 0 0 0 .8-.8V708.9a2.541 2.541 0 0 0-2.389-2.666h-6.808a2.272 2.272 0 0 0-2.131 2.387v5.024a.8.8 0 0 0 .8.8h1.334a.788.788 0 0 1 .788.788v2.08a.814.814 0 0 1-.022.186v5.541H588v-5.657a.788.788 0 0 1 .788-.788.828.828 0 0 1 .833.788z" transform="translate(-576.468 -689.368)" style="fill:#555"/>
                </g>
            </g>
            <g data-name="Group 4003">
                <g data-name="Group 4001" transform="translate(27.752 5.239)">
                    <circle data-name="Ellipse 449" cx="3.896" cy="3.896" r="3.896" transform="translate(.788 .788)" style="fill:#f0fafb"/>
                    <path data-name="Path 4461" d="M608.9 703.974a4.684 4.684 0 1 1 4.684-4.684 4.689 4.689 0 0 1-4.684 4.684zm0-7.792a3.108 3.108 0 1 0 3.108 3.108 3.112 3.112 0 0 0-3.108-3.108z" transform="translate(-604.22 -694.607)" style="fill:#555"/>
                </g>
                <g data-name="Group 4002">
                    <path data-name="Path 4462" d="M613.861 715.233a1.586 1.586 0 0 0 1.586-1.586V708.9a3.325 3.325 0 0 0-3.177-3.454h-6.808a3.055 3.055 0 0 0-2.919 3.175v5.024a1.586 1.586 0 0 0 1.586 1.586h1.333v2.08h-.022v6.515h3.4v-6.445h.045v6.445h3.4v-6.515h-.023v-2.08z" transform="translate(-576.468 -689.368)" style="fill:#f0fafb"/>
                    <path data-name="Path 4463" d="M612.293 724.615h-6.854a.787.787 0 0 1-.787-.787v-6.515a.75.75 0 0 1 .023-.19v-1.1h-.546a2.377 2.377 0 0 1-2.374-2.374v-5.024a3.846 3.846 0 0 1 3.708-3.963h6.807a4.115 4.115 0 0 1 3.965 4.242v4.745a2.378 2.378 0 0 1-2.375 2.374h-.8v1.108a.747.747 0 0 1 .023.184v6.515a.787.787 0 0 1-.79.785zm-2.616-1.575h1.828v-5.54a.749.749 0 0 1-.023-.185v-2.08a.788.788 0 0 1 .788-.788h1.59a.8.8 0 0 0 .8-.8V708.9a2.542 2.542 0 0 0-2.389-2.666h-6.807a2.273 2.273 0 0 0-2.133 2.387v5.024a.8.8 0 0 0 .8.8h1.334a.787.787 0 0 1 .787.788v2.08a.744.744 0 0 1-.023.19v5.537h1.829v-5.657a.788.788 0 0 1 .788-.788.828.828 0 0 1 .833.788z" transform="translate(-576.468 -689.368)" style="fill:#555"/>
                </g>
            </g>
        </g>
        <g data-name="Group 4007">
            <g data-name="Group 4005" transform="translate(17.726 9.752)">
                <circle data-name="Ellipse 450" cx="3.896" cy="3.896" r="3.896" transform="translate(.788 .788)" style="fill:#f0fafb"/>
                <path data-name="Path 4464" d="M598.877 708.486a4.683 4.683 0 1 1 4.684-4.683 4.688 4.688 0 0 1-4.684 4.683zm0-7.791a3.108 3.108 0 1 0 3.108 3.108 3.112 3.112 0 0 0-3.108-3.103z" transform="translate(-594.194 -699.12)" style="fill:#2eb6c7"/>
            </g>
            <g data-name="Group 4006">
                <path data-name="Path 4465" d="M603.834 719.746a1.586 1.586 0 0 0 1.586-1.586v-4.745a3.324 3.324 0 0 0-3.176-3.454h-6.808a3.055 3.055 0 0 0-2.92 3.174v5.025a1.586 1.586 0 0 0 1.586 1.586h1.334v2.08h-.023v6.514h3.4v-6.44h.045v6.444h3.4v-6.514h-.022v-2.08z" transform="translate(-576.468 -689.368)" style="fill:#f0fafb"/>
                <path data-name="Path 4466" d="M602.267 729.128h-6.854a.787.787 0 0 1-.787-.788v-6.514a.75.75 0 0 1 .023-.19v-1.1h-.549a2.377 2.377 0 0 1-2.375-2.373v-5.025a3.846 3.846 0 0 1 3.708-3.961h6.808a4.113 4.113 0 0 1 3.963 4.241v4.745a2.376 2.376 0 0 1-2.373 2.373h-.8v1.108a.756.756 0 0 1 .023.185v6.514a.787.787 0 0 1-.787.785zm-2.617-1.575h1.829v-5.542a.711.711 0 0 1-.023-.185v-2.08a.788.788 0 0 1 .788-.788h1.59a.8.8 0 0 0 .8-.8v-4.745a2.541 2.541 0 0 0-2.388-2.666h-6.808a2.272 2.272 0 0 0-2.132 2.386v5.025a.8.8 0 0 0 .8.8h1.333a.788.788 0 0 1 .788.788v2.08a.8.8 0 0 1-.023.19v5.537h1.828V721.9a.788.788 0 0 1 .788-.788.828.828 0 0 1 .833.788z" transform="translate(-576.468 -689.368)" style="fill:#2eb6c7"/>
            </g>
        </g>
    </g>
</svg>
