<svg data-name="icon_home_oil price_45" xmlns="http://www.w3.org/2000/svg" width="45" height="45" viewBox="0 0 45 45">
    <defs>
        <clipPath id="iysrh5or1a">
            <path data-name="Rectangle 8024" style="fill:none" d="M0 0h45v45H0z"/>
        </clipPath>
    </defs>
    <g data-name="Group 15480" style="clip-path:url(#iysrh5or1a)">
        <path data-name="Path 12760" d="M22.842 20.111a.82.82 0 0 0 .57-.229l3.545-3.4 3.664 2.887a.822.822 0 0 0 1.015 0l4.905-3.813-.141 1.826a.82.82 0 0 0 .757.884h.064a.825.825 0 0 0 .82-.76l.283-3.683a.824.824 0 0 0-.761-.885l-3.963-.28a.823.823 0 1 0-.118 1.641l1.828.131-4.175 3.245-3.722-2.93a.828.828 0 0 0-1.078.052l-4.061 3.9a.823.823 0 0 0 .569 1.418" style="fill:#555"/>
        <path data-name="Path 12761" d="M39.2 35.939h-2.47V21.526a.879.879 0 0 0-.847-.853h-5.548a.881.881 0 0 0-.845.859v14.407h-3.011V24.306a.854.854 0 0 0-.842-.837H20.1a.808.808 0 0 0-.789.842v11.628h-3.082v-6.457a.866.866 0 0 0-.836-.853H9.857a.828.828 0 0 0-.794.856v6.454H6.625v-26a.823.823 0 1 0-1.646 0v26.846a.81.81 0 0 0 .816.8H39.2a.823.823 0 0 0 0-1.647m-4.117 0h-3.945V22.32h3.943zm-10.249 0H20.96V25.115h3.872zm-10.249 0h-3.874v-5.663h3.872z" style="fill:#555"/>
        <path data-name="Path 12762" d="M14.616 24.991a6.966 6.966 0 0 0 6.007-3.5 6.179 6.179 0 0 0 .029-6.263l-5.37-7.48a.81.81 0 0 0-.648-.331h-.03a.822.822 0 0 0-.657.332l-5.316 7.383-.05.072a6.218 6.218 0 0 0 .035 6.296 6.969 6.969 0 0 0 6 3.495m-4.572-4.317a4.534 4.534 0 0 1-.06-4.61l4.633-6.436 4.627 6.445a4.5 4.5 0 0 1-.049 4.6 5.254 5.254 0 0 1-9.151 0" style="fill:#555"/>
        <path data-name="Path 12763" d="M15.369 22.142v-.226a2.263 2.263 0 0 0 1.443-2.7 2.264 2.264 0 0 0-2.2-1.7.617.617 0 1 1 .617-.617.824.824 0 0 0 1.648 0 2.284 2.284 0 0 0-1.441-2.109v-.173a.824.824 0 1 0-1.647 0v.172a2.266 2.266 0 0 0-1.346 2.755 2.278 2.278 0 0 0 2.17 1.619.618.618 0 1 1-.619.618.824.824 0 1 0-1.647 0 2.267 2.267 0 0 0 1.37 2.079v.282a.823.823 0 0 0 1.646 0" style="fill:#2eb6c7"/>
    </g>
</svg>
