<svg data-name="Component 104 – 15" xmlns="http://www.w3.org/2000/svg" width="45" height="45" viewBox="0 0 45 45">
    <path data-name="Rectangle 1988" style="fill:none" d="M0 0h45v45H0z"/>
    <g data-name="Group 2875">
        <g data-name="Group 2814">
            <path data-name="Path 1787" d="m352.073-1035.838-.024-.024a1.846 1.846 0 0 0-2.589.024c-6.477 6.807-7.352 11.164-7.352 14.529 0 4.191 2.71 8.7 8.659 8.7s8.649-4.51 8.657-8.7c0-3.365-.874-7.723-7.351-14.529zm-1.312 21.647c-4.883 0-7.067-3.575-7.067-7.118 0-3.049.822-7.029 6.919-13.438a.216.216 0 0 1 .155-.069.2.2 0 0 1 .149.071c6.09 6.4 6.909 10.384 6.909 13.437-.001 3.542-2.185 7.117-7.066 7.117z" transform="translate(-327.962 1043.592)" style="fill:#555"/>
            <path data-name="Path 1788" d="M349.834-1019.059a4.917 4.917 0 0 1-3.4-5.444.791.791 0 0 0-.671-.894.792.792 0 0 0-.9.674c-.031.222-.715 5.437 4.47 7.168a.861.861 0 0 0 .243.04.789.789 0 0 0 .752-.543.786.786 0 0 0-.045-.6.792.792 0 0 0-.449-.401z" transform="translate(-327.574 1045.161)" style="fill:#2fb6c7"/>
        </g>
        <g data-name="Group 2815">
            <path data-name="Path 1789" d="M351.2-1010.764c5.882 0 12.133-1.742 12.133-4.971 0-.74-.355-1.837-2.047-2.855a.763.763 0 0 0-1.048.261.763.763 0 0 0 .259 1.048c.845.507 1.309 1.057 1.309 1.546 0 1.438-4.035 3.444-10.606 3.444s-10.608-2.006-10.608-3.444c0-.592.675-1.132 1.078-1.4a.764.764 0 0 0 .21-1.058.763.763 0 0 0-1.058-.212 3.259 3.259 0 0 0-1.757 2.67c.002 3.229 6.254 4.971 12.135 4.971z" transform="translate(-328.397 1046.12)" style="fill:#555"/>
            <path data-name="Path 1790" d="M365.77-1018.3a.783.783 0 0 0-1.061.315.782.782 0 0 0 .315 1.061c1.537.834 2.384 1.781 2.384 2.665 0 2.467-6.4 5.214-15.58 5.214s-15.583-2.748-15.583-5.214c0-.848.784-1.759 2.209-2.568a.782.782 0 0 0 .295-1.066.781.781 0 0 0-1.066-.294c-2.481 1.407-3 2.912-3 3.929 0 4.4 8.834 6.779 17.147 6.779s17.146-2.376 17.146-6.779c-.001-1.048-.557-2.602-3.206-4.042z" transform="translate(-329.024 1046.164)" style="fill:#555"/>
        </g>
    </g>
</svg>
