<svg data-name="Group 5986" xmlns="http://www.w3.org/2000/svg" width="45" height="45" viewBox="0 0 45 45">
    <g data-name="Group 4058">
        <g data-name="Group 4055">
            <path data-name="Path 4502" d="M266.536 590.932c-2.279 0-3.422-1.343-4.431-2.528-.938-1.1-1.68-1.972-3.232-1.972s-2.293.871-3.231 1.973c-1.009 1.184-2.152 2.527-4.431 2.527s-3.421-1.343-4.429-2.528c-.937-1.1-1.678-1.972-3.228-1.972s-2.289.87-3.226 1.972c-1.007 1.185-2.148 2.528-4.425 2.528s-3.42-1.343-4.428-2.528c-.937-1.1-1.677-1.972-3.227-1.972a.788.788 0 1 1 0-1.576c2.277 0 3.42 1.344 4.427 2.528.938 1.1 1.678 1.972 3.228 1.972s2.288-.87 3.225-1.972c1.007-1.184 2.149-2.528 4.426-2.528s3.42 1.344 4.428 2.528c.938 1.1 1.679 1.972 3.229 1.972s2.293-.87 3.231-1.972c1.009-1.184 2.152-2.528 4.431-2.528s3.423 1.343 4.432 2.528c.938 1.1 1.68 1.972 3.231 1.972a.788.788 0 1 1 0 1.576z" transform="translate(-224.805 -555.521)" style="fill:#2eb6c7"/>
        </g>
        <g data-name="Group 4056">
            <path data-name="Path 4503" d="M239.389 581.489a.788.788 0 0 1-.648-1.234c.907-1.32 9.024-12.9 14.458-12.9 3.489 0 4.852 1.522 5.381 2.8a5.122 5.122 0 0 1-.839 5.106.787.787 0 0 1-1.342-.495c-.018-.208-.233-2.068-1.945-2.068-.295 0-.818.453-1.245 1.319-.63 1.28-.9 3.16-.159 4.124.454.592 1.3.771 2.5.529a.788.788 0 0 1 .308 1.545c-2.3.461-3.477-.353-4.062-1.114-1.194-1.554-.839-4.085 0-5.78.688-1.4 1.656-2.2 2.657-2.2a3.218 3.218 0 0 1 2.828 1.512 3.364 3.364 0 0 0-.157-1.876c-.625-1.509-2.481-1.826-3.926-1.826-3.907 0-10.825 8.815-13.161 12.211a.785.785 0 0 1-.648.347z" transform="translate(-224.805 -555.521)" style="fill:#555"/>
        </g>
        <g data-name="Group 4057">
            <path data-name="Path 4504" d="M266.362 583.44c-2.28 0-3.423-1.343-4.432-2.528-.938-1.1-1.679-1.972-3.231-1.972s-2.293.87-3.231 1.972c-1.009 1.185-2.152 2.528-4.432 2.528s-3.42-1.343-4.428-2.528c-.938-1.1-1.679-1.972-3.229-1.972s-2.289.87-3.226 1.972c-1.007 1.185-2.148 2.528-4.425 2.528s-3.419-1.343-4.427-2.528c-.938-1.1-1.678-1.972-3.228-1.972a.788.788 0 0 1 0-1.576c2.278 0 3.42 1.343 4.428 2.528.938 1.1 1.677 1.972 3.227 1.972s2.289-.87 3.226-1.972c1.007-1.185 2.148-2.528 4.425-2.528s3.421 1.343 4.429 2.528c.937 1.1 1.678 1.972 3.228 1.972s2.294-.87 3.232-1.973c1.009-1.184 2.152-2.527 4.431-2.527s3.423 1.343 4.431 2.528c.938 1.1 1.68 1.972 3.232 1.972a.788.788 0 1 1 0 1.576z" transform="translate(-224.805 -555.521)" style="fill:#555"/>
        </g>
    </g>
    <g data-name="Group 4059">
        <path data-name="Rectangle 2420" style="fill:none" d="M0 0h45v45H0z"/>
    </g>
</svg>
