<svg xmlns="http://www.w3.org/2000/svg" width="45" height="45" viewBox="0 0 45 45">
    <defs>
        <clipPath id="8ql97avyna">
            <path data-name="Rectangle 8028" style="fill:none" d="M0 0h45v45H0z"/>
        </clipPath>
        <clipPath id="7c8jm20ogb">
            <path data-name="Rectangle 8030" style="fill:none" d="M0 0h28.381v35.756H0z"/>
        </clipPath>
    </defs>
    <g data-name="Group 15484" style="clip-path:url(#8ql97avyna)">
        <g data-name="Group 15493">
            <g data-name="Group 15492" style="clip-path:url(#7c8jm20ogb)" transform="translate(8.001 5)">
                <path data-name="Path 12775" d="M14.191 33.169a.539.539 0 1 1 0-1.078h10.324a.5.5 0 0 0 .485-.624 7.208 7.208 0 0 1-.235-1.889A7.1 7.1 0 0 1 25 27.893a.5.5 0 0 0-.485-.625H3.865a2.412 2.412 0 0 0 0 4.823H4.6a.539.539 0 1 1 0 1.078h-.735a3.494 3.494 0 0 1-3.49-3.489V3.864A3.494 3.494 0 0 1 3.865.375h22.864a1.278 1.278 0 0 1 1.277 1.276v24.341a1.278 1.278 0 0 1-1.277 1.276.57.57 0 0 0-.521.331 6.177 6.177 0 0 0-.366 1.995 6.1 6.1 0 0 0 .371 2.167.5.5 0 0 0 .47.33h.784a.539.539 0 1 1 0 1.078zM3.484 1.49a2.4 2.4 0 0 0-2.03 2.374v22.312a.5.5 0 0 0 .245.43.5.5 0 0 0 .5.008 3.4 3.4 0 0 1 1.4-.407.5.5 0 0 0 .463-.5V1.983a.5.5 0 0 0-.5-.5.422.422 0 0 0-.079.007m2.158-.037a.5.5 0 0 0-.5.5v23.736a.5.5 0 0 0 .5.5h20.787a.5.5 0 0 0 .5-.5V1.953a.5.5 0 0 0-.5-.5z" style="fill:#555"/>
                <path data-name="Path 12776" d="M14.191 33.169a.539.539 0 1 1 0-1.078h10.324a.5.5 0 0 0 .485-.624 7.208 7.208 0 0 1-.235-1.889A7.1 7.1 0 0 1 25 27.893a.5.5 0 0 0-.485-.625H3.865a2.412 2.412 0 0 0 0 4.823H4.6a.539.539 0 1 1 0 1.078h-.735a3.494 3.494 0 0 1-3.49-3.489V3.864A3.494 3.494 0 0 1 3.865.375h22.864a1.278 1.278 0 0 1 1.277 1.276v24.341a1.278 1.278 0 0 1-1.277 1.276.57.57 0 0 0-.521.331 6.177 6.177 0 0 0-.366 1.995 6.1 6.1 0 0 0 .371 2.167.5.5 0 0 0 .47.33h.784a.539.539 0 1 1 0 1.078zM3.484 1.49a2.4 2.4 0 0 0-2.03 2.374v22.312a.5.5 0 0 0 .245.43.5.5 0 0 0 .5.008 3.4 3.4 0 0 1 1.4-.407.5.5 0 0 0 .463-.5V1.983a.5.5 0 0 0-.5-.5.422.422 0 0 0-.078.007zm2.158-.037a.5.5 0 0 0-.5.5v23.736a.5.5 0 0 0 .5.5h20.786a.5.5 0 0 0 .5-.5V1.953a.5.5 0 0 0-.5-.5z" style="stroke-miterlimit:10;stroke-width:.75px;stroke:#555;fill:none"/>
                <path data-name="Path 12777" d="M11.913 35.381a.548.548 0 0 1-.27-.071l-2.064-1.18a.506.506 0 0 0-.5 0l-2.062 1.18a.545.545 0 0 1-.269.07.524.524 0 0 1-.269-.072.535.535 0 0 1-.269-.466V29.68a.539.539 0 0 1 1.078 0v3.372a.5.5 0 0 0 .249.433.507.507 0 0 0 .251.067.5.5 0 0 0 .248-.066l1.027-.586a.53.53 0 0 1 .535 0l1.028.586a.5.5 0 0 0 .248.066.507.507 0 0 0 .251-.067.5.5 0 0 0 .249-.433V29.68a.539.539 0 0 1 1.078 0v5.162a.541.541 0 0 1-.539.539" style="fill:#2eb6c7"/>
                <path data-name="Path 12778" d="M11.913 35.381a.548.548 0 0 1-.27-.071l-2.064-1.18a.506.506 0 0 0-.5 0l-2.062 1.18a.545.545 0 0 1-.269.07.524.524 0 0 1-.269-.072.535.535 0 0 1-.269-.466V29.68a.539.539 0 0 1 1.078 0v3.372a.5.5 0 0 0 .249.433.507.507 0 0 0 .251.067.5.5 0 0 0 .248-.066l1.027-.586a.53.53 0 0 1 .535 0l1.028.586a.5.5 0 0 0 .248.066.507.507 0 0 0 .251-.067.5.5 0 0 0 .249-.433V29.68a.539.539 0 0 1 1.078 0v5.162a.541.541 0 0 1-.539.539z" style="stroke:#2eb6c7;stroke-miterlimit:10;stroke-width:.75px;fill:none"/>
            </g>
        </g>
    </g>
</svg>
