<svg data-name="Group 4137" xmlns="http://www.w3.org/2000/svg" width="45" height="45" viewBox="0 0 45 45">
    <g data-name="Group 4128">
        <path data-name="Rectangle 2426" style="fill:none" d="M0 0h45v45H0z"/>
    </g>
    <g data-name="Group 4136">
        <g data-name="Group 4129">
            <path data-name="Path 4543" d="M246.046 640.178a9.836 9.836 0 0 1-5.636-1.807 9.055 9.055 0 0 1-3.5-10.385 8.2 8.2 0 0 1 4.947-4.857 5.247 5.247 0 0 0 3.053-3.3 5.614 5.614 0 0 1 .372-.815 5.7 5.7 0 0 1 3.986-2.8 6.543 6.543 0 0 1 5.393 1.489 6 6 0 0 1 1.9 6.514 5.561 5.561 0 0 1-1.009 1.759 4.765 4.765 0 0 0-1.1 4.144 8.24 8.24 0 0 1-6.354 9.825 9.231 9.231 0 0 1-2.052.233zm4.354-22.488a4.7 4.7 0 0 0-.842.076 4.13 4.13 0 0 0-2.894 2.017 3.882 3.882 0 0 0-.265.582 6.8 6.8 0 0 1-4 4.244 6.649 6.649 0 0 0-4.014 3.934 7.463 7.463 0 0 0 2.928 8.539 8.1 8.1 0 0 0 6.432 1.33 6.76 6.76 0 0 0 4.48-3.288 6.645 6.645 0 0 0 .683-4.677 6.4 6.4 0 0 1 1.447-5.49 3.967 3.967 0 0 0 .722-1.262 4.47 4.47 0 0 0-1.428-4.783 5.063 5.063 0 0 0-3.249-1.222z" transform="translate(-226.901 -599.692)" style="fill:#555"/>
        </g>
        <g data-name="Group 4130">
            <path data-name="Path 4544" d="m246.191 635.943-4.91-2.744 4.91 2.744z" transform="translate(-226.901 -599.692)" style="fill:#fff"/>
            <path data-name="Path 4545" d="M246.19 636.731a.771.771 0 0 1-.383-.1l-4.91-2.743a.787.787 0 1 1 .767-1.375l4.911 2.744a.788.788 0 0 1-.385 1.475z" transform="translate(-226.901 -599.692)" style="fill:#2eb6c7"/>
        </g>
        <g data-name="Group 4135">
            <g data-name="Group 4131">
                <path data-name="Path 4546" d="M247.02 632.84a4.162 4.162 0 1 1 3.642-2.131 4.167 4.167 0 0 1-3.642 2.131zm.012-6.75a2.608 2.608 0 0 0-.709.1 2.588 2.588 0 1 0 2.964 3.752 2.59 2.59 0 0 0-2.255-3.851zm2.943 4.235z" transform="translate(-226.901 -599.692)" style="fill:#555"/>
            </g>
            <g data-name="Group 4132">
                <path data-name="Rectangle 2427" transform="rotate(29.2 5.202 61.728)" style="fill:#fff" d="M0 0h4.5v6.75H0z"/>
                <path data-name="Path 4547" d="M258.321 613.868a.786.786 0 0 1-.384-.1l-3.928-2.2a.787.787 0 0 1-.3-1.071l3.291-5.888a.785.785 0 0 1 .473-.373.772.772 0 0 1 .6.07L262 606.5a.787.787 0 0 1 .3 1.071l-3.293 5.893a.785.785 0 0 1-.473.373.743.743 0 0 1-.213.031zm-2.857-3.286 2.554 1.427 2.524-4.518-2.553-1.426z" transform="translate(-226.901 -599.692)" style="fill:#555"/>
            </g>
            <g data-name="Group 4133">
                <path data-name="Path 4548" d="M248.08 625.415a.771.771 0 0 1-.383-.1.787.787 0 0 1-.3-1.071l7.134-12.767a.787.787 0 0 1 1.375.768l-7.134 12.767a.788.788 0 0 1-.692.403z" transform="translate(-226.901 -599.692)" style="fill:#555"/>
            </g>
            <g data-name="Group 4134">
                <path data-name="Path 4549" d="M250.044 626.513a.789.789 0 0 1-.686-1.172l7.133-12.767a.787.787 0 1 1 1.374.768l-7.133 12.767a.787.787 0 0 1-.688.404z" transform="translate(-226.9 -599.692)" style="fill:#555"/>
            </g>
        </g>
    </g>
</svg>
