<svg data-name="Group 4156" xmlns="http://www.w3.org/2000/svg" width="45" height="45" viewBox="0 0 45 45">
    <g data-name="Group 4153">
        <path data-name="Path 4561" d="M480.4 722.522h-7.233a1.569 1.569 0 0 1-1.567-1.568v-9.186l-9.18.007a1.569 1.569 0 0 1-1.567-1.567v-7.232a1.569 1.569 0 0 1 1.567-1.568h9.187l-.007-9.179a1.57 1.57 0 0 1 1.567-1.568h7.233a1.57 1.57 0 0 1 1.567 1.568v9.186l9.178-.007a1.569 1.569 0 0 1 1.568 1.568v7.232a1.569 1.569 0 0 1-1.568 1.567h-9.185l.007 9.179a1.569 1.569 0 0 1-1.567 1.568zm-8.795-12.322a1.57 1.57 0 0 1 1.568 1.568v9.186l7.225-.007-.008-9.179a1.57 1.57 0 0 1 1.568-1.568h9.185l-.007-7.217h-9.178a1.57 1.57 0 0 1-1.568-1.568v-9.186l-7.225.008.008 9.178a1.57 1.57 0 0 1-1.568 1.568h-9.187l.008 7.225zm19.538-7.217z" transform="translate(-454.281 -684.092)" style="fill:#555"/>
    </g>
    <g data-name="Group 4154">
        <path data-name="Rectangle 2430" style="fill:none" d="M0 0h45v45H0z"/>
    </g>
</svg>
