<svg data-name="Group 4035" xmlns="http://www.w3.org/2000/svg" width="45" height="45" viewBox="0 0 45 45">
    <g data-name="Group 4033">
        <g data-name="Group 4020">
            <path data-name="Path 4479" d="M375.35 590.3h-25.875a.788.788 0 0 1-.788-.788v-16.877a.788.788 0 0 1 .788-.788h25.875a.787.787 0 0 1 .787.788v16.875a.787.787 0 0 1-.787.79zm-25.088-1.576h24.3v-15.3h-24.3z" transform="translate(-340.049 -559.627)" style="fill:#555"/>
        </g>
        <g data-name="Group 4021">
            <path data-name="Path 4480" d="M361.062 585.409h-8.4a.788.788 0 0 1-.788-.788v-7.1a.787.787 0 0 1 .788-.787h8.4a.787.787 0 0 1 .788.787v7.1a.788.788 0 0 1-.788.788zm-7.612-1.576h6.824v-5.521h-6.824z" transform="translate(-340.049 -559.627)" style="fill:#555"/>
        </g>
        <g data-name="Group 4025">
            <g data-name="Group 4022">
                <path data-name="Path 4481" d="M349.46 571.216a2.475 2.475 0 1 1 2.476-2.476 2.479 2.479 0 0 1-2.476 2.476zm0-3.375a.9.9 0 1 0 .9.9.9.9 0 0 0-.9-.9z" transform="translate(-340.049 -559.627)" style="fill:#555"/>
            </g>
            <g data-name="Group 4023">
                <path data-name="Path 4482" d="M354.231 597.99h-9a.788.788 0 1 1 0-1.575h9a.788.788 0 0 1 0 1.575z" transform="translate(-340.049 -559.627)" style="fill:#555"/>
            </g>
            <g data-name="Group 4024">
                <path data-name="Path 4483" d="M349.393 597.99a.787.787 0 0 1-.787-.787v-25.875a.788.788 0 1 1 1.575 0V597.2a.787.787 0 0 1-.788.79z" transform="translate(-340.049 -559.627)" style="fill:#555"/>
            </g>
        </g>
        <g data-name="Group 4029">
            <g data-name="Group 4026">
                <path data-name="Path 4484" d="M375.421 571.175a2.455 2.455 0 1 1 2.456-2.456 2.457 2.457 0 0 1-2.456 2.456zm0-3.335a.879.879 0 1 0 .88.879.88.88 0 0 0-.88-.879z" transform="translate(-340.049 -559.627)" style="fill:#555"/>
            </g>
            <g data-name="Group 4027">
                <path data-name="Path 4485" d="M379.867 597.99h-8.891a.788.788 0 1 1 0-1.575h8.891a.788.788 0 1 1 0 1.575z" transform="translate(-340.049 -559.627)" style="fill:#555"/>
            </g>
            <g data-name="Group 4028">
                <path data-name="Path 4486" d="M375.382 597.629a.788.788 0 0 1-.788-.788v-25.565a.788.788 0 1 1 1.575 0v25.565a.787.787 0 0 1-.787.788z" transform="translate(-340.049 -559.627)" style="fill:#555"/>
            </g>
        </g>
        <g data-name="Group 4030">
            <path data-name="Path 4487" d="M372.231 585.432h-7.875a.788.788 0 1 1 0-1.576h7.875a.788.788 0 0 1 0 1.576z" transform="translate(-340.049 -559.627)" style="fill:#555"/>
        </g>
        <g data-name="Group 4031">
            <path data-name="Path 4488" d="M372.231 581.872h-7.875a.788.788 0 1 1 0-1.575h7.875a.788.788 0 0 1 0 1.575z" transform="translate(-340.049 -559.627)" style="fill:#555"/>
        </g>
        <g data-name="Group 4032">
            <path data-name="Path 4489" d="M372.231 578.312h-7.875a.788.788 0 1 1 0-1.575h7.875a.788.788 0 0 1 0 1.575z" transform="translate(-340.049 -559.627)" style="fill:#2eb6c7"/>
        </g>
    </g>
    <g data-name="Group 4034">
        <path data-name="Rectangle 2415" style="fill:none" d="M0 0h45v45H0z"/>
    </g>
</svg>
