<svg data-name="Component 249" xmlns="http://www.w3.org/2000/svg" width="45" height="45" viewBox="0 0 45 45">
    <path data-name="Rectangle 1988" style="fill:none" d="M0 0h45v45H0z"/>
    <g data-name="Group 3777">
        <g data-name="组 2209">
            <path data-name="Path 1797" d="m332.463-967.4-3.62-17.621a1.069 1.069 0 0 0-.558-.739 17.572 17.572 0 0 0-8.083-1.991 17.351 17.351 0 0 0-7.006 1.482 1.182 1.182 0 0 1-.945 0l-.066-.028a13.135 13.135 0 0 0-6-2.867.611.611 0 0 0-.732.445.612.612 0 0 0-.008.067.591.591 0 0 0 .466.642c.424.1.929.224 1.469.4a13.764 13.764 0 0 1 1.8.711 9.974 9.974 0 0 1 .987.551 8.815 8.815 0 0 1 .667.468c.084.066.165.135.247.2a5.6 5.6 0 0 1 1.023 1.146v16.748c-.054-.047-.113-.087-.169-.134a11.734 11.734 0 0 0-1.993-1.317c-3.483-1.831-8-2.218-11.839-1.841l2.646-14.443.06-.331.028-.148.026-.143.006-.033.119-.651.077-.414.207-1.138.4.018c.515.023 1.1.049 1.473.049a.6.6 0 0 0 .6-.527.592.592 0 0 0 .006-.065.6.6 0 0 0-.61-.592c-.346 0-.915-.026-1.417-.049a27.34 27.34 0 0 0-.968-.034.6.6 0 0 0-.6.488l-.408 2.228a17.321 17.321 0 0 0-2.6 1.1 1.071 1.071 0 0 0-.558.739l-3.62 17.621a1.085 1.085 0 0 0 .877 1.274 1.152 1.152 0 0 0 .218.021h15.346a1.168 1.168 0 0 1 .769.3 3.859 3.859 0 0 0 5.058 0 1.168 1.168 0 0 1 .769-.3h15.346a1.1 1.1 0 0 0 1.117-1.082 1.051 1.051 0 0 0-.007-.21zm-36.8-2.11v-.008L298.7-984.5a.528.528 0 0 1 .31-.374c.139-.062.28-.116.42-.174l-2.667 14.548a.579.579 0 0 0 .159.513.625.625 0 0 0 .521.178 25.672 25.672 0 0 1 6.032-.073h-.129a26.367 26.367 0 0 0-7.036.954.529.529 0 0 1-.393-.045.5.5 0 0 1-.244-.3.482.482 0 0 1-.009-.239zm14.653 2.381a.957.957 0 0 0-.619-.235H295.63a1.388 1.388 0 0 1-.23-.019 1.108 1.108 0 0 1-.9-1.29l.037-.177a1.608 1.608 0 0 0 .092.213 1.505 1.505 0 0 0 .117.187 1.713 1.713 0 0 0 .577.511 1.772 1.772 0 0 0 1.322.152 25.157 25.157 0 0 1 6.706-.909h.652a16.915 16.915 0 0 1 5.494.569 10.253 10.253 0 0 1 1.962 1.372q.12.108.237.22c.06.059.12.117.178.178a3.682 3.682 0 0 1-1.557-.774zm2.617-18.325-.061-.078a.981.981 0 0 0 .15-.037.867.867 0 0 0-.088.113zm.9.978a.514.514 0 0 1 .314-.473 15.345 15.345 0 0 1 6.055-1.241 15.334 15.334 0 0 1 3.183.335 15.9 15.9 0 0 1 3.055.988.526.526 0 0 1 .305.373l3.031 14.978v.007a.492.492 0 0 1-.008.236.509.509 0 0 1-.244.3.528.528 0 0 1-.392.045 26.4 26.4 0 0 0-7.037-.954h-.03c-2.537 0-5.412 0-7.654 1.451-.307.2-.467.188-.493.174s-.091-.113-.091-.308zm16 17.113h-14.09a.955.955 0 0 0-.616.233 3.689 3.689 0 0 1-1.8.821v-.919l.02.013a1.343 1.343 0 0 0 .62.146 2.066 2.066 0 0 0 1.126-.38c1.935-1.252 4.5-1.252 6.979-1.252h.028a25.13 25.13 0 0 1 6.707.911 1.774 1.774 0 0 0 1.32-.153 1.72 1.72 0 0 0 .577-.51 1.676 1.676 0 0 0 .116-.187 1.61 1.61 0 0 0 .092-.213l.038.178a1.13 1.13 0 0 1 .019.229 1.121 1.121 0 0 1-1.135 1.08z" transform="translate(-290.17 999.31)" style="fill:#555"/>
        </g>
        <path data-name="Path 1798" d="M321.38-981.639a.6.6 0 0 1-.26-.061 10.668 10.668 0 0 0-8.779 0 .582.582 0 0 1-.78-.26.582.582 0 0 1 .259-.78 11.711 11.711 0 0 1 9.82 0 .582.582 0 0 1 .259.78.581.581 0 0 1-.519.321z" transform="translate(-286.324 1000.117)" style="fill:#555"/>
        <path data-name="Path 1799" d="M321.38-976.639a.6.6 0 0 1-.26-.06 10.673 10.673 0 0 0-8.779 0 .583.583 0 0 1-.78-.26.582.582 0 0 1 .259-.78 11.711 11.711 0 0 1 9.82 0 .582.582 0 0 1 .259.78.581.581 0 0 1-.519.32z" transform="translate(-286.324 1001.086)" style="fill:#2fb6c7"/>
        <path data-name="Path 1800" d="M308.2-973.752a.582.582 0 0 1-.353-.12 10.677 10.677 0 0 0-8.624-1.648.581.581 0 0 1-.717-.4.582.582 0 0 1 .4-.717 11.716 11.716 0 0 1 9.644 1.844.581.581 0 0 1 .109.815.579.579 0 0 1-.459.226z" transform="translate(-288.944 1001.463)" style="fill:#555"/>
        <path data-name="Path 1801" d="M312.082-978.648a.579.579 0 0 1-.5-.282.581.581 0 0 1 .2-.8c.127-.078 3.168-1.855 8-.646a.579.579 0 0 1 .423.7.579.579 0 0 1-.7.423 10.089 10.089 0 0 0-7.117.517.582.582 0 0 1-.306.088z" transform="translate(-286.364 1000.708)" style="fill:#2fb6c7"/>
        <path data-name="Path 1802" d="M307.546-977.28a.581.581 0 0 1-.274-.069 10.077 10.077 0 0 0-7.029-1.237.582.582 0 0 1-.722-.392.58.58 0 0 1 .388-.722c.141-.043 3.524-1.023 7.911 1.325a.581.581 0 0 1 .237.787.578.578 0 0 1-.511.308z" transform="translate(-288.758 1000.88)" style="fill:#555"/>
    </g>
</svg>
