<svg data-name="Group 4069" xmlns="http://www.w3.org/2000/svg" width="45" height="45" viewBox="0 0 45 45">
    <g data-name="Group 4067">
        <g data-name="Group 4063">
            <g data-name="Group 4061">
                <path data-name="Path 4505" d="M242.09 661.2a.788.788 0 0 1-.557-1.345 7.178 7.178 0 0 1 10.138 0 .788.788 0 1 1-1.114 1.114 5.6 5.6 0 0 0-7.91 0 .786.786 0 0 1-.557.231z" transform="translate(-224.102 -642.496)" style="fill:#2eb6c7"/>
            </g>
            <g data-name="Group 4062">
                <path data-name="Path 4506" d="M250.148 656.932a.785.785 0 0 1-.557-.23 4.232 4.232 0 0 0-5.978 0 .788.788 0 0 1-1.114-1.114 5.81 5.81 0 0 1 8.206 0 .787.787 0 0 1-.557 1.344z" transform="translate(-224.102 -642.496)" style="fill:#2eb6c7"/>
            </g>
        </g>
        <g data-name="Group 4064">
            <path data-name="Path 4507" d="M246.732 679.955c-6.018 0-11.188-4.938-12.473-11.69a1.836 1.836 0 0 1-.583.095c-1.53 0-2.684-1.844-2.684-4.289s1.154-4.288 2.684-4.288a1.887 1.887 0 0 1 .984.282c1.768-5.974 6.56-10.028 12.072-10.028 5.435 0 10.236 4.014 12.037 9.908a1.865 1.865 0 0 1 .759-.162c1.53 0 2.684 1.844 2.684 4.288s-1.154 4.289-2.684 4.289a1.84 1.84 0 0 1-.331-.03c-1.31 6.701-6.505 11.625-12.465 11.625zm-11.892-13.911a.761.761 0 0 1 .194.025.787.787 0 0 1 .589.677c.726 6.632 5.5 11.633 11.109 11.633 5.5 0 10.258-4.884 11.082-11.362a.788.788 0 0 1 1.351-.444.6.6 0 0 0 .363.212c.441 0 1.108-1.082 1.108-2.714s-.667-2.713-1.108-2.713c-.158 0-.361.163-.542.438a.787.787 0 0 1-1.425-.263c-1.309-5.841-5.762-9.92-10.829-9.92-5.2 0-9.676 4.21-10.894 10.24a.788.788 0 0 1-1.476.2c-.211-.419-.48-.691-.686-.691-.441 0-1.108 1.082-1.108 2.713s.667 2.714 1.108 2.714c.148 0 .341-.151.517-.4a.789.789 0 0 1 .647-.345z" transform="translate(-224.102 -642.496)" style="fill:#555"/>
        </g>
        <g data-name="Group 4065">
            <path data-name="Path 4508" d="M232.311 661.935a.787.787 0 0 1-.758-.577c-.781-2.807-.5-5.038.847-6.63 2.475-2.935 7.6-2.448 7.817-2.425a.788.788 0 0 1-.159 1.567c-.047-.005-4.521-.424-6.457 1.877-.984 1.169-1.163 2.916-.531 5.189a.787.787 0 0 1-.547.97.778.778 0 0 1-.212.029z" transform="translate(-224.102 -642.496)" style="fill:#555"/>
        </g>
        <g data-name="Group 4066">
            <path data-name="Path 4509" d="M261 661.935a.773.773 0 0 1-.212-.029.788.788 0 0 1-.548-.97c.633-2.275.454-4.023-.533-5.192-1.945-2.306-6.408-1.877-6.453-1.874a.788.788 0 0 1-.16-1.567c.217-.022 5.341-.509 7.817 2.425 1.343 1.592 1.628 3.823.847 6.63a.788.788 0 0 1-.758.577z" transform="translate(-224.102 -642.496)" style="fill:#555"/>
        </g>
    </g>
    <g data-name="Group 4068">
        <path data-name="Rectangle 2421" style="fill:none" d="M0 0h45v45H0z"/>
    </g>
</svg>
