<svg data-name="Group 4039" xmlns="http://www.w3.org/2000/svg" width="45" height="45" viewBox="0 0 45 45">
    <g data-name="Group 4036">
        <path data-name="Path 4490" d="M374.508 717.085h-29.835a5.09 5.09 0 0 1-4.856-5.284 5.215 5.215 0 0 1 3.627-5.113 6.247 6.247 0 0 1 5.975-6.167 5.543 5.543 0 0 1 1.106.112c1.522-3.082 5.092-5.108 9.125-5.108a10.715 10.715 0 0 1 7.673 3.069 5.537 5.537 0 0 1 2.439-.571 6.285 6.285 0 0 1 5.986 6.533 7.126 7.126 0 0 1-.3 2.059 5.2 5.2 0 0 1 3.92 5.186 5.09 5.09 0 0 1-4.86 5.284zM349.419 702.1a4.713 4.713 0 0 0-4.41 4.957l.006.125v.125a.785.785 0 0 1-.693.81 3.56 3.56 0 0 0-2.934 3.687 3.518 3.518 0 0 0 3.28 3.709h29.835a3.737 3.737 0 0 0 0-7.418h-.18a.789.789 0 0 1-.707-1.137 5.422 5.422 0 0 0 .552-2.4 4.715 4.715 0 0 0-4.411-4.958 4.029 4.029 0 0 0-2.178.653.787.787 0 0 1-1.033-.159 8.964 8.964 0 0 0-6.9-2.991c-3.664 0-6.856 1.908-7.941 4.75a.79.79 0 0 1-.993.463 3.979 3.979 0 0 0-1.293-.216z" transform="translate(-337.091 -683.805)" style="fill:#555"/>
    </g>
    <g data-name="Group 4037">
        <path data-name="Rectangle 2416" style="fill:none" d="M0 0h45v45H0z"/>
    </g>
    <g data-name="Group 4038">
        <path data-name="Path 4491" d="M354.783 703.773a.814.814 0 0 1-.189-.023.788.788 0 0 1-.577-.954 3.651 3.651 0 0 1 2.7-2.487 8.643 8.643 0 0 1 4.52-.019.788.788 0 0 1-.378 1.53 7.036 7.036 0 0 0-3.679-.006c-.526.162-1.439.554-1.637 1.359a.786.786 0 0 1-.76.6z" transform="translate(-337.091 -683.805)" style="fill:#2eb6c7"/>
    </g>
</svg>
