<svg data-name="Group 4127" xmlns="http://www.w3.org/2000/svg" width="45" height="45" viewBox="0 0 45 45">
    <g data-name="Group 4125">
        <g data-name="Group 4109">
            <path data-name="Path 4532" d="M619.224 644.284H603a.788.788 0 0 1-.788-.788V612a.788.788 0 0 1 .788-.788h16.228a.787.787 0 0 1 .787.788v31.5a.787.787 0 0 1-.791.784zm-15.44-1.576h14.652v-29.924h-14.652z" transform="translate(-581.928 -605.246)" style="fill:#555"/>
        </g>
        <g data-name="Group 4112">
            <g data-name="Group 4110">
                <path data-name="Path 4533" d="M609.678 621.375h-2.863a.788.788 0 0 1-.788-.788v-3.818a.788.788 0 0 1 .788-.788h2.863a.787.787 0 0 1 .787.788v3.818a.787.787 0 0 1-.787.788zM607.6 619.8h1.288v-2.242H607.6z" transform="translate(-581.928 -605.246)" style="fill:#2eb6c7"/>
            </g>
            <g data-name="Group 4111">
                <path data-name="Path 4534" d="M615.405 621.375h-2.863a.788.788 0 0 1-.788-.788v-3.818a.788.788 0 0 1 .788-.788h2.863a.788.788 0 0 1 .788.788v3.818a.788.788 0 0 1-.788.788zm-2.075-1.575h1.287v-2.242h-1.287z" transform="translate(-581.928 -605.246)" style="fill:#2eb6c7"/>
            </g>
        </g>
        <g data-name="Group 4115">
            <g data-name="Group 4113">
                <path data-name="Path 4535" d="M609.678 628.534h-2.863a.788.788 0 0 1-.788-.788v-3.818a.788.788 0 0 1 .788-.788h2.863a.787.787 0 0 1 .787.788v3.818a.787.787 0 0 1-.787.788zm-2.076-1.576h1.288v-2.242h-1.29z" transform="translate(-581.928 -605.246)" style="fill:#555"/>
            </g>
            <g data-name="Group 4114">
                <path data-name="Path 4536" d="M615.405 628.534h-2.863a.788.788 0 0 1-.788-.788v-3.818a.788.788 0 0 1 .788-.788h2.863a.788.788 0 0 1 .788.788v3.818a.788.788 0 0 1-.788.788zm-2.075-1.576h1.287v-2.242h-1.287z" transform="translate(-581.928 -605.246)" style="fill:#555"/>
            </g>
        </g>
        <g data-name="Group 4118">
            <g data-name="Group 4116">
                <path data-name="Path 4537" d="M609.678 635.693h-2.863a.788.788 0 0 1-.788-.788v-3.818a.788.788 0 0 1 .788-.788h2.863a.787.787 0 0 1 .787.788v3.818a.787.787 0 0 1-.787.788zm-2.076-1.576h1.288v-2.242h-1.29z" transform="translate(-581.928 -605.246)" style="fill:#555"/>
            </g>
            <g data-name="Group 4117">
                <path data-name="Path 4538" d="M615.405 635.693h-2.863a.788.788 0 0 1-.788-.788v-3.818a.788.788 0 0 1 .788-.788h2.863a.788.788 0 0 1 .788.788v3.818a.788.788 0 0 1-.788.788zm-2.075-1.576h1.287v-2.242h-1.287z" transform="translate(-581.928 -605.246)" style="fill:#555"/>
            </g>
        </g>
        <g data-name="Group 4124">
            <g data-name="Group 4119">
                <path data-name="Path 4539" d="M603 644.284h-13.368a.788.788 0 0 1-.788-.788v-20.045a.788.788 0 0 1 .788-.788H603a.788.788 0 0 1 .788.788V643.5a.788.788 0 0 1-.788.784zm-12.576-1.576h11.788v-18.47H590.42z" transform="translate(-581.928 -605.246)" style="fill:#555"/>
            </g>
            <g data-name="Group 4120">
                <path data-name="Path 4540" d="M599.178 644.284h-5.727a.788.788 0 0 1-.788-.788v-5.727a.788.788 0 0 1 .788-.788h5.727a.788.788 0 0 1 .788.788v5.731a.788.788 0 0 1-.788.784zm-4.939-1.576h4.151v-4.152h-4.151z" transform="translate(-581.928 -605.246)" style="fill:#555"/>
            </g>
            <g data-name="Group 4123">
                <g data-name="Group 4121">
                    <path data-name="Path 4541" d="M594.882 631.875h-2.864a.787.787 0 0 1-.787-.788v-3.818a.787.787 0 0 1 .787-.788h2.864a.788.788 0 0 1 .788.788v3.818a.788.788 0 0 1-.788.788zm-2.076-1.576h1.289v-2.242h-1.289z" transform="translate(-581.928 -605.246)" style="fill:#555"/>
                </g>
                <g data-name="Group 4122">
                    <path data-name="Path 4542" d="M600.61 631.875h-2.864a.788.788 0 0 1-.788-.788v-3.818a.788.788 0 0 1 .788-.788h2.864a.787.787 0 0 1 .787.788v3.818a.787.787 0 0 1-.787.788zm-2.077-1.576h1.289v-2.242h-1.289z" transform="translate(-581.928 -605.246)" style="fill:#555"/>
                </g>
            </g>
        </g>
    </g>
    <g data-name="Group 4126">
        <path data-name="Rectangle 2425" style="fill:none" d="M0 0h45v45H0z"/>
    </g>
</svg>
