<svg data-name="Component 104 – 15" xmlns="http://www.w3.org/2000/svg" width="45" height="45" viewBox="0 0 45 45">
    <path data-name="Rectangle 1988" style="fill:none" d="M0 0h45v45H0z"/>
    <g data-name="Group 2817">
        <g data-name="Group 2811">
            <path data-name="Path 1780" d="M307.03-1016.931a2.185 2.185 0 0 0-2.184 2.184 2.186 2.186 0 0 0 2.184 2.186h4.949a2.186 2.186 0 0 0 2.182-2.184 2.184 2.184 0 0 0-2.182-2.186zm5.6 2.193a.648.648 0 0 1-.648.649h-4.952a.649.649 0 0 1-.649-.649.649.649 0 0 1 .649-.648h4.949a.648.648 0 0 1 .647.648z" transform="translate(-286.272 1046.4)" style="fill:#555"/>
            <path data-name="Path 1781" d="M297.831-1016.1a3.049 3.049 0 0 0 3.04 3.057 3.051 3.051 0 0 0 3.057-3.039 3.048 3.048 0 0 0-3.04-3.055 3.047 3.047 0 0 0-3.057 3.037zm4.533 0a1.493 1.493 0 0 1-1.493 1.493 1.493 1.493 0 0 1-1.493-1.493 1.493 1.493 0 0 1 1.493-1.493h.007a1.49 1.49 0 0 1 1.486 1.493z" transform="translate(-287.149 1046.124)" style="fill:#555"/>
            <path data-name="Path 1782" d="M327.463-1021.017v-.416c0-.063 0-.126-.008-.189a2.2 2.2 0 0 0-2.382-2.007l-2.058.164a10.347 10.347 0 0 0-.178-1.785h-1.592l.071.224a15.9 15.9 0 0 1 .156 2.605l-.085 1.707 1.345-1.059a.667.667 0 0 1 .348-.14l2.127-.171a.591.591 0 0 1 .486.165.639.639 0 0 1 .208.477v.418a.632.632 0 0 1-.2.468.67.67 0 0 1-.477.171l-1.095-.053.139.939c.044.286.1.547.156.842a24.577 24.577 0 0 1 .5 3.725 73.256 73.256 0 0 1 .182 7.337v.06a1.039 1.039 0 0 1-1.035 1.043h-1.781a1.036 1.036 0 0 1-1.037-1.034v-2.343h-21.691v2.35a1.029 1.029 0 0 1-1.034 1.026h-1.78a1.044 1.044 0 0 1-.755-.33 1.082 1.082 0 0 1-.279-.854 67.375 67.375 0 0 1 .171-7.258 25.781 25.781 0 0 1 .495-3.724c.061-.287.113-.547.156-.834l.138-.938-1.093.052a.653.653 0 0 1-.478-.171.639.639 0 0 1-.2-.468v-.416a.654.654 0 0 1 .208-.478.619.619 0 0 1 .486-.164l2.127.17a.648.648 0 0 1 .348.14l1.346 1.058-.086-1.707a15.757 15.757 0 0 1 .156-2.6l.99-3.108a3.269 3.269 0 0 1 3.125-2.292h11.853V-1032H303.6a4.828 4.828 0 0 0-4.621 3.378l-.985 3.108a10.447 10.447 0 0 0-.217 2.041l-2.058-.165a2.153 2.153 0 0 0-1.675.574 2.219 2.219 0 0 0-.712 1.621v.416a2.178 2.178 0 0 0 .683 1.6 2.327 2.327 0 0 0 .816.5 26.779 26.779 0 0 0-.512 3.89 67.681 67.681 0 0 0-.183 7.354 2.646 2.646 0 0 0 .7 1.944 2.575 2.575 0 0 0 1.892.825h1.78a2.6 2.6 0 0 0 2.6-2.6v-.781h18.593v.781a2.6 2.6 0 0 0 2.6 2.6h1.776a2.606 2.606 0 0 0 1.894-.822 2.552 2.552 0 0 0 .7-1.858c0-.131.12-3.316-.183-7.432a26.8 26.8 0 0 0-.512-3.89 2.22 2.22 0 0 0 1.487-2.101z" transform="translate(-287.711 1044.516)" style="fill:#555"/>
            <path data-name="Path 1783" d="M318.3-1013.429a3.049 3.049 0 0 0 1.191-1.191 3.046 3.046 0 0 0-1.191-4.14 2.949 2.949 0 0 0-1.484-.39 3.055 3.055 0 0 0-3.055 3.054 3.056 3.056 0 0 0 3.055 3.058 3.086 3.086 0 0 0 1.484-.391zm-2.978-2.666a1.493 1.493 0 0 1 1.494-1.493 1.416 1.416 0 0 1 .72.189 1.5 1.5 0 0 1 .575.574 1.494 1.494 0 0 1-.575 2.032 1.384 1.384 0 0 1-.72.191 1.494 1.494 0 0 1-1.494-1.498z" transform="translate(-285.158 1046.122)" style="fill:#555"/>
            <path data-name="Path 1784" d="M307.127-1022.173h-5a1.528 1.528 0 0 1-.257-.045 1.45 1.45 0 0 1-1.02-1.782l1.215-3.543a1.38 1.38 0 0 1 1.329-.878h11.326v-1.563h-11.331a2.935 2.935 0 0 0-2.8 1.936l-1.216 3.542a3.033 3.033 0 0 0-.128.729 3.01 3.01 0 0 0 2.852 3.161h15.119a3.023 3.023 0 0 0 .737-.129 3.011 3.011 0 0 0 1.995-3.761l-.345-1h-1.653l.519 1.507a1.366 1.366 0 0 1-.209 1.207 1.346 1.346 0 0 1-1.059.615h-.3a5.006 5.006 0 0 0-4.886-3.941 5.007 5.007 0 0 0-4.888 3.945zm8.178 0h-6.577a3.461 3.461 0 0 1 3.286-2.406 3.464 3.464 0 0 1 3.286 2.406z" transform="translate(-286.973 1044.769)" style="fill:#555"/>
        </g>
        <g data-name="Group 2812">
            <path data-name="Path 1785" d="M323.56-1037.125h-7.839a1.848 1.848 0 0 0-1.846 1.845v7.841a1.848 1.848 0 0 0 1.846 1.845h7.839a1.848 1.848 0 0 0 1.846-1.845v-7.841a1.848 1.848 0 0 0-1.846-1.845zm.542 9.686a.542.542 0 0 1-.542.541h-7.839a.542.542 0 0 1-.542-.541v-7.841a.542.542 0 0 1 .542-.541h7.839a.542.542 0 0 1 .542.541z" transform="translate(-285.144 1043.875)" style="fill:#555"/>
            <path data-name="Path 1786" d="M321.868-1034.739a2.461 2.461 0 0 0-1.709-.622H317.4a.726.726 0 0 0-.758.806v6.1a.731.731 0 0 0 .758.815c.334 0 .692-.214.692-.815v-2.232h2.137a2.255 2.255 0 0 0 1.679-.7 2.487 2.487 0 0 0 .64-1.729 2.173 2.173 0 0 0-.681-1.618zm-1.1 2.341a.949.949 0 0 1-.7.262H318.1l-.009-1.775h1.933a1.152 1.152 0 0 1 .751.248.645.645 0 0 1 .268.546.94.94 0 0 1-.271.717z" transform="translate(-284.798 1044.095)" style="fill:#2eb6c7"/>
        </g>
    </g>
</svg>
