<svg data-name="Group 4145" xmlns="http://www.w3.org/2000/svg" width="45" height="45" viewBox="0 0 45 45">
    <g data-name="Group 4138">
        <path data-name="Rectangle 2428" style="fill:none" d="M0 0h45v45H0z"/>
    </g>
    <g data-name="Group 4144">
        <g data-name="Group 4139">
            <path data-name="Path 4550" d="M254.367 725.7a2.189 2.189 0 0 1-.762-.136l-.435-.162a2.18 2.18 0 0 1-1.283-2.8l2.354-4.413-2.92-1.085a2.181 2.181 0 0 1-1.283-2.8l.162-.434a2.177 2.177 0 0 1 2.8-1.283l5.5 2.044a2.181 2.181 0 0 1 1.283 2.8l-.161.434-3.254 6.495a2.124 2.124 0 0 1-2.001 1.34zm-2.127-11.675a.6.6 0 0 0-.564.393l-.161.434a.6.6 0 0 0 .355.775l3.765 1.4a.787.787 0 0 1 .42 1.109l-2.735 5.113a.7.7 0 0 0 .061.363.6.6 0 0 0 .338.315l.434.161a.6.6 0 0 0 .775-.355l3.381-6.85a.6.6 0 0 0-.356-.775l-5.5-2.044a.586.586 0 0 0-.213-.043z" transform="translate(-228.116 -684.274)" style="fill:#555"/>
        </g>
        <g data-name="Group 4140">
            <path data-name="Path 4551" d="M246.5 725.7a2.181 2.181 0 0 1-2.044-1.42l-3.38-6.851a2.176 2.176 0 0 1 1.283-2.8l5.5-2.044a2.179 2.179 0 0 1 2.8 1.283l.161.435a2.181 2.181 0 0 1-1.282 2.8l-2.92 1.084 2.309 4.317a2.2 2.2 0 0 1-1.238 2.9l-.435.162a2.181 2.181 0 0 1-.754.134zm2.12-11.675a.586.586 0 0 0-.21.038l-5.5 2.044a.6.6 0 0 0-.355.774l.161.436 3.185 6.336a.635.635 0 0 0 .809.434l.435-.161a.6.6 0 0 0 .355-.775l-2.691-5.016a.785.785 0 0 1 .42-1.109l3.765-1.4a.6.6 0 0 0 .355-.774l-.161-.436a.6.6 0 0 0-.565-.392zm-.484-.7z" transform="translate(-228.115 -684.274)" style="fill:#555"/>
        </g>
        <g data-name="Group 4141">
            <path data-name="Path 4552" d="M250.615 698.7a5.422 5.422 0 1 1 5.423-5.422 5.428 5.428 0 0 1-5.423 5.422zm0-9.268a3.846 3.846 0 1 0 3.847 3.846 3.85 3.85 0 0 0-3.847-3.85z" transform="translate(-228.116 -684.274)" style="fill:#555"/>
        </g>
        <g data-name="Group 4142">
            <path data-name="Path 4553" d="M254.306 712.574h-7.4a1.725 1.725 0 0 1-1.722-1.723v-6.269a.146.146 0 0 0-.224-.124l-4.737 3.663a1.737 1.737 0 0 1-2.437-.5l-.483-.773a1.725 1.725 0 0 1 .546-2.373l7.47-5.376a.79.79 0 0 1 .46-.148h9.462a.936.936 0 0 1 .106.007.8.8 0 0 1 .565.141l7.512 5.4a1.677 1.677 0 0 1 .723 1.045 1.708 1.708 0 0 1-.219 1.3l-.483.772a1.723 1.723 0 0 1-2.373.547l-4.883-3.763c.015.014-.035.012-.085.04a.139.139 0 0 0-.076.129v6.28a1.725 1.725 0 0 1-1.722 1.725zm-9.247-9.709a1.676 1.676 0 0 1 .813.211 1.724 1.724 0 0 1 .888 1.506v6.269a.146.146 0 0 0 .146.147h7.4a.147.147 0 0 0 .147-.147v-6.28a1.722 1.722 0 0 1 2.635-1.46l4.883 3.763a.243.243 0 0 0 .139-.09l.483-.773a.166.166 0 0 0-.047-.2l-7.347-5.282h-9.167l-7.3 5.254c-.111.071-.132.163-.089.232l.483.773a.149.149 0 0 0 .2.046l4.737-3.663a1.865 1.865 0 0 1 .996-.306z" transform="translate(-228.116 -684.274)" style="fill:#555"/>
        </g>
        <g data-name="Group 4143">
            <path data-name="Path 4554" d="m251.274 717.684 4.5-4.2a.965.965 0 0 0-.659-1.67h-9.007a.965.965 0 0 0-.658 1.67l4.5 4.2a.965.965 0 0 0 1.324 0z" transform="translate(-228.116 -684.274)" style="fill:#fff"/>
            <path data-name="Path 4555" d="M250.615 718.684a1.872 1.872 0 0 1-1.278-.5l-4.2-3.918a1.873 1.873 0 0 1 1.278-3.242h8.4a1.873 1.873 0 0 1 1.278 3.242l-4.2 3.918a1.873 1.873 0 0 1-1.278.5zm.741-1.077zm-4.938-5.008a.3.3 0 0 0-.2.515l4.2 3.918a.3.3 0 0 0 .407 0l4.2-3.918a.3.3 0 0 0-.2-.515z" transform="translate(-228.116 -684.274)" style="fill:#2eb6c7"/>
        </g>
    </g>
</svg>
