<svg width="24" height="24" viewBox="0 0 24 24" fill="none" xmlns="http://www.w3.org/2000/svg">
<path d="M11.2727 16.0625C13.5351 16.0625 15.4235 14.4127 15.8159 12.208C16.8355 11.4792 17.4545 10.2952 17.4545 9.03125C17.4545 9.02555 17.4545 9.01984 17.4545 9.01422C18.4187 8.28109 19 7.13172 19 5.90625C19 3.75234 17.2668 2 15.1364 2C14.9813 2 14.8251 2.00957 14.6719 2.02848C13.9966 2.11191 13.3586 2.37813 12.8176 2.79492C12.1517 2.2834 11.3395 2 10.5 2C9.24123 2 8.09037 2.61215 7.37161 3.63191C7.11773 3.58539 6.87421 3.5625 6.63636 3.5625C4.07987 3.5625 2 5.66531 2 8.25C2 9.82117 2.7728 11.28 4.06724 12.1525L4.36903 12.3559C2.8342 14.2887 2 16.6731 2 19.1875V22H6.63636V16.0625C6.63636 15.3757 6.74686 14.7145 6.95025 14.0957L8.70202 15.2765C9.46084 15.7907 10.3498 16.0625 11.2727 16.0625ZM5.09091 16.0625V20.4375H3.54545V19.1875C3.54545 16.9783 4.30539 14.9448 5.5746 13.3407C5.26187 14.1886 5.09091 15.1057 5.09091 16.0625ZM8.9982 11.152L11.6359 12.8187L12.455 11.4937L10.5102 10.2648C11.2234 9.97355 12.002 9.8127 12.8172 9.8125H12.8182V8.25C11.7562 8.25 10.7177 8.40422 9.72727 8.70117V6.6875H8.18182V9.29918C7.18504 9.77777 6.25904 10.4144 5.43346 11.1955L4.92454 10.8524C4.06098 10.2704 3.54545 9.29754 3.54545 8.25C3.54545 6.52688 4.93204 5.125 6.63636 5.125C6.90377 5.125 7.18407 5.17219 7.51843 5.27355L8.14276 5.46281L8.43253 4.87254C8.82925 4.06449 9.62145 3.5625 10.5 3.5625C11.1678 3.5625 11.7844 3.85039 12.2364 4.37316L12.8183 5.04617L13.4 4.37312C13.7829 3.93027 14.3011 3.64844 14.8593 3.57949C14.9504 3.5682 15.0437 3.5625 15.1364 3.5625C16.4146 3.5625 17.4545 4.61391 17.4545 5.90625C17.4545 6.74242 16.9977 7.52141 16.2623 7.93922L15.8059 8.19848C15.8059 8.19848 15.8822 8.77805 15.886 8.80551C15.8984 8.89461 15.9091 8.97156 15.9091 9.03125C15.9091 9.86594 15.4535 10.6443 14.7201 11.0625L14.3685 11.2629L14.3304 11.6691C14.1789 13.283 12.8644 14.5 11.2727 14.5C10.6573 14.5 10.0659 14.3197 9.56087 13.9775L7.62642 12.6736C7.99833 12.0933 8.46255 11.5789 8.9982 11.152Z" fill="#333333"/>
<path d="M19.75 13C18.5094 13 17.5 14.0094 17.5 15.25V16H19V15.25C19 14.8365 19.3365 14.5 19.75 14.5C20.1636 14.5 20.5 14.8365 20.5 15.25C20.5 16.4907 19.4907 17.5 18.25 17.5H16V19H18.25C20.3178 19 22 17.3178 22 15.25C22 14.0094 20.9907 13 19.75 13Z" fill="#2EB6C7"/>
<path d="M11 17H14V19H11V17Z" fill="#2EB6C7"/>
<path d="M13 20H18V22H13V20Z" fill="#2EB6C7"/>
</svg>
