<svg width="24" height="24" viewBox="0 0 24 24" fill="none" xmlns="http://www.w3.org/2000/svg">
<path d="M24 10.5909C24 9.0119 22.7383 7.72727 21.1875 7.72727H16.875V13.4545H15V5.81818H3.75V3.90909H20.4375V2H0V3.90909H1.875V5.81818H0V21.0909H2.03625C2.42325 22.2019 3.46533 23 4.6875 23C5.90967 23 6.9517 22.2019 7.33875 21.0909H16.6613C17.0483 22.2019 18.0903 23 19.3125 23C20.5347 23 21.5767 22.2019 21.9637 21.0909H24V10.5909ZM18.75 9.63636H21.1875C21.7044 9.63636 22.125 10.0646 22.125 10.5909V13.4545H18.75V9.63636ZM13.125 7.72727V19.1818H7.33875C6.95175 18.0708 5.90967 17.2727 4.6875 17.2727C3.46533 17.2727 2.4233 18.0708 2.03625 19.1818H1.875V15.3636H11.25V13.4545H9.375V11.5455H11.25V9.63636H1.875V7.72727H13.125ZM5.625 13.4545V11.5455H7.5V13.4545H5.625ZM3.75 13.4545H1.875V11.5455H3.75V13.4545ZM4.6875 21.0909C4.17056 21.0909 3.75 20.6627 3.75 20.1364C3.75 19.61 4.17056 19.1818 4.6875 19.1818C5.20444 19.1818 5.625 19.61 5.625 20.1364C5.625 20.6627 5.20444 21.0909 4.6875 21.0909ZM19.3125 21.0909C18.7956 21.0909 18.375 20.6627 18.375 20.1364C18.375 19.61 18.7956 19.1818 19.3125 19.1818C19.8294 19.1818 20.25 19.61 20.25 20.1364C20.25 20.6627 19.8294 21.0909 19.3125 21.0909ZM21.9637 19.1818C21.5767 18.0708 20.5347 17.2727 19.3125 17.2727C18.0903 17.2727 17.0483 18.0708 16.6613 19.1818H15V15.3636H22.125V19.1818H21.9637Z" fill="#333333"/>
<rect y="2" width="21" height="2" fill="#2EB6C7"/>
</svg>
