<svg width="24" height="24" viewBox="0 0 24 24" fill="none" xmlns="http://www.w3.org/2000/svg">
<path d="M12.7871 10.7336L14.0224 9.42887L16.0751 11.3721L18.4158 3.65184L10.8352 6.41141L12.8878 8.35469L11.5076 9.8125H10.7641L9.20156 6.6875H7.71934L6.15684 2H2V22H22V17.7963L15.5068 16.173L12.7871 10.7336ZM16.0138 6.18902L15.3133 8.49938L13.7452 7.01484L16.0138 6.18902ZM20.4375 20.4375H3.5625V3.5625H5.03066L6.07234 6.6875H4.8125V8.25H8.23594L9.33066 10.4395L6.05141 13.7188L7.9375 15.6048V17.625H9.5V14.9577L8.26109 13.7188L10.6048 11.375H11.3609L14.0181 16.6895L12.8538 17.8538L13.9587 18.9587L15.2084 17.7089L20.4375 19.0162V20.4375Z" fill="#333333"/>
<path d="M19.4422 7.7124L17.3125 11.9719V14.2016L19.6562 15.3735L22 14.2016V10.2702L19.4422 7.7124ZM20.4375 13.2359L19.6562 13.6265L18.875 13.2359V12.3407L19.8703 10.3501L20.4375 10.9174V13.2359Z" fill="#2EB6C7"/>
<path d="M9.5 3.5625H11.0625V5.125H9.5V3.5625Z" fill="#2EB6C7"/>
</svg>
